%FSLAX45Y45*%
G04 Gerber Fmt 4.5, Leading zero omitted, Abs format (unit mm)*
G04 Created by KiCad (PCBNEW 5.1.4+dfsg1-1~bpo10+1) date 2020-01-10 16:49:56*
%MOMM*%
%LPD*%
G04 APERTURE LIST*
%ADD10C,0.150000*%
%ADD11C,0.200000*%
%ADD12C,0.300000*%
G04 APERTURE END LIST*
D10*
X12310110Y-10246360D02*
X12360910Y-10297160D01*
X12360910Y-10297160D02*
X12360910Y-10703560D01*
X12360910Y-10703560D02*
X12310110Y-10754360D01*
X17898110Y-9357360D02*
G75*
G02X18152110Y-9611360I0J-254000D01*
G01*
X18152110Y-11389360D02*
G75*
G02X17898110Y-11643360I-254000J0D01*
G01*
X12564110Y-11643360D02*
X17898110Y-11643360D01*
X18152110Y-11389360D02*
X18152110Y-9611360D01*
X17898110Y-9357360D02*
X12564110Y-9357360D01*
X12310110Y-9611360D02*
G75*
G02X12564110Y-9357360I254000J0D01*
G01*
X12310110Y-9611360D02*
X12310110Y-10246360D01*
X12310110Y-10754360D02*
X12310110Y-11389360D01*
X12564110Y-11643360D02*
G75*
G02X12310110Y-11389360I0J254000D01*
G01*
D11*
X12397500Y-9936500D02*
X12412500Y-9951500D01*
X12412500Y-9936500D02*
X12397500Y-9951500D01*
X12476500Y-10946500D02*
X12491500Y-10961500D01*
X12491500Y-10946500D02*
X12476500Y-10961500D01*
X12605500Y-9937500D02*
X12620500Y-9952500D01*
X12620500Y-9937500D02*
X12605500Y-9952500D01*
X12654500Y-10946500D02*
X12669500Y-10961500D01*
X12669500Y-10946500D02*
X12654500Y-10961500D01*
X12657500Y-11187500D02*
X12672500Y-11202500D01*
X12672500Y-11187500D02*
X12657500Y-11202500D01*
X12704500Y-10114500D02*
X12719500Y-10129500D01*
X12719500Y-10114500D02*
X12704500Y-10129500D01*
X12704500Y-10860500D02*
X12719500Y-10875500D01*
X12719500Y-10860500D02*
X12704500Y-10875500D01*
X12812500Y-10032500D02*
X12827500Y-10047500D01*
X12827500Y-10032500D02*
X12812500Y-10047500D01*
X12834500Y-10145500D02*
X12849500Y-10160500D01*
X12849500Y-10145500D02*
X12834500Y-10160500D01*
X12835500Y-11014500D02*
X12850500Y-11029500D01*
X12850500Y-11014500D02*
X12835500Y-11029500D01*
X12841500Y-10563500D02*
X12856500Y-10578500D01*
X12856500Y-10563500D02*
X12841500Y-10578500D01*
X12850555Y-10461437D02*
X12865555Y-10476437D01*
X12865555Y-10461437D02*
X12850555Y-10476437D01*
X12861500Y-10740500D02*
X12876500Y-10755500D01*
X12876500Y-10740500D02*
X12861500Y-10755500D01*
X12910500Y-10650500D02*
X12925500Y-10665500D01*
X12925500Y-10650500D02*
X12910500Y-10665500D01*
X12913500Y-9936500D02*
X12928500Y-9951500D01*
X12928500Y-9936500D02*
X12913500Y-9951500D01*
X13003500Y-10146500D02*
X13018500Y-10161500D01*
X13018500Y-10146500D02*
X13003500Y-10161500D01*
X13122500Y-10312500D02*
X13137500Y-10327500D01*
X13137500Y-10312500D02*
X13122500Y-10327500D01*
X13172500Y-10082500D02*
X13187500Y-10097500D01*
X13187500Y-10082500D02*
X13172500Y-10097500D01*
X13172500Y-10162500D02*
X13187500Y-10177500D01*
X13187500Y-10162500D02*
X13172500Y-10177500D01*
X13172500Y-10242500D02*
X13187500Y-10257500D01*
X13187500Y-10242500D02*
X13172500Y-10257500D01*
X13247500Y-10400000D02*
X13262500Y-10415000D01*
X13262500Y-10400000D02*
X13247500Y-10415000D01*
X13247500Y-10475000D02*
X13262500Y-10490000D01*
X13262500Y-10475000D02*
X13247500Y-10490000D01*
X13271500Y-10321500D02*
X13286500Y-10336500D01*
X13286500Y-10321500D02*
X13271500Y-10336500D01*
X13296500Y-10555500D02*
X13311500Y-10570500D01*
X13311500Y-10555500D02*
X13296500Y-10570500D01*
X13298500Y-11340000D02*
X13313500Y-11355000D01*
X13313500Y-11340000D02*
X13298500Y-11355000D01*
X13382500Y-11012500D02*
X13397500Y-11027500D01*
X13397500Y-11012500D02*
X13382500Y-11027500D01*
X13391500Y-10654500D02*
X13406500Y-10669500D01*
X13406500Y-10654500D02*
X13391500Y-10669500D01*
X13460500Y-10719500D02*
X13475500Y-10734500D01*
X13475500Y-10719500D02*
X13460500Y-10734500D01*
X13502500Y-11283500D02*
X13517500Y-11298500D01*
X13517500Y-11283500D02*
X13502500Y-11298500D01*
X13572500Y-10112500D02*
X13587500Y-10127500D01*
X13587500Y-10112500D02*
X13572500Y-10127500D01*
X13572500Y-10182500D02*
X13587500Y-10197500D01*
X13587500Y-10182500D02*
X13572500Y-10197500D01*
X13572500Y-10262500D02*
X13587500Y-10277500D01*
X13587500Y-10262500D02*
X13572500Y-10277500D01*
X13572500Y-11283500D02*
X13587500Y-11298500D01*
X13587500Y-11283500D02*
X13572500Y-11298500D01*
X13639500Y-10872500D02*
X13654500Y-10887500D01*
X13654500Y-10872500D02*
X13639500Y-10887500D01*
X13639500Y-10963500D02*
X13654500Y-10978500D01*
X13654500Y-10963500D02*
X13639500Y-10978500D01*
X13642500Y-11283500D02*
X13657500Y-11298500D01*
X13657500Y-11283500D02*
X13642500Y-11298500D01*
X13680500Y-10263500D02*
X13695500Y-10278500D01*
X13695500Y-10263500D02*
X13680500Y-10278500D01*
X13702500Y-10921500D02*
X13717500Y-10936500D01*
X13717500Y-10921500D02*
X13702500Y-10936500D01*
X13712500Y-11283500D02*
X13727500Y-11298500D01*
X13727500Y-11283500D02*
X13712500Y-11298500D01*
X13772500Y-10229500D02*
X13787500Y-10244500D01*
X13787500Y-10229500D02*
X13772500Y-10244500D01*
X13822500Y-10592500D02*
X13837500Y-10607500D01*
X13837500Y-10592500D02*
X13822500Y-10607500D01*
X13890600Y-10379800D02*
X13905600Y-10394800D01*
X13905600Y-10379800D02*
X13890600Y-10394800D01*
X13917500Y-11051500D02*
X13932500Y-11066500D01*
X13932500Y-11051500D02*
X13917500Y-11066500D01*
X13922500Y-10442500D02*
X13937500Y-10457500D01*
X13937500Y-10442500D02*
X13922500Y-10457500D01*
X13937500Y-9672500D02*
X13952500Y-9687500D01*
X13952500Y-9672500D02*
X13937500Y-9687500D01*
X13957500Y-10759500D02*
X13972500Y-10774500D01*
X13972500Y-10759500D02*
X13957500Y-10774500D01*
X13995500Y-9986500D02*
X14010500Y-10001500D01*
X14010500Y-9986500D02*
X13995500Y-10001500D01*
X14006500Y-10165500D02*
X14021500Y-10180500D01*
X14021500Y-10165500D02*
X14006500Y-10180500D01*
X14008500Y-10504500D02*
X14023500Y-10519500D01*
X14023500Y-10504500D02*
X14008500Y-10519500D01*
X14028195Y-10426901D02*
X14043195Y-10441901D01*
X14043195Y-10426901D02*
X14028195Y-10441901D01*
X14032500Y-11293500D02*
X14047500Y-11308500D01*
X14047500Y-11293500D02*
X14032500Y-11308500D01*
X14042500Y-9923500D02*
X14057500Y-9938500D01*
X14057500Y-9923500D02*
X14042500Y-9938500D01*
X14059500Y-9745500D02*
X14074500Y-9760500D01*
X14074500Y-9745500D02*
X14059500Y-9760500D01*
X14121500Y-10722500D02*
X14136500Y-10737500D01*
X14136500Y-10722500D02*
X14121500Y-10737500D01*
X14152500Y-10277500D02*
X14167500Y-10292500D01*
X14167500Y-10277500D02*
X14152500Y-10292500D01*
X14153500Y-9826999D02*
X14168500Y-9841999D01*
X14168500Y-9826999D02*
X14153500Y-9841999D01*
X14159500Y-10106500D02*
X14174500Y-10121500D01*
X14174500Y-10106500D02*
X14159500Y-10121500D01*
X14177500Y-11375500D02*
X14192500Y-11390500D01*
X14192500Y-11375500D02*
X14177500Y-11390500D01*
X14188500Y-10715500D02*
X14203500Y-10730500D01*
X14203500Y-10715500D02*
X14188500Y-10730500D01*
X14279500Y-10293500D02*
X14294500Y-10308500D01*
X14294500Y-10293500D02*
X14279500Y-10308500D01*
X14281500Y-10680052D02*
X14296500Y-10695052D01*
X14296500Y-10680052D02*
X14281500Y-10695052D01*
X14285500Y-10174000D02*
X14300500Y-10189000D01*
X14300500Y-10174000D02*
X14285500Y-10189000D01*
X14352448Y-10722552D02*
X14367448Y-10737552D01*
X14367448Y-10722552D02*
X14352448Y-10737552D01*
X14387500Y-9976500D02*
X14402500Y-9991500D01*
X14402500Y-9976500D02*
X14387500Y-9991500D01*
X14397999Y-9817500D02*
X14412999Y-9832500D01*
X14412999Y-9817500D02*
X14397999Y-9832500D01*
X14407500Y-10568000D02*
X14422500Y-10583000D01*
X14422500Y-10568000D02*
X14407500Y-10583000D01*
X14418500Y-10468500D02*
X14433500Y-10483500D01*
X14433500Y-10468500D02*
X14418500Y-10483500D01*
X14420500Y-9747500D02*
X14435500Y-9762500D01*
X14435500Y-9747500D02*
X14420500Y-9762500D01*
X14424500Y-10274500D02*
X14439500Y-10289500D01*
X14439500Y-10274500D02*
X14424500Y-10289500D01*
X14431500Y-10192500D02*
X14446500Y-10207500D01*
X14446500Y-10192500D02*
X14431500Y-10207500D01*
X14442500Y-10112500D02*
X14457500Y-10127500D01*
X14457500Y-10112500D02*
X14442500Y-10127500D01*
X14462161Y-9827904D02*
X14477161Y-9842904D01*
X14477161Y-9827904D02*
X14462161Y-9842904D01*
X14472500Y-10700000D02*
X14487500Y-10715000D01*
X14487500Y-10700000D02*
X14472500Y-10715000D01*
X14518412Y-10077588D02*
X14533412Y-10092588D01*
X14533412Y-10077588D02*
X14518412Y-10092588D01*
X14535000Y-10463924D02*
X14550000Y-10478924D01*
X14550000Y-10463924D02*
X14535000Y-10478924D01*
X14539500Y-10540500D02*
X14554500Y-10555500D01*
X14554500Y-10540500D02*
X14539500Y-10555500D01*
X14555008Y-9838126D02*
X14570008Y-9853126D01*
X14570008Y-9838126D02*
X14555008Y-9853126D01*
X14602500Y-10474500D02*
X14617500Y-10489500D01*
X14617500Y-10474500D02*
X14602500Y-10489500D01*
X14621500Y-10670000D02*
X14636500Y-10685000D01*
X14636500Y-10670000D02*
X14621500Y-10685000D01*
X14659500Y-10048500D02*
X14674500Y-10063500D01*
X14674500Y-10048500D02*
X14659500Y-10063500D01*
X14663500Y-10168500D02*
X14678500Y-10183500D01*
X14678500Y-10168500D02*
X14663500Y-10183500D01*
X14665500Y-9947500D02*
X14680500Y-9962500D01*
X14680500Y-9947500D02*
X14665500Y-9962500D01*
X14669500Y-10618500D02*
X14684500Y-10633500D01*
X14684500Y-10618500D02*
X14669500Y-10633500D01*
X14679500Y-10367500D02*
X14694500Y-10382500D01*
X14694500Y-10367500D02*
X14679500Y-10382500D01*
X14683500Y-9681500D02*
X14698500Y-9696500D01*
X14698500Y-9681500D02*
X14683500Y-9696500D01*
X14702500Y-10265000D02*
X14717500Y-10280000D01*
X14717500Y-10265000D02*
X14702500Y-10280000D01*
X14750500Y-11061500D02*
X14765500Y-11076500D01*
X14765500Y-11061500D02*
X14750500Y-11076500D01*
X14759500Y-10801500D02*
X14774500Y-10816500D01*
X14774500Y-10801500D02*
X14759500Y-10816500D01*
X14760500Y-11251500D02*
X14775500Y-11266500D01*
X14775500Y-11251500D02*
X14760500Y-11266500D01*
X14764500Y-10732500D02*
X14779500Y-10747500D01*
X14779500Y-10732500D02*
X14764500Y-10747500D01*
X14798500Y-10482500D02*
X14813500Y-10497500D01*
X14813500Y-10482500D02*
X14798500Y-10497500D01*
X14848500Y-10423500D02*
X14863500Y-10438500D01*
X14863500Y-10423500D02*
X14848500Y-10438500D01*
X14852500Y-11257500D02*
X14867500Y-11272500D01*
X14867500Y-11257500D02*
X14852500Y-11272500D01*
X14876500Y-10834500D02*
X14891500Y-10849500D01*
X14891500Y-10834500D02*
X14876500Y-10849500D01*
X14877500Y-9852500D02*
X14892500Y-9867500D01*
X14892500Y-9852500D02*
X14877500Y-9867500D01*
X14886913Y-10628087D02*
X14901913Y-10643087D01*
X14901913Y-10628087D02*
X14886913Y-10643087D01*
X14900500Y-10367500D02*
X14915500Y-10382500D01*
X14915500Y-10367500D02*
X14900500Y-10382500D01*
X14909719Y-10034957D02*
X14924719Y-10049957D01*
X14924719Y-10034957D02*
X14909719Y-10049957D01*
X14923500Y-10113500D02*
X14938500Y-10128500D01*
X14938500Y-10113500D02*
X14923500Y-10128500D01*
X14927500Y-9594500D02*
X14942500Y-9609500D01*
X14942500Y-9594500D02*
X14927500Y-9609500D01*
X14935000Y-10987500D02*
X14950000Y-11002500D01*
X14950000Y-10987500D02*
X14935000Y-11002500D01*
X14939500Y-10916500D02*
X14954500Y-10931500D01*
X14954500Y-10916500D02*
X14939500Y-10931500D01*
X14940500Y-10307500D02*
X14955500Y-10322500D01*
X14955500Y-10307500D02*
X14940500Y-10322500D01*
X14948500Y-11254500D02*
X14963500Y-11269500D01*
X14963500Y-11254500D02*
X14948500Y-11269500D01*
X14949156Y-9970142D02*
X14964156Y-9985142D01*
X14964156Y-9970142D02*
X14949156Y-9985142D01*
X14974500Y-10054500D02*
X14989500Y-10069500D01*
X14989500Y-10054500D02*
X14974500Y-10069500D01*
X15012500Y-10982500D02*
X15027500Y-10997500D01*
X15027500Y-10982500D02*
X15012500Y-10997500D01*
X15020500Y-9994500D02*
X15035500Y-10009500D01*
X15035500Y-9994500D02*
X15020500Y-10009500D01*
X15022500Y-9600500D02*
X15037500Y-9615500D01*
X15037500Y-9600500D02*
X15022500Y-9615500D01*
X15044500Y-11255500D02*
X15059500Y-11270500D01*
X15059500Y-11255500D02*
X15044500Y-11270500D01*
X15084500Y-9924500D02*
X15099500Y-9939500D01*
X15099500Y-9924500D02*
X15084500Y-9939500D01*
X15095500Y-9532500D02*
X15110500Y-9547500D01*
X15110500Y-9532500D02*
X15095500Y-9547500D01*
X15127500Y-11142500D02*
X15142500Y-11157500D01*
X15142500Y-11142500D02*
X15127500Y-11157500D01*
X15168500Y-9873500D02*
X15183500Y-9888500D01*
X15183500Y-9873500D02*
X15168500Y-9888500D01*
X15169500Y-11261500D02*
X15184500Y-11276500D01*
X15184500Y-11261500D02*
X15169500Y-11276500D01*
X15176500Y-9681500D02*
X15191500Y-9696500D01*
X15191500Y-9681500D02*
X15176500Y-9696500D01*
X15198500Y-10931500D02*
X15213500Y-10946500D01*
X15213500Y-10931500D02*
X15198500Y-10946500D01*
X15223600Y-10101800D02*
X15238600Y-10116800D01*
X15238600Y-10101800D02*
X15223600Y-10116800D01*
X15268822Y-10925001D02*
X15283822Y-10940001D01*
X15283822Y-10925001D02*
X15268822Y-10940001D01*
X15292500Y-11157500D02*
X15307500Y-11172500D01*
X15307500Y-11157500D02*
X15292500Y-11172500D01*
X15306500Y-10110500D02*
X15321500Y-10125500D01*
X15321500Y-10110500D02*
X15306500Y-10125500D01*
X15348500Y-9910500D02*
X15363500Y-9925500D01*
X15363500Y-9910500D02*
X15348500Y-9925500D01*
X15349500Y-11064500D02*
X15364500Y-11079500D01*
X15364500Y-11064500D02*
X15349500Y-11079500D01*
X15401199Y-10648906D02*
X15416199Y-10663906D01*
X15416199Y-10648906D02*
X15401199Y-10663906D01*
X15407500Y-9957500D02*
X15422500Y-9972500D01*
X15422500Y-9957500D02*
X15407500Y-9972500D01*
X15407500Y-11107500D02*
X15422500Y-11122500D01*
X15422500Y-11107500D02*
X15407500Y-11122500D01*
X15412500Y-9875500D02*
X15427500Y-9890500D01*
X15427500Y-9875500D02*
X15412500Y-9890500D01*
X15413962Y-11032771D02*
X15428962Y-11047771D01*
X15428962Y-11032771D02*
X15413962Y-11047771D01*
X15459500Y-10595500D02*
X15474500Y-10610500D01*
X15474500Y-10595500D02*
X15459500Y-10610500D01*
X15460500Y-11246500D02*
X15475500Y-11261500D01*
X15475500Y-11246500D02*
X15460500Y-11261500D01*
X15492500Y-10942500D02*
X15507500Y-10957500D01*
X15507500Y-10942500D02*
X15492500Y-10957500D01*
X15502500Y-10077500D02*
X15517500Y-10092500D01*
X15517500Y-10077500D02*
X15502500Y-10092500D01*
X15513500Y-10540500D02*
X15528500Y-10555500D01*
X15528500Y-10540500D02*
X15513500Y-10555500D01*
X15519500Y-10662000D02*
X15534500Y-10677000D01*
X15534500Y-10662000D02*
X15519500Y-10677000D01*
X15528500Y-9849500D02*
X15543500Y-9864500D01*
X15543500Y-9849500D02*
X15528500Y-9864500D01*
X15548001Y-10603347D02*
X15563001Y-10618347D01*
X15563001Y-10603347D02*
X15548001Y-10618347D01*
X15557500Y-10447500D02*
X15572500Y-10462500D01*
X15572500Y-10447500D02*
X15557500Y-10462500D01*
X15566500Y-10933500D02*
X15581500Y-10948500D01*
X15581500Y-10933500D02*
X15566500Y-10948500D01*
X15567500Y-10361000D02*
X15582500Y-10376000D01*
X15582500Y-10361000D02*
X15567500Y-10376000D01*
X15572500Y-10147500D02*
X15587500Y-10162500D01*
X15587500Y-10147500D02*
X15572500Y-10162500D01*
X15584500Y-10521500D02*
X15599500Y-10536500D01*
X15599500Y-10521500D02*
X15584500Y-10536500D01*
X15604948Y-10785052D02*
X15619948Y-10800052D01*
X15619948Y-10785052D02*
X15604948Y-10800052D01*
X15627500Y-10422500D02*
X15642500Y-10437500D01*
X15642500Y-10422500D02*
X15627500Y-10437500D01*
X15631947Y-10929947D02*
X15646947Y-10944947D01*
X15646947Y-10929947D02*
X15631947Y-10944947D01*
X15667500Y-10520001D02*
X15682500Y-10535001D01*
X15682500Y-10520001D02*
X15667500Y-10535001D01*
X15728978Y-10756999D02*
X15743978Y-10771999D01*
X15743978Y-10756999D02*
X15728978Y-10771999D01*
X15732203Y-9832618D02*
X15747203Y-9847618D01*
X15747203Y-9832618D02*
X15732203Y-9847618D01*
X15749500Y-9665500D02*
X15764500Y-9680500D01*
X15764500Y-9665500D02*
X15749500Y-9680500D01*
X15752500Y-10028999D02*
X15767500Y-10043999D01*
X15767500Y-10028999D02*
X15752500Y-10043999D01*
X15770500Y-10952500D02*
X15785500Y-10967500D01*
X15785500Y-10952500D02*
X15770500Y-10967500D01*
X15778973Y-10283973D02*
X15793973Y-10298973D01*
X15793973Y-10283973D02*
X15778973Y-10298973D01*
X15802500Y-10197500D02*
X15817500Y-10212500D01*
X15817500Y-10197500D02*
X15802500Y-10212500D01*
X15814500Y-10607496D02*
X15829500Y-10622496D01*
X15829500Y-10607496D02*
X15814500Y-10622496D01*
X15828698Y-10028999D02*
X15843698Y-10043999D01*
X15843698Y-10028999D02*
X15828698Y-10043999D01*
X15844500Y-10952500D02*
X15859500Y-10967500D01*
X15859500Y-10952500D02*
X15844500Y-10967500D01*
X15884331Y-10560308D02*
X15899331Y-10575308D01*
X15899331Y-10560308D02*
X15884331Y-10575308D01*
X15927500Y-11017500D02*
X15942500Y-11032500D01*
X15942500Y-11017500D02*
X15927500Y-11032500D01*
X15942500Y-10448001D02*
X15957500Y-10463001D01*
X15957500Y-10448001D02*
X15942500Y-10463001D01*
X15947000Y-10048500D02*
X15962000Y-10063500D01*
X15962000Y-10048500D02*
X15947000Y-10063500D01*
X15957177Y-10926204D02*
X15972177Y-10941204D01*
X15972177Y-10926204D02*
X15957177Y-10941204D01*
X16004500Y-11003500D02*
X16019500Y-11018500D01*
X16019500Y-11003500D02*
X16004500Y-11018500D01*
X16014504Y-10756999D02*
X16029504Y-10771999D01*
X16029504Y-10756999D02*
X16014504Y-10771999D01*
X16016500Y-10290500D02*
X16031500Y-10305500D01*
X16031500Y-10290500D02*
X16016500Y-10305500D01*
X16021207Y-10596051D02*
X16036207Y-10611051D01*
X16036207Y-10596051D02*
X16021207Y-10611051D01*
X16027500Y-10027500D02*
X16042500Y-10042500D01*
X16042500Y-10027500D02*
X16027500Y-10042500D01*
X16027500Y-10452500D02*
X16042500Y-10467500D01*
X16042500Y-10452500D02*
X16027500Y-10467500D01*
X16037998Y-10359500D02*
X16052998Y-10374500D01*
X16052998Y-10359500D02*
X16037998Y-10374500D01*
X16077500Y-10082500D02*
X16092500Y-10097500D01*
X16092500Y-10082500D02*
X16077500Y-10097500D01*
X16088500Y-10263500D02*
X16103500Y-10278500D01*
X16103500Y-10263500D02*
X16088500Y-10278500D01*
X16103600Y-11126800D02*
X16118600Y-11141800D01*
X16118600Y-11126800D02*
X16103600Y-11141800D01*
X16112500Y-10845500D02*
X16127500Y-10860500D01*
X16127500Y-10845500D02*
X16112500Y-10860500D01*
X16127500Y-10027500D02*
X16142500Y-10042500D01*
X16142500Y-10027500D02*
X16127500Y-10042500D01*
X16193500Y-9731500D02*
X16208500Y-9746500D01*
X16208500Y-9731500D02*
X16193500Y-9746500D01*
X16282500Y-10802500D02*
X16297500Y-10817500D01*
X16297500Y-10802500D02*
X16282500Y-10817500D01*
X16287000Y-10568500D02*
X16302000Y-10583500D01*
X16302000Y-10568500D02*
X16287000Y-10583500D01*
X16291500Y-10490500D02*
X16306500Y-10505500D01*
X16306500Y-10490500D02*
X16291500Y-10505500D01*
X16317500Y-10142500D02*
X16332500Y-10157500D01*
X16332500Y-10142500D02*
X16317500Y-10157500D01*
X16318500Y-11204500D02*
X16333500Y-11219500D01*
X16333500Y-11204500D02*
X16318500Y-11219500D01*
X16326772Y-9663064D02*
X16341772Y-9678064D01*
X16341772Y-9663064D02*
X16326772Y-9678064D01*
X16351767Y-10333233D02*
X16366767Y-10348233D01*
X16366767Y-10333233D02*
X16351767Y-10348233D01*
X16357501Y-9773500D02*
X16372501Y-9788500D01*
X16372501Y-9773500D02*
X16357501Y-9788500D01*
X16398500Y-9837500D02*
X16413500Y-9852500D01*
X16413500Y-9837500D02*
X16398500Y-9852500D01*
X16463500Y-9859500D02*
X16478500Y-9874500D01*
X16478500Y-9859500D02*
X16463500Y-9874500D01*
X16504500Y-10128500D02*
X16519500Y-10143500D01*
X16519500Y-10128500D02*
X16504500Y-10143500D01*
X16536500Y-11319500D02*
X16551500Y-11334500D01*
X16551500Y-11319500D02*
X16536500Y-11334500D01*
X16694500Y-11106500D02*
X16709500Y-11121500D01*
X16709500Y-11106500D02*
X16694500Y-11121500D01*
X16697500Y-10433000D02*
X16712500Y-10448000D01*
X16712500Y-10433000D02*
X16697500Y-10448000D01*
X16727500Y-10267500D02*
X16742500Y-10282500D01*
X16742500Y-10267500D02*
X16727500Y-10282500D01*
X16789500Y-10390500D02*
X16804500Y-10405500D01*
X16804500Y-10390500D02*
X16789500Y-10405500D01*
X16813600Y-10321800D02*
X16828600Y-10336800D01*
X16828600Y-10321800D02*
X16813600Y-10336800D01*
X16832500Y-11322500D02*
X16847500Y-11337500D01*
X16847500Y-11322500D02*
X16832500Y-11337500D01*
X16873600Y-10241800D02*
X16888600Y-10256800D01*
X16888600Y-10241800D02*
X16873600Y-10256800D01*
X16913502Y-10139328D02*
X16928502Y-10154328D01*
X16928502Y-10139328D02*
X16913502Y-10154328D01*
X16913600Y-10411800D02*
X16928600Y-10426800D01*
X16928600Y-10411800D02*
X16913600Y-10426800D01*
X16981100Y-9996800D02*
X16996100Y-10011800D01*
X16996100Y-9996800D02*
X16981100Y-10011800D01*
X16993632Y-10217000D02*
X17008632Y-10232000D01*
X17008632Y-10217000D02*
X16993632Y-10232000D01*
X17008548Y-10341748D02*
X17023548Y-10356748D01*
X17023548Y-10341748D02*
X17008548Y-10356748D01*
X17013600Y-9851800D02*
X17028600Y-9866800D01*
X17028600Y-9851800D02*
X17013600Y-9866800D01*
X17033600Y-9946800D02*
X17048600Y-9961800D01*
X17048600Y-9946800D02*
X17033600Y-9961800D01*
X17053600Y-10051800D02*
X17068600Y-10066800D01*
X17068600Y-10051800D02*
X17053600Y-10066800D01*
X17117500Y-11042500D02*
X17132500Y-11057500D01*
X17132500Y-11042500D02*
X17117500Y-11057500D01*
X17204122Y-10957999D02*
X17219122Y-10972999D01*
X17219122Y-10957999D02*
X17204122Y-10972999D01*
X17218600Y-10581800D02*
X17233600Y-10596800D01*
X17233600Y-10581800D02*
X17218600Y-10596800D01*
X17233600Y-10516800D02*
X17248600Y-10531800D01*
X17248600Y-10516800D02*
X17233600Y-10531800D01*
X17238600Y-10261800D02*
X17253600Y-10276800D01*
X17253600Y-10261800D02*
X17238600Y-10276800D01*
X17238600Y-10416800D02*
X17253600Y-10431800D01*
X17253600Y-10416800D02*
X17238600Y-10431800D01*
X17253600Y-10331800D02*
X17268600Y-10346800D01*
X17268600Y-10331800D02*
X17253600Y-10346800D01*
X17263600Y-9776800D02*
X17278600Y-9791800D01*
X17278600Y-9776800D02*
X17263600Y-9791800D01*
X17323653Y-10266747D02*
X17338653Y-10281747D01*
X17338653Y-10266747D02*
X17323653Y-10281747D01*
X17378600Y-10311800D02*
X17393600Y-10326800D01*
X17393600Y-10311800D02*
X17378600Y-10326800D01*
X17388600Y-10236800D02*
X17403600Y-10251800D01*
X17403600Y-10236800D02*
X17388600Y-10251800D01*
X17633600Y-10546800D02*
X17648600Y-10561800D01*
X17648600Y-10546800D02*
X17633600Y-10561800D01*
X15094186Y-10499000D02*
G75*
G03X15094186Y-10499000I-13750J0D01*
G01*
X15171968Y-10421218D02*
G75*
G03X15171968Y-10421218I-13750J0D01*
G01*
X15171968Y-10576782D02*
G75*
G03X15171968Y-10576782I-13750J0D01*
G01*
X15249750Y-10343437D02*
G75*
G03X15249750Y-10343437I-13750J0D01*
G01*
X15249750Y-10499000D02*
G75*
G03X15249750Y-10499000I-13750J0D01*
G01*
X15249750Y-10654564D02*
G75*
G03X15249750Y-10654564I-13750J0D01*
G01*
X15327532Y-10421218D02*
G75*
G03X15327532Y-10421218I-13750J0D01*
G01*
X15327532Y-10576782D02*
G75*
G03X15327532Y-10576782I-13750J0D01*
G01*
X15405313Y-10499000D02*
G75*
G03X15405313Y-10499000I-13750J0D01*
G01*
X16119600Y-11217400D02*
X16119600Y-11307400D01*
X16074600Y-11262400D02*
X16164600Y-11262400D01*
X16755100Y-9947300D02*
X16755100Y-10037300D01*
X16710100Y-9992300D02*
X16800100Y-9992300D01*
X14555000Y-10162000D02*
X14555000Y-10252000D01*
X14510000Y-10207000D02*
X14600000Y-10207000D01*
X16501100Y-9693300D02*
X16501100Y-9783300D01*
X16456100Y-9738300D02*
X16546100Y-9738300D01*
X16501100Y-9947300D02*
X16501100Y-10037300D01*
X16456100Y-9992300D02*
X16546100Y-9992300D01*
X16755100Y-9693300D02*
X16755100Y-9783300D01*
X16710100Y-9738300D02*
X16800100Y-9738300D01*
X12979456Y-11551656D02*
X12979456Y-11480944D01*
X12908744Y-11480944D01*
X12908744Y-11551656D01*
X12979456Y-11551656D01*
X13233456Y-11551656D02*
X13233456Y-11480944D01*
X13162744Y-11480944D01*
X13162744Y-11551656D01*
X13233456Y-11551656D01*
X13487456Y-11551656D02*
X13487456Y-11480944D01*
X13416744Y-11480944D01*
X13416744Y-11551656D01*
X13487456Y-11551656D01*
X13741456Y-11551656D02*
X13741456Y-11480944D01*
X13670744Y-11480944D01*
X13670744Y-11551656D01*
X13741456Y-11551656D01*
X13996456Y-11551656D02*
X13996456Y-11480944D01*
X13925744Y-11480944D01*
X13925744Y-11551656D01*
X13996456Y-11551656D01*
X14250456Y-11551656D02*
X14250456Y-11480944D01*
X14179744Y-11480944D01*
X14179744Y-11551656D01*
X14250456Y-11551656D01*
X14504456Y-11551656D02*
X14504456Y-11480944D01*
X14433744Y-11480944D01*
X14433744Y-11551656D01*
X14504456Y-11551656D01*
X14758456Y-11551656D02*
X14758456Y-11480944D01*
X14687744Y-11480944D01*
X14687744Y-11551656D01*
X14758456Y-11551656D01*
X15012456Y-11551656D02*
X15012456Y-11480944D01*
X14941744Y-11480944D01*
X14941744Y-11551656D01*
X15012456Y-11551656D01*
X15266456Y-11551656D02*
X15266456Y-11480944D01*
X15195744Y-11480944D01*
X15195744Y-11551656D01*
X15266456Y-11551656D01*
X15520456Y-11551656D02*
X15520456Y-11480944D01*
X15449744Y-11480944D01*
X15449744Y-11551656D01*
X15520456Y-11551656D01*
X15774456Y-11551656D02*
X15774456Y-11480944D01*
X15703744Y-11480944D01*
X15703744Y-11551656D01*
X15774456Y-11551656D01*
X16028456Y-11551656D02*
X16028456Y-11480944D01*
X15957744Y-11480944D01*
X15957744Y-11551656D01*
X16028456Y-11551656D01*
X16282456Y-11551656D02*
X16282456Y-11480944D01*
X16211744Y-11480944D01*
X16211744Y-11551656D01*
X16282456Y-11551656D01*
X16536456Y-11551656D02*
X16536456Y-11480944D01*
X16465744Y-11480944D01*
X16465744Y-11551656D01*
X16536456Y-11551656D01*
X16790456Y-11551656D02*
X16790456Y-11480944D01*
X16719744Y-11480944D01*
X16719744Y-11551656D01*
X16790456Y-11551656D01*
X17552456Y-10027656D02*
X17552456Y-9956944D01*
X17481744Y-9956944D01*
X17481744Y-10027656D01*
X17552456Y-10027656D01*
X17552456Y-10535656D02*
X17552456Y-10464944D01*
X17481744Y-10464944D01*
X17481744Y-10535656D01*
X17552456Y-10535656D01*
X17552456Y-11043656D02*
X17552456Y-10972944D01*
X17481744Y-10972944D01*
X17481744Y-11043656D01*
X17552456Y-11043656D01*
X17552456Y-11297656D02*
X17552456Y-11226944D01*
X17481744Y-11226944D01*
X17481744Y-11297656D01*
X17552456Y-11297656D01*
X17554856Y-9521056D02*
X17554856Y-9450344D01*
X17484144Y-9450344D01*
X17484144Y-9521056D01*
X17554856Y-9521056D01*
X17554856Y-9773656D02*
X17554856Y-9702944D01*
X17484144Y-9702944D01*
X17484144Y-9773656D01*
X17554856Y-9773656D01*
X17554856Y-10281656D02*
X17554856Y-10210944D01*
X17484144Y-10210944D01*
X17484144Y-10281656D01*
X17554856Y-10281656D01*
X17554856Y-10789656D02*
X17554856Y-10718944D01*
X17484144Y-10718944D01*
X17484144Y-10789656D01*
X17554856Y-10789656D01*
X17806456Y-9519656D02*
X17806456Y-9448944D01*
X17735744Y-9448944D01*
X17735744Y-9519656D01*
X17806456Y-9519656D01*
X17806456Y-9773656D02*
X17806456Y-9702944D01*
X17735744Y-9702944D01*
X17735744Y-9773656D01*
X17806456Y-9773656D01*
X17806456Y-10027656D02*
X17806456Y-9956944D01*
X17735744Y-9956944D01*
X17735744Y-10027656D01*
X17806456Y-10027656D01*
X17806456Y-10281656D02*
X17806456Y-10210944D01*
X17735744Y-10210944D01*
X17735744Y-10281656D01*
X17806456Y-10281656D01*
X17806456Y-10535656D02*
X17806456Y-10464944D01*
X17735744Y-10464944D01*
X17735744Y-10535656D01*
X17806456Y-10535656D01*
X17806456Y-10789656D02*
X17806456Y-10718944D01*
X17735744Y-10718944D01*
X17735744Y-10789656D01*
X17806456Y-10789656D01*
X17806456Y-11043656D02*
X17806456Y-10972944D01*
X17735744Y-10972944D01*
X17735744Y-11043656D01*
X17806456Y-11043656D01*
X17806456Y-11297656D02*
X17806456Y-11226944D01*
X17735744Y-11226944D01*
X17735744Y-11297656D01*
X17806456Y-11297656D01*
X13996456Y-9519656D02*
X13996456Y-9448944D01*
X13925744Y-9448944D01*
X13925744Y-9519656D01*
X13996456Y-9519656D01*
X14250456Y-9519656D02*
X14250456Y-9448944D01*
X14179744Y-9448944D01*
X14179744Y-9519656D01*
X14250456Y-9519656D01*
X14504456Y-9519656D02*
X14504456Y-9448944D01*
X14433744Y-9448944D01*
X14433744Y-9519656D01*
X14504456Y-9519656D01*
X14758456Y-9519656D02*
X14758456Y-9448944D01*
X14687744Y-9448944D01*
X14687744Y-9519656D01*
X14758456Y-9519656D01*
X15012456Y-9519656D02*
X15012456Y-9448944D01*
X14941744Y-9448944D01*
X14941744Y-9519656D01*
X15012456Y-9519656D01*
X15266456Y-9519656D02*
X15266456Y-9448944D01*
X15195744Y-9448944D01*
X15195744Y-9519656D01*
X15266456Y-9519656D01*
X15520456Y-9519656D02*
X15520456Y-9448944D01*
X15449744Y-9448944D01*
X15449744Y-9519656D01*
X15520456Y-9519656D01*
X15774456Y-9519656D02*
X15774456Y-9448944D01*
X15703744Y-9448944D01*
X15703744Y-9519656D01*
X15774456Y-9519656D01*
X16028456Y-9519656D02*
X16028456Y-9448944D01*
X15957744Y-9448944D01*
X15957744Y-9519656D01*
X16028456Y-9519656D01*
X16282456Y-9519656D02*
X16282456Y-9448944D01*
X16211744Y-9448944D01*
X16211744Y-9519656D01*
X16282456Y-9519656D01*
X16536456Y-9519656D02*
X16536456Y-9448944D01*
X16465744Y-9448944D01*
X16465744Y-9519656D01*
X16536456Y-9519656D01*
X16790456Y-9519656D02*
X16790456Y-9448944D01*
X16719744Y-9448944D01*
X16719744Y-9519656D01*
X16790456Y-9519656D01*
X16169000Y-10556000D02*
X16227000Y-10498000D01*
X16169000Y-10440000D01*
X16111000Y-10498000D01*
X16169000Y-10556000D01*
X12438510Y-9481960D02*
X12692510Y-9735960D01*
X12692510Y-9481960D02*
X12438510Y-9735960D01*
X12692510Y-9608960D02*
G75*
G03X12692510Y-9608960I-127000J0D01*
G01*
X12438510Y-11259960D02*
X12692510Y-11513960D01*
X12692510Y-11259960D02*
X12438510Y-11513960D01*
X12692510Y-11386960D02*
G75*
G03X12692510Y-11386960I-127000J0D01*
G01*
X17010510Y-9481960D02*
X17264510Y-9735960D01*
X17264510Y-9481960D02*
X17010510Y-9735960D01*
X17264510Y-9608960D02*
G75*
G03X17264510Y-9608960I-127000J0D01*
G01*
X17010510Y-11259960D02*
X17264510Y-11513960D01*
X17264510Y-11259960D02*
X17010510Y-11513960D01*
X17264510Y-11386960D02*
G75*
G03X17264510Y-11386960I-127000J0D01*
G01*
D12*
X12589038Y-12116574D02*
X12589038Y-11816574D01*
X12660467Y-11816574D01*
X12703324Y-11830860D01*
X12731896Y-11859431D01*
X12746181Y-11888003D01*
X12760467Y-11945146D01*
X12760467Y-11988003D01*
X12746181Y-12045146D01*
X12731896Y-12073717D01*
X12703324Y-12102289D01*
X12660467Y-12116574D01*
X12589038Y-12116574D01*
X12889038Y-12116574D02*
X12889038Y-11916574D01*
X12889038Y-11973717D02*
X12903324Y-11945146D01*
X12917610Y-11930860D01*
X12946181Y-11916574D01*
X12974753Y-11916574D01*
X13074753Y-12116574D02*
X13074753Y-11916574D01*
X13074753Y-11816574D02*
X13060467Y-11830860D01*
X13074753Y-11845146D01*
X13089038Y-11830860D01*
X13074753Y-11816574D01*
X13074753Y-11845146D01*
X13260467Y-12116574D02*
X13231896Y-12102289D01*
X13217610Y-12073717D01*
X13217610Y-11816574D01*
X13417610Y-12116574D02*
X13389038Y-12102289D01*
X13374753Y-12073717D01*
X13374753Y-11816574D01*
X13760467Y-12116574D02*
X13760467Y-11816574D01*
X13860467Y-12030860D01*
X13960467Y-11816574D01*
X13960467Y-12116574D01*
X14231896Y-12116574D02*
X14231896Y-11959431D01*
X14217610Y-11930860D01*
X14189038Y-11916574D01*
X14131896Y-11916574D01*
X14103324Y-11930860D01*
X14231896Y-12102289D02*
X14203324Y-12116574D01*
X14131896Y-12116574D01*
X14103324Y-12102289D01*
X14089038Y-12073717D01*
X14089038Y-12045146D01*
X14103324Y-12016574D01*
X14131896Y-12002289D01*
X14203324Y-12002289D01*
X14231896Y-11988003D01*
X14374753Y-11916574D02*
X14374753Y-12216574D01*
X14374753Y-11930860D02*
X14403324Y-11916574D01*
X14460467Y-11916574D01*
X14489038Y-11930860D01*
X14503324Y-11945146D01*
X14517610Y-11973717D01*
X14517610Y-12059431D01*
X14503324Y-12088003D01*
X14489038Y-12102289D01*
X14460467Y-12116574D01*
X14403324Y-12116574D01*
X14374753Y-12102289D01*
X14646181Y-12088003D02*
X14660467Y-12102289D01*
X14646181Y-12116574D01*
X14631896Y-12102289D01*
X14646181Y-12088003D01*
X14646181Y-12116574D01*
X14646181Y-11930860D02*
X14660467Y-11945146D01*
X14646181Y-11959431D01*
X14631896Y-11945146D01*
X14646181Y-11930860D01*
X14646181Y-11959431D01*
X12287610Y-12603360D02*
X12302610Y-12618360D01*
X12302610Y-12603360D02*
X12287610Y-12618360D01*
X12646181Y-12446574D02*
X12674753Y-12446574D01*
X12703324Y-12460860D01*
X12717610Y-12475146D01*
X12731896Y-12503717D01*
X12746181Y-12560860D01*
X12746181Y-12632289D01*
X12731896Y-12689431D01*
X12717610Y-12718003D01*
X12703324Y-12732289D01*
X12674753Y-12746574D01*
X12646181Y-12746574D01*
X12617610Y-12732289D01*
X12603324Y-12718003D01*
X12589038Y-12689431D01*
X12574753Y-12632289D01*
X12574753Y-12560860D01*
X12589038Y-12503717D01*
X12603324Y-12475146D01*
X12617610Y-12460860D01*
X12646181Y-12446574D01*
X12874753Y-12718003D02*
X12889038Y-12732289D01*
X12874753Y-12746574D01*
X12860467Y-12732289D01*
X12874753Y-12718003D01*
X12874753Y-12746574D01*
X13174753Y-12746574D02*
X13003324Y-12746574D01*
X13089038Y-12746574D02*
X13089038Y-12446574D01*
X13060467Y-12489431D01*
X13031896Y-12518003D01*
X13003324Y-12532289D01*
X13446181Y-12446574D02*
X13303324Y-12446574D01*
X13289038Y-12589431D01*
X13303324Y-12575146D01*
X13331896Y-12560860D01*
X13403324Y-12560860D01*
X13431896Y-12575146D01*
X13446181Y-12589431D01*
X13460467Y-12618003D01*
X13460467Y-12689431D01*
X13446181Y-12718003D01*
X13431896Y-12732289D01*
X13403324Y-12746574D01*
X13331896Y-12746574D01*
X13303324Y-12732289D01*
X13289038Y-12718003D01*
X13589038Y-12746574D02*
X13589038Y-12546574D01*
X13589038Y-12575146D02*
X13603324Y-12560860D01*
X13631896Y-12546574D01*
X13674753Y-12546574D01*
X13703324Y-12560860D01*
X13717610Y-12589431D01*
X13717610Y-12746574D01*
X13717610Y-12589431D02*
X13731896Y-12560860D01*
X13760467Y-12546574D01*
X13803324Y-12546574D01*
X13831896Y-12560860D01*
X13846181Y-12589431D01*
X13846181Y-12746574D01*
X13989038Y-12746574D02*
X13989038Y-12546574D01*
X13989038Y-12575146D02*
X14003324Y-12560860D01*
X14031896Y-12546574D01*
X14074753Y-12546574D01*
X14103324Y-12560860D01*
X14117610Y-12589431D01*
X14117610Y-12746574D01*
X14117610Y-12589431D02*
X14131896Y-12560860D01*
X14160467Y-12546574D01*
X14203324Y-12546574D01*
X14231896Y-12560860D01*
X14246181Y-12589431D01*
X14246181Y-12746574D01*
X14831896Y-12432289D02*
X14574753Y-12818003D01*
X15217610Y-12446574D02*
X15246181Y-12446574D01*
X15274753Y-12460860D01*
X15289038Y-12475146D01*
X15303324Y-12503717D01*
X15317610Y-12560860D01*
X15317610Y-12632289D01*
X15303324Y-12689431D01*
X15289038Y-12718003D01*
X15274753Y-12732289D01*
X15246181Y-12746574D01*
X15217610Y-12746574D01*
X15189038Y-12732289D01*
X15174753Y-12718003D01*
X15160467Y-12689431D01*
X15146181Y-12632289D01*
X15146181Y-12560860D01*
X15160467Y-12503717D01*
X15174753Y-12475146D01*
X15189038Y-12460860D01*
X15217610Y-12446574D01*
X15446181Y-12718003D02*
X15460467Y-12732289D01*
X15446181Y-12746574D01*
X15431896Y-12732289D01*
X15446181Y-12718003D01*
X15446181Y-12746574D01*
X15646181Y-12446574D02*
X15674753Y-12446574D01*
X15703324Y-12460860D01*
X15717610Y-12475146D01*
X15731896Y-12503717D01*
X15746181Y-12560860D01*
X15746181Y-12632289D01*
X15731896Y-12689431D01*
X15717610Y-12718003D01*
X15703324Y-12732289D01*
X15674753Y-12746574D01*
X15646181Y-12746574D01*
X15617610Y-12732289D01*
X15603324Y-12718003D01*
X15589038Y-12689431D01*
X15574753Y-12632289D01*
X15574753Y-12560860D01*
X15589038Y-12503717D01*
X15603324Y-12475146D01*
X15617610Y-12460860D01*
X15646181Y-12446574D01*
X15931896Y-12446574D02*
X15960467Y-12446574D01*
X15989038Y-12460860D01*
X16003324Y-12475146D01*
X16017610Y-12503717D01*
X16031896Y-12560860D01*
X16031896Y-12632289D01*
X16017610Y-12689431D01*
X16003324Y-12718003D01*
X15989038Y-12732289D01*
X15960467Y-12746574D01*
X15931896Y-12746574D01*
X15903324Y-12732289D01*
X15889038Y-12718003D01*
X15874753Y-12689431D01*
X15860467Y-12632289D01*
X15860467Y-12560860D01*
X15874753Y-12503717D01*
X15889038Y-12475146D01*
X15903324Y-12460860D01*
X15931896Y-12446574D01*
X16289038Y-12446574D02*
X16231896Y-12446574D01*
X16203324Y-12460860D01*
X16189038Y-12475146D01*
X16160467Y-12518003D01*
X16146181Y-12575146D01*
X16146181Y-12689431D01*
X16160467Y-12718003D01*
X16174753Y-12732289D01*
X16203324Y-12746574D01*
X16260467Y-12746574D01*
X16289038Y-12732289D01*
X16303324Y-12718003D01*
X16317610Y-12689431D01*
X16317610Y-12618003D01*
X16303324Y-12589431D01*
X16289038Y-12575146D01*
X16260467Y-12560860D01*
X16203324Y-12560860D01*
X16174753Y-12575146D01*
X16160467Y-12589431D01*
X16146181Y-12618003D01*
X16431896Y-12446574D02*
X16431896Y-12503717D01*
X16546181Y-12446574D02*
X16546181Y-12503717D01*
X16989038Y-12860860D02*
X16974753Y-12846574D01*
X16946181Y-12803717D01*
X16931896Y-12775146D01*
X16917610Y-12732289D01*
X16903324Y-12660860D01*
X16903324Y-12603717D01*
X16917610Y-12532289D01*
X16931896Y-12489431D01*
X16946181Y-12460860D01*
X16974753Y-12418003D01*
X16989038Y-12403717D01*
X17089038Y-12475146D02*
X17103324Y-12460860D01*
X17131896Y-12446574D01*
X17203324Y-12446574D01*
X17231896Y-12460860D01*
X17246181Y-12475146D01*
X17260467Y-12503717D01*
X17260467Y-12532289D01*
X17246181Y-12575146D01*
X17074753Y-12746574D01*
X17260467Y-12746574D01*
X17546181Y-12746574D02*
X17374753Y-12746574D01*
X17460467Y-12746574D02*
X17460467Y-12446574D01*
X17431896Y-12489431D01*
X17403324Y-12518003D01*
X17374753Y-12532289D01*
X17660467Y-12475146D02*
X17674753Y-12460860D01*
X17703324Y-12446574D01*
X17774753Y-12446574D01*
X17803324Y-12460860D01*
X17817610Y-12475146D01*
X17831896Y-12503717D01*
X17831896Y-12532289D01*
X17817610Y-12575146D01*
X17646181Y-12746574D01*
X17831896Y-12746574D01*
X18189038Y-12746574D02*
X18189038Y-12446574D01*
X18317610Y-12746574D02*
X18317610Y-12589431D01*
X18303324Y-12560860D01*
X18274753Y-12546574D01*
X18231896Y-12546574D01*
X18203324Y-12560860D01*
X18189038Y-12575146D01*
X18503324Y-12746574D02*
X18474753Y-12732289D01*
X18460467Y-12718003D01*
X18446181Y-12689431D01*
X18446181Y-12603717D01*
X18460467Y-12575146D01*
X18474753Y-12560860D01*
X18503324Y-12546574D01*
X18546181Y-12546574D01*
X18574753Y-12560860D01*
X18589038Y-12575146D01*
X18603324Y-12603717D01*
X18603324Y-12689431D01*
X18589038Y-12718003D01*
X18574753Y-12732289D01*
X18546181Y-12746574D01*
X18503324Y-12746574D01*
X18774753Y-12746574D02*
X18746181Y-12732289D01*
X18731896Y-12703717D01*
X18731896Y-12446574D01*
X19003324Y-12732289D02*
X18974753Y-12746574D01*
X18917610Y-12746574D01*
X18889038Y-12732289D01*
X18874753Y-12703717D01*
X18874753Y-12589431D01*
X18889038Y-12560860D01*
X18917610Y-12546574D01*
X18974753Y-12546574D01*
X19003324Y-12560860D01*
X19017610Y-12589431D01*
X19017610Y-12618003D01*
X18874753Y-12646574D01*
X19131896Y-12732289D02*
X19160467Y-12746574D01*
X19217610Y-12746574D01*
X19246181Y-12732289D01*
X19260467Y-12703717D01*
X19260467Y-12689431D01*
X19246181Y-12660860D01*
X19217610Y-12646574D01*
X19174753Y-12646574D01*
X19146181Y-12632289D01*
X19131896Y-12603717D01*
X19131896Y-12589431D01*
X19146181Y-12560860D01*
X19174753Y-12546574D01*
X19217610Y-12546574D01*
X19246181Y-12560860D01*
X19360467Y-12860860D02*
X19374753Y-12846574D01*
X19403324Y-12803717D01*
X19417610Y-12775146D01*
X19431896Y-12732289D01*
X19446181Y-12660860D01*
X19446181Y-12603717D01*
X19431896Y-12532289D01*
X19417610Y-12489431D01*
X19403324Y-12460860D01*
X19374753Y-12418003D01*
X19360467Y-12403717D01*
X12302610Y-13006860D02*
G75*
G03X12302610Y-13006860I-13750J0D01*
G01*
X12646181Y-12842574D02*
X12674753Y-12842574D01*
X12703324Y-12856860D01*
X12717610Y-12871146D01*
X12731896Y-12899717D01*
X12746181Y-12956860D01*
X12746181Y-13028289D01*
X12731896Y-13085431D01*
X12717610Y-13114003D01*
X12703324Y-13128289D01*
X12674753Y-13142574D01*
X12646181Y-13142574D01*
X12617610Y-13128289D01*
X12603324Y-13114003D01*
X12589038Y-13085431D01*
X12574753Y-13028289D01*
X12574753Y-12956860D01*
X12589038Y-12899717D01*
X12603324Y-12871146D01*
X12617610Y-12856860D01*
X12646181Y-12842574D01*
X12874753Y-13114003D02*
X12889038Y-13128289D01*
X12874753Y-13142574D01*
X12860467Y-13128289D01*
X12874753Y-13114003D01*
X12874753Y-13142574D01*
X13003324Y-12871146D02*
X13017610Y-12856860D01*
X13046181Y-12842574D01*
X13117610Y-12842574D01*
X13146181Y-12856860D01*
X13160467Y-12871146D01*
X13174753Y-12899717D01*
X13174753Y-12928289D01*
X13160467Y-12971146D01*
X12989038Y-13142574D01*
X13174753Y-13142574D01*
X13346181Y-12971146D02*
X13317610Y-12956860D01*
X13303324Y-12942574D01*
X13289038Y-12914003D01*
X13289038Y-12899717D01*
X13303324Y-12871146D01*
X13317610Y-12856860D01*
X13346181Y-12842574D01*
X13403324Y-12842574D01*
X13431896Y-12856860D01*
X13446181Y-12871146D01*
X13460467Y-12899717D01*
X13460467Y-12914003D01*
X13446181Y-12942574D01*
X13431896Y-12956860D01*
X13403324Y-12971146D01*
X13346181Y-12971146D01*
X13317610Y-12985431D01*
X13303324Y-12999717D01*
X13289038Y-13028289D01*
X13289038Y-13085431D01*
X13303324Y-13114003D01*
X13317610Y-13128289D01*
X13346181Y-13142574D01*
X13403324Y-13142574D01*
X13431896Y-13128289D01*
X13446181Y-13114003D01*
X13460467Y-13085431D01*
X13460467Y-13028289D01*
X13446181Y-12999717D01*
X13431896Y-12985431D01*
X13403324Y-12971146D01*
X13589038Y-13142574D02*
X13589038Y-12942574D01*
X13589038Y-12971146D02*
X13603324Y-12956860D01*
X13631896Y-12942574D01*
X13674753Y-12942574D01*
X13703324Y-12956860D01*
X13717610Y-12985431D01*
X13717610Y-13142574D01*
X13717610Y-12985431D02*
X13731896Y-12956860D01*
X13760467Y-12942574D01*
X13803324Y-12942574D01*
X13831896Y-12956860D01*
X13846181Y-12985431D01*
X13846181Y-13142574D01*
X13989038Y-13142574D02*
X13989038Y-12942574D01*
X13989038Y-12971146D02*
X14003324Y-12956860D01*
X14031896Y-12942574D01*
X14074753Y-12942574D01*
X14103324Y-12956860D01*
X14117610Y-12985431D01*
X14117610Y-13142574D01*
X14117610Y-12985431D02*
X14131896Y-12956860D01*
X14160467Y-12942574D01*
X14203324Y-12942574D01*
X14231896Y-12956860D01*
X14246181Y-12985431D01*
X14246181Y-13142574D01*
X14831896Y-12828289D02*
X14574753Y-13214003D01*
X15217610Y-12842574D02*
X15246181Y-12842574D01*
X15274753Y-12856860D01*
X15289038Y-12871146D01*
X15303324Y-12899717D01*
X15317610Y-12956860D01*
X15317610Y-13028289D01*
X15303324Y-13085431D01*
X15289038Y-13114003D01*
X15274753Y-13128289D01*
X15246181Y-13142574D01*
X15217610Y-13142574D01*
X15189038Y-13128289D01*
X15174753Y-13114003D01*
X15160467Y-13085431D01*
X15146181Y-13028289D01*
X15146181Y-12956860D01*
X15160467Y-12899717D01*
X15174753Y-12871146D01*
X15189038Y-12856860D01*
X15217610Y-12842574D01*
X15446181Y-13114003D02*
X15460467Y-13128289D01*
X15446181Y-13142574D01*
X15431896Y-13128289D01*
X15446181Y-13114003D01*
X15446181Y-13142574D01*
X15646181Y-12842574D02*
X15674753Y-12842574D01*
X15703324Y-12856860D01*
X15717610Y-12871146D01*
X15731896Y-12899717D01*
X15746181Y-12956860D01*
X15746181Y-13028289D01*
X15731896Y-13085431D01*
X15717610Y-13114003D01*
X15703324Y-13128289D01*
X15674753Y-13142574D01*
X15646181Y-13142574D01*
X15617610Y-13128289D01*
X15603324Y-13114003D01*
X15589038Y-13085431D01*
X15574753Y-13028289D01*
X15574753Y-12956860D01*
X15589038Y-12899717D01*
X15603324Y-12871146D01*
X15617610Y-12856860D01*
X15646181Y-12842574D01*
X16031896Y-13142574D02*
X15860467Y-13142574D01*
X15946181Y-13142574D02*
X15946181Y-12842574D01*
X15917610Y-12885431D01*
X15889038Y-12914003D01*
X15860467Y-12928289D01*
X16317610Y-13142574D02*
X16146181Y-13142574D01*
X16231896Y-13142574D02*
X16231896Y-12842574D01*
X16203324Y-12885431D01*
X16174753Y-12914003D01*
X16146181Y-12928289D01*
X16431896Y-12842574D02*
X16431896Y-12899717D01*
X16546181Y-12842574D02*
X16546181Y-12899717D01*
X16989038Y-13256860D02*
X16974753Y-13242574D01*
X16946181Y-13199717D01*
X16931896Y-13171146D01*
X16917610Y-13128289D01*
X16903324Y-13056860D01*
X16903324Y-12999717D01*
X16917610Y-12928289D01*
X16931896Y-12885431D01*
X16946181Y-12856860D01*
X16974753Y-12814003D01*
X16989038Y-12799717D01*
X17117610Y-13142574D02*
X17174753Y-13142574D01*
X17203324Y-13128289D01*
X17217610Y-13114003D01*
X17246181Y-13071146D01*
X17260467Y-13014003D01*
X17260467Y-12899717D01*
X17246181Y-12871146D01*
X17231896Y-12856860D01*
X17203324Y-12842574D01*
X17146181Y-12842574D01*
X17117610Y-12856860D01*
X17103324Y-12871146D01*
X17089038Y-12899717D01*
X17089038Y-12971146D01*
X17103324Y-12999717D01*
X17117610Y-13014003D01*
X17146181Y-13028289D01*
X17203324Y-13028289D01*
X17231896Y-13014003D01*
X17246181Y-12999717D01*
X17260467Y-12971146D01*
X17617610Y-13142574D02*
X17617610Y-12842574D01*
X17746181Y-13142574D02*
X17746181Y-12985431D01*
X17731896Y-12956860D01*
X17703324Y-12942574D01*
X17660467Y-12942574D01*
X17631896Y-12956860D01*
X17617610Y-12971146D01*
X17931896Y-13142574D02*
X17903324Y-13128289D01*
X17889038Y-13114003D01*
X17874753Y-13085431D01*
X17874753Y-12999717D01*
X17889038Y-12971146D01*
X17903324Y-12956860D01*
X17931896Y-12942574D01*
X17974753Y-12942574D01*
X18003324Y-12956860D01*
X18017610Y-12971146D01*
X18031896Y-12999717D01*
X18031896Y-13085431D01*
X18017610Y-13114003D01*
X18003324Y-13128289D01*
X17974753Y-13142574D01*
X17931896Y-13142574D01*
X18203324Y-13142574D02*
X18174753Y-13128289D01*
X18160467Y-13099717D01*
X18160467Y-12842574D01*
X18431896Y-13128289D02*
X18403324Y-13142574D01*
X18346181Y-13142574D01*
X18317610Y-13128289D01*
X18303324Y-13099717D01*
X18303324Y-12985431D01*
X18317610Y-12956860D01*
X18346181Y-12942574D01*
X18403324Y-12942574D01*
X18431896Y-12956860D01*
X18446181Y-12985431D01*
X18446181Y-13014003D01*
X18303324Y-13042574D01*
X18560467Y-13128289D02*
X18589038Y-13142574D01*
X18646181Y-13142574D01*
X18674753Y-13128289D01*
X18689038Y-13099717D01*
X18689038Y-13085431D01*
X18674753Y-13056860D01*
X18646181Y-13042574D01*
X18603324Y-13042574D01*
X18574753Y-13028289D01*
X18560467Y-12999717D01*
X18560467Y-12985431D01*
X18574753Y-12956860D01*
X18603324Y-12942574D01*
X18646181Y-12942574D01*
X18674753Y-12956860D01*
X18789038Y-13256860D02*
X18803324Y-13242574D01*
X18831896Y-13199717D01*
X18846181Y-13171146D01*
X18860467Y-13128289D01*
X18874753Y-13056860D01*
X18874753Y-12999717D01*
X18860467Y-12928289D01*
X18846181Y-12885431D01*
X18831896Y-12856860D01*
X18803324Y-12814003D01*
X18789038Y-12799717D01*
X12257610Y-13357860D02*
X12257610Y-13447860D01*
X12212610Y-13402860D02*
X12302610Y-13402860D01*
X12646181Y-13238574D02*
X12674753Y-13238574D01*
X12703324Y-13252860D01*
X12717610Y-13267146D01*
X12731896Y-13295717D01*
X12746181Y-13352860D01*
X12746181Y-13424289D01*
X12731896Y-13481431D01*
X12717610Y-13510003D01*
X12703324Y-13524289D01*
X12674753Y-13538574D01*
X12646181Y-13538574D01*
X12617610Y-13524289D01*
X12603324Y-13510003D01*
X12589038Y-13481431D01*
X12574753Y-13424289D01*
X12574753Y-13352860D01*
X12589038Y-13295717D01*
X12603324Y-13267146D01*
X12617610Y-13252860D01*
X12646181Y-13238574D01*
X12874753Y-13510003D02*
X12889038Y-13524289D01*
X12874753Y-13538574D01*
X12860467Y-13524289D01*
X12874753Y-13510003D01*
X12874753Y-13538574D01*
X13031896Y-13538574D02*
X13089038Y-13538574D01*
X13117610Y-13524289D01*
X13131896Y-13510003D01*
X13160467Y-13467146D01*
X13174753Y-13410003D01*
X13174753Y-13295717D01*
X13160467Y-13267146D01*
X13146181Y-13252860D01*
X13117610Y-13238574D01*
X13060467Y-13238574D01*
X13031896Y-13252860D01*
X13017610Y-13267146D01*
X13003324Y-13295717D01*
X13003324Y-13367146D01*
X13017610Y-13395717D01*
X13031896Y-13410003D01*
X13060467Y-13424289D01*
X13117610Y-13424289D01*
X13146181Y-13410003D01*
X13160467Y-13395717D01*
X13174753Y-13367146D01*
X13360467Y-13238574D02*
X13389038Y-13238574D01*
X13417610Y-13252860D01*
X13431896Y-13267146D01*
X13446181Y-13295717D01*
X13460467Y-13352860D01*
X13460467Y-13424289D01*
X13446181Y-13481431D01*
X13431896Y-13510003D01*
X13417610Y-13524289D01*
X13389038Y-13538574D01*
X13360467Y-13538574D01*
X13331896Y-13524289D01*
X13317610Y-13510003D01*
X13303324Y-13481431D01*
X13289038Y-13424289D01*
X13289038Y-13352860D01*
X13303324Y-13295717D01*
X13317610Y-13267146D01*
X13331896Y-13252860D01*
X13360467Y-13238574D01*
X13589038Y-13538574D02*
X13589038Y-13338574D01*
X13589038Y-13367146D02*
X13603324Y-13352860D01*
X13631896Y-13338574D01*
X13674753Y-13338574D01*
X13703324Y-13352860D01*
X13717610Y-13381431D01*
X13717610Y-13538574D01*
X13717610Y-13381431D02*
X13731896Y-13352860D01*
X13760467Y-13338574D01*
X13803324Y-13338574D01*
X13831896Y-13352860D01*
X13846181Y-13381431D01*
X13846181Y-13538574D01*
X13989038Y-13538574D02*
X13989038Y-13338574D01*
X13989038Y-13367146D02*
X14003324Y-13352860D01*
X14031896Y-13338574D01*
X14074753Y-13338574D01*
X14103324Y-13352860D01*
X14117610Y-13381431D01*
X14117610Y-13538574D01*
X14117610Y-13381431D02*
X14131896Y-13352860D01*
X14160467Y-13338574D01*
X14203324Y-13338574D01*
X14231896Y-13352860D01*
X14246181Y-13381431D01*
X14246181Y-13538574D01*
X14831896Y-13224289D02*
X14574753Y-13610003D01*
X15217610Y-13238574D02*
X15246181Y-13238574D01*
X15274753Y-13252860D01*
X15289038Y-13267146D01*
X15303324Y-13295717D01*
X15317610Y-13352860D01*
X15317610Y-13424289D01*
X15303324Y-13481431D01*
X15289038Y-13510003D01*
X15274753Y-13524289D01*
X15246181Y-13538574D01*
X15217610Y-13538574D01*
X15189038Y-13524289D01*
X15174753Y-13510003D01*
X15160467Y-13481431D01*
X15146181Y-13424289D01*
X15146181Y-13352860D01*
X15160467Y-13295717D01*
X15174753Y-13267146D01*
X15189038Y-13252860D01*
X15217610Y-13238574D01*
X15446181Y-13510003D02*
X15460467Y-13524289D01*
X15446181Y-13538574D01*
X15431896Y-13524289D01*
X15446181Y-13510003D01*
X15446181Y-13538574D01*
X15646181Y-13238574D02*
X15674753Y-13238574D01*
X15703324Y-13252860D01*
X15717610Y-13267146D01*
X15731896Y-13295717D01*
X15746181Y-13352860D01*
X15746181Y-13424289D01*
X15731896Y-13481431D01*
X15717610Y-13510003D01*
X15703324Y-13524289D01*
X15674753Y-13538574D01*
X15646181Y-13538574D01*
X15617610Y-13524289D01*
X15603324Y-13510003D01*
X15589038Y-13481431D01*
X15574753Y-13424289D01*
X15574753Y-13352860D01*
X15589038Y-13295717D01*
X15603324Y-13267146D01*
X15617610Y-13252860D01*
X15646181Y-13238574D01*
X15846181Y-13238574D02*
X16031896Y-13238574D01*
X15931896Y-13352860D01*
X15974753Y-13352860D01*
X16003324Y-13367146D01*
X16017610Y-13381431D01*
X16031896Y-13410003D01*
X16031896Y-13481431D01*
X16017610Y-13510003D01*
X16003324Y-13524289D01*
X15974753Y-13538574D01*
X15889038Y-13538574D01*
X15860467Y-13524289D01*
X15846181Y-13510003D01*
X16303324Y-13238574D02*
X16160467Y-13238574D01*
X16146181Y-13381431D01*
X16160467Y-13367146D01*
X16189038Y-13352860D01*
X16260467Y-13352860D01*
X16289038Y-13367146D01*
X16303324Y-13381431D01*
X16317610Y-13410003D01*
X16317610Y-13481431D01*
X16303324Y-13510003D01*
X16289038Y-13524289D01*
X16260467Y-13538574D01*
X16189038Y-13538574D01*
X16160467Y-13524289D01*
X16146181Y-13510003D01*
X16431896Y-13238574D02*
X16431896Y-13295717D01*
X16546181Y-13238574D02*
X16546181Y-13295717D01*
X16989038Y-13652860D02*
X16974753Y-13638574D01*
X16946181Y-13595717D01*
X16931896Y-13567146D01*
X16917610Y-13524289D01*
X16903324Y-13452860D01*
X16903324Y-13395717D01*
X16917610Y-13324289D01*
X16931896Y-13281431D01*
X16946181Y-13252860D01*
X16974753Y-13210003D01*
X16989038Y-13195717D01*
X17231896Y-13238574D02*
X17174753Y-13238574D01*
X17146181Y-13252860D01*
X17131896Y-13267146D01*
X17103324Y-13310003D01*
X17089038Y-13367146D01*
X17089038Y-13481431D01*
X17103324Y-13510003D01*
X17117610Y-13524289D01*
X17146181Y-13538574D01*
X17203324Y-13538574D01*
X17231896Y-13524289D01*
X17246181Y-13510003D01*
X17260467Y-13481431D01*
X17260467Y-13410003D01*
X17246181Y-13381431D01*
X17231896Y-13367146D01*
X17203324Y-13352860D01*
X17146181Y-13352860D01*
X17117610Y-13367146D01*
X17103324Y-13381431D01*
X17089038Y-13410003D01*
X17617610Y-13538574D02*
X17617610Y-13238574D01*
X17746181Y-13538574D02*
X17746181Y-13381431D01*
X17731896Y-13352860D01*
X17703324Y-13338574D01*
X17660467Y-13338574D01*
X17631896Y-13352860D01*
X17617610Y-13367146D01*
X17931896Y-13538574D02*
X17903324Y-13524289D01*
X17889038Y-13510003D01*
X17874753Y-13481431D01*
X17874753Y-13395717D01*
X17889038Y-13367146D01*
X17903324Y-13352860D01*
X17931896Y-13338574D01*
X17974753Y-13338574D01*
X18003324Y-13352860D01*
X18017610Y-13367146D01*
X18031896Y-13395717D01*
X18031896Y-13481431D01*
X18017610Y-13510003D01*
X18003324Y-13524289D01*
X17974753Y-13538574D01*
X17931896Y-13538574D01*
X18203324Y-13538574D02*
X18174753Y-13524289D01*
X18160467Y-13495717D01*
X18160467Y-13238574D01*
X18431896Y-13524289D02*
X18403324Y-13538574D01*
X18346181Y-13538574D01*
X18317610Y-13524289D01*
X18303324Y-13495717D01*
X18303324Y-13381431D01*
X18317610Y-13352860D01*
X18346181Y-13338574D01*
X18403324Y-13338574D01*
X18431896Y-13352860D01*
X18446181Y-13381431D01*
X18446181Y-13410003D01*
X18303324Y-13438574D01*
X18560467Y-13524289D02*
X18589038Y-13538574D01*
X18646181Y-13538574D01*
X18674753Y-13524289D01*
X18689038Y-13495717D01*
X18689038Y-13481431D01*
X18674753Y-13452860D01*
X18646181Y-13438574D01*
X18603324Y-13438574D01*
X18574753Y-13424289D01*
X18560467Y-13395717D01*
X18560467Y-13381431D01*
X18574753Y-13352860D01*
X18603324Y-13338574D01*
X18646181Y-13338574D01*
X18674753Y-13352860D01*
X18789038Y-13652860D02*
X18803324Y-13638574D01*
X18831896Y-13595717D01*
X18846181Y-13567146D01*
X18860467Y-13524289D01*
X18874753Y-13452860D01*
X18874753Y-13395717D01*
X18860467Y-13324289D01*
X18846181Y-13281431D01*
X18831896Y-13252860D01*
X18803324Y-13210003D01*
X18789038Y-13195717D01*
X12287966Y-13834216D02*
X12287966Y-13763504D01*
X12217254Y-13763504D01*
X12217254Y-13834216D01*
X12287966Y-13834216D01*
X12746181Y-13934574D02*
X12574753Y-13934574D01*
X12660467Y-13934574D02*
X12660467Y-13634574D01*
X12631896Y-13677431D01*
X12603324Y-13706003D01*
X12574753Y-13720289D01*
X12874753Y-13906003D02*
X12889038Y-13920289D01*
X12874753Y-13934574D01*
X12860467Y-13920289D01*
X12874753Y-13906003D01*
X12874753Y-13934574D01*
X13074753Y-13634574D02*
X13103324Y-13634574D01*
X13131896Y-13648860D01*
X13146181Y-13663146D01*
X13160467Y-13691717D01*
X13174753Y-13748860D01*
X13174753Y-13820289D01*
X13160467Y-13877431D01*
X13146181Y-13906003D01*
X13131896Y-13920289D01*
X13103324Y-13934574D01*
X13074753Y-13934574D01*
X13046181Y-13920289D01*
X13031896Y-13906003D01*
X13017610Y-13877431D01*
X13003324Y-13820289D01*
X13003324Y-13748860D01*
X13017610Y-13691717D01*
X13031896Y-13663146D01*
X13046181Y-13648860D01*
X13074753Y-13634574D01*
X13360467Y-13634574D02*
X13389038Y-13634574D01*
X13417610Y-13648860D01*
X13431896Y-13663146D01*
X13446181Y-13691717D01*
X13460467Y-13748860D01*
X13460467Y-13820289D01*
X13446181Y-13877431D01*
X13431896Y-13906003D01*
X13417610Y-13920289D01*
X13389038Y-13934574D01*
X13360467Y-13934574D01*
X13331896Y-13920289D01*
X13317610Y-13906003D01*
X13303324Y-13877431D01*
X13289038Y-13820289D01*
X13289038Y-13748860D01*
X13303324Y-13691717D01*
X13317610Y-13663146D01*
X13331896Y-13648860D01*
X13360467Y-13634574D01*
X13589038Y-13934574D02*
X13589038Y-13734574D01*
X13589038Y-13763146D02*
X13603324Y-13748860D01*
X13631896Y-13734574D01*
X13674753Y-13734574D01*
X13703324Y-13748860D01*
X13717610Y-13777431D01*
X13717610Y-13934574D01*
X13717610Y-13777431D02*
X13731896Y-13748860D01*
X13760467Y-13734574D01*
X13803324Y-13734574D01*
X13831896Y-13748860D01*
X13846181Y-13777431D01*
X13846181Y-13934574D01*
X13989038Y-13934574D02*
X13989038Y-13734574D01*
X13989038Y-13763146D02*
X14003324Y-13748860D01*
X14031896Y-13734574D01*
X14074753Y-13734574D01*
X14103324Y-13748860D01*
X14117610Y-13777431D01*
X14117610Y-13934574D01*
X14117610Y-13777431D02*
X14131896Y-13748860D01*
X14160467Y-13734574D01*
X14203324Y-13734574D01*
X14231896Y-13748860D01*
X14246181Y-13777431D01*
X14246181Y-13934574D01*
X14831896Y-13620289D02*
X14574753Y-14006003D01*
X15217610Y-13634574D02*
X15246181Y-13634574D01*
X15274753Y-13648860D01*
X15289038Y-13663146D01*
X15303324Y-13691717D01*
X15317610Y-13748860D01*
X15317610Y-13820289D01*
X15303324Y-13877431D01*
X15289038Y-13906003D01*
X15274753Y-13920289D01*
X15246181Y-13934574D01*
X15217610Y-13934574D01*
X15189038Y-13920289D01*
X15174753Y-13906003D01*
X15160467Y-13877431D01*
X15146181Y-13820289D01*
X15146181Y-13748860D01*
X15160467Y-13691717D01*
X15174753Y-13663146D01*
X15189038Y-13648860D01*
X15217610Y-13634574D01*
X15446181Y-13906003D02*
X15460467Y-13920289D01*
X15446181Y-13934574D01*
X15431896Y-13920289D01*
X15446181Y-13906003D01*
X15446181Y-13934574D01*
X15646181Y-13634574D02*
X15674753Y-13634574D01*
X15703324Y-13648860D01*
X15717610Y-13663146D01*
X15731896Y-13691717D01*
X15746181Y-13748860D01*
X15746181Y-13820289D01*
X15731896Y-13877431D01*
X15717610Y-13906003D01*
X15703324Y-13920289D01*
X15674753Y-13934574D01*
X15646181Y-13934574D01*
X15617610Y-13920289D01*
X15603324Y-13906003D01*
X15589038Y-13877431D01*
X15574753Y-13820289D01*
X15574753Y-13748860D01*
X15589038Y-13691717D01*
X15603324Y-13663146D01*
X15617610Y-13648860D01*
X15646181Y-13634574D01*
X15846181Y-13634574D02*
X16031896Y-13634574D01*
X15931896Y-13748860D01*
X15974753Y-13748860D01*
X16003324Y-13763146D01*
X16017610Y-13777431D01*
X16031896Y-13806003D01*
X16031896Y-13877431D01*
X16017610Y-13906003D01*
X16003324Y-13920289D01*
X15974753Y-13934574D01*
X15889038Y-13934574D01*
X15860467Y-13920289D01*
X15846181Y-13906003D01*
X16174753Y-13934574D02*
X16231896Y-13934574D01*
X16260467Y-13920289D01*
X16274753Y-13906003D01*
X16303324Y-13863146D01*
X16317610Y-13806003D01*
X16317610Y-13691717D01*
X16303324Y-13663146D01*
X16289038Y-13648860D01*
X16260467Y-13634574D01*
X16203324Y-13634574D01*
X16174753Y-13648860D01*
X16160467Y-13663146D01*
X16146181Y-13691717D01*
X16146181Y-13763146D01*
X16160467Y-13791717D01*
X16174753Y-13806003D01*
X16203324Y-13820289D01*
X16260467Y-13820289D01*
X16289038Y-13806003D01*
X16303324Y-13791717D01*
X16317610Y-13763146D01*
X16431896Y-13634574D02*
X16431896Y-13691717D01*
X16546181Y-13634574D02*
X16546181Y-13691717D01*
X16989038Y-14048860D02*
X16974753Y-14034574D01*
X16946181Y-13991717D01*
X16931896Y-13963146D01*
X16917610Y-13920289D01*
X16903324Y-13848860D01*
X16903324Y-13791717D01*
X16917610Y-13720289D01*
X16931896Y-13677431D01*
X16946181Y-13648860D01*
X16974753Y-13606003D01*
X16989038Y-13591717D01*
X17231896Y-13734574D02*
X17231896Y-13934574D01*
X17160467Y-13620289D02*
X17089038Y-13834574D01*
X17274753Y-13834574D01*
X17517610Y-13734574D02*
X17517610Y-13934574D01*
X17446181Y-13620289D02*
X17374753Y-13834574D01*
X17560467Y-13834574D01*
X17903324Y-13934574D02*
X17903324Y-13634574D01*
X18031896Y-13934574D02*
X18031896Y-13777431D01*
X18017610Y-13748860D01*
X17989038Y-13734574D01*
X17946181Y-13734574D01*
X17917610Y-13748860D01*
X17903324Y-13763146D01*
X18217610Y-13934574D02*
X18189038Y-13920289D01*
X18174753Y-13906003D01*
X18160467Y-13877431D01*
X18160467Y-13791717D01*
X18174753Y-13763146D01*
X18189038Y-13748860D01*
X18217610Y-13734574D01*
X18260467Y-13734574D01*
X18289038Y-13748860D01*
X18303324Y-13763146D01*
X18317610Y-13791717D01*
X18317610Y-13877431D01*
X18303324Y-13906003D01*
X18289038Y-13920289D01*
X18260467Y-13934574D01*
X18217610Y-13934574D01*
X18489038Y-13934574D02*
X18460467Y-13920289D01*
X18446181Y-13891717D01*
X18446181Y-13634574D01*
X18717610Y-13920289D02*
X18689038Y-13934574D01*
X18631896Y-13934574D01*
X18603324Y-13920289D01*
X18589038Y-13891717D01*
X18589038Y-13777431D01*
X18603324Y-13748860D01*
X18631896Y-13734574D01*
X18689038Y-13734574D01*
X18717610Y-13748860D01*
X18731896Y-13777431D01*
X18731896Y-13806003D01*
X18589038Y-13834574D01*
X18846181Y-13920289D02*
X18874753Y-13934574D01*
X18931896Y-13934574D01*
X18960467Y-13920289D01*
X18974753Y-13891717D01*
X18974753Y-13877431D01*
X18960467Y-13848860D01*
X18931896Y-13834574D01*
X18889038Y-13834574D01*
X18860467Y-13820289D01*
X18846181Y-13791717D01*
X18846181Y-13777431D01*
X18860467Y-13748860D01*
X18889038Y-13734574D01*
X18931896Y-13734574D01*
X18960467Y-13748860D01*
X19074753Y-14048860D02*
X19089038Y-14034574D01*
X19117610Y-13991717D01*
X19131896Y-13963146D01*
X19146181Y-13920289D01*
X19160467Y-13848860D01*
X19160467Y-13791717D01*
X19146181Y-13720289D01*
X19131896Y-13677431D01*
X19117610Y-13648860D01*
X19089038Y-13606003D01*
X19074753Y-13591717D01*
X12244610Y-14252860D02*
X12302610Y-14194860D01*
X12244610Y-14136860D01*
X12186610Y-14194860D01*
X12244610Y-14252860D01*
X12746181Y-14330574D02*
X12574753Y-14330574D01*
X12660467Y-14330574D02*
X12660467Y-14030574D01*
X12631896Y-14073431D01*
X12603324Y-14102003D01*
X12574753Y-14116289D01*
X12874753Y-14302003D02*
X12889038Y-14316289D01*
X12874753Y-14330574D01*
X12860467Y-14316289D01*
X12874753Y-14302003D01*
X12874753Y-14330574D01*
X13174753Y-14330574D02*
X13003324Y-14330574D01*
X13089038Y-14330574D02*
X13089038Y-14030574D01*
X13060467Y-14073431D01*
X13031896Y-14102003D01*
X13003324Y-14116289D01*
X13431896Y-14030574D02*
X13374753Y-14030574D01*
X13346181Y-14044860D01*
X13331896Y-14059146D01*
X13303324Y-14102003D01*
X13289038Y-14159146D01*
X13289038Y-14273431D01*
X13303324Y-14302003D01*
X13317610Y-14316289D01*
X13346181Y-14330574D01*
X13403324Y-14330574D01*
X13431896Y-14316289D01*
X13446181Y-14302003D01*
X13460467Y-14273431D01*
X13460467Y-14202003D01*
X13446181Y-14173431D01*
X13431896Y-14159146D01*
X13403324Y-14144860D01*
X13346181Y-14144860D01*
X13317610Y-14159146D01*
X13303324Y-14173431D01*
X13289038Y-14202003D01*
X13589038Y-14330574D02*
X13589038Y-14130574D01*
X13589038Y-14159146D02*
X13603324Y-14144860D01*
X13631896Y-14130574D01*
X13674753Y-14130574D01*
X13703324Y-14144860D01*
X13717610Y-14173431D01*
X13717610Y-14330574D01*
X13717610Y-14173431D02*
X13731896Y-14144860D01*
X13760467Y-14130574D01*
X13803324Y-14130574D01*
X13831896Y-14144860D01*
X13846181Y-14173431D01*
X13846181Y-14330574D01*
X13989038Y-14330574D02*
X13989038Y-14130574D01*
X13989038Y-14159146D02*
X14003324Y-14144860D01*
X14031896Y-14130574D01*
X14074753Y-14130574D01*
X14103324Y-14144860D01*
X14117610Y-14173431D01*
X14117610Y-14330574D01*
X14117610Y-14173431D02*
X14131896Y-14144860D01*
X14160467Y-14130574D01*
X14203324Y-14130574D01*
X14231896Y-14144860D01*
X14246181Y-14173431D01*
X14246181Y-14330574D01*
X14831896Y-14016289D02*
X14574753Y-14402003D01*
X15217610Y-14030574D02*
X15246181Y-14030574D01*
X15274753Y-14044860D01*
X15289038Y-14059146D01*
X15303324Y-14087717D01*
X15317610Y-14144860D01*
X15317610Y-14216289D01*
X15303324Y-14273431D01*
X15289038Y-14302003D01*
X15274753Y-14316289D01*
X15246181Y-14330574D01*
X15217610Y-14330574D01*
X15189038Y-14316289D01*
X15174753Y-14302003D01*
X15160467Y-14273431D01*
X15146181Y-14216289D01*
X15146181Y-14144860D01*
X15160467Y-14087717D01*
X15174753Y-14059146D01*
X15189038Y-14044860D01*
X15217610Y-14030574D01*
X15446181Y-14302003D02*
X15460467Y-14316289D01*
X15446181Y-14330574D01*
X15431896Y-14316289D01*
X15446181Y-14302003D01*
X15446181Y-14330574D01*
X15646181Y-14030574D02*
X15674753Y-14030574D01*
X15703324Y-14044860D01*
X15717610Y-14059146D01*
X15731896Y-14087717D01*
X15746181Y-14144860D01*
X15746181Y-14216289D01*
X15731896Y-14273431D01*
X15717610Y-14302003D01*
X15703324Y-14316289D01*
X15674753Y-14330574D01*
X15646181Y-14330574D01*
X15617610Y-14316289D01*
X15603324Y-14302003D01*
X15589038Y-14273431D01*
X15574753Y-14216289D01*
X15574753Y-14144860D01*
X15589038Y-14087717D01*
X15603324Y-14059146D01*
X15617610Y-14044860D01*
X15646181Y-14030574D01*
X16003324Y-14130574D02*
X16003324Y-14330574D01*
X15931896Y-14016289D02*
X15860467Y-14230574D01*
X16046181Y-14230574D01*
X16289038Y-14030574D02*
X16231896Y-14030574D01*
X16203324Y-14044860D01*
X16189038Y-14059146D01*
X16160467Y-14102003D01*
X16146181Y-14159146D01*
X16146181Y-14273431D01*
X16160467Y-14302003D01*
X16174753Y-14316289D01*
X16203324Y-14330574D01*
X16260467Y-14330574D01*
X16289038Y-14316289D01*
X16303324Y-14302003D01*
X16317610Y-14273431D01*
X16317610Y-14202003D01*
X16303324Y-14173431D01*
X16289038Y-14159146D01*
X16260467Y-14144860D01*
X16203324Y-14144860D01*
X16174753Y-14159146D01*
X16160467Y-14173431D01*
X16146181Y-14202003D01*
X16431896Y-14030574D02*
X16431896Y-14087717D01*
X16546181Y-14030574D02*
X16546181Y-14087717D01*
X16989038Y-14444860D02*
X16974753Y-14430574D01*
X16946181Y-14387717D01*
X16931896Y-14359146D01*
X16917610Y-14316289D01*
X16903324Y-14244860D01*
X16903324Y-14187717D01*
X16917610Y-14116289D01*
X16931896Y-14073431D01*
X16946181Y-14044860D01*
X16974753Y-14002003D01*
X16989038Y-13987717D01*
X17260467Y-14330574D02*
X17089038Y-14330574D01*
X17174753Y-14330574D02*
X17174753Y-14030574D01*
X17146181Y-14073431D01*
X17117610Y-14102003D01*
X17089038Y-14116289D01*
X17617610Y-14330574D02*
X17617610Y-14030574D01*
X17746181Y-14330574D02*
X17746181Y-14173431D01*
X17731896Y-14144860D01*
X17703324Y-14130574D01*
X17660467Y-14130574D01*
X17631896Y-14144860D01*
X17617610Y-14159146D01*
X17931896Y-14330574D02*
X17903324Y-14316289D01*
X17889038Y-14302003D01*
X17874753Y-14273431D01*
X17874753Y-14187717D01*
X17889038Y-14159146D01*
X17903324Y-14144860D01*
X17931896Y-14130574D01*
X17974753Y-14130574D01*
X18003324Y-14144860D01*
X18017610Y-14159146D01*
X18031896Y-14187717D01*
X18031896Y-14273431D01*
X18017610Y-14302003D01*
X18003324Y-14316289D01*
X17974753Y-14330574D01*
X17931896Y-14330574D01*
X18203324Y-14330574D02*
X18174753Y-14316289D01*
X18160467Y-14287717D01*
X18160467Y-14030574D01*
X18431896Y-14316289D02*
X18403324Y-14330574D01*
X18346181Y-14330574D01*
X18317610Y-14316289D01*
X18303324Y-14287717D01*
X18303324Y-14173431D01*
X18317610Y-14144860D01*
X18346181Y-14130574D01*
X18403324Y-14130574D01*
X18431896Y-14144860D01*
X18446181Y-14173431D01*
X18446181Y-14202003D01*
X18303324Y-14230574D01*
X18546181Y-14444860D02*
X18560467Y-14430574D01*
X18589038Y-14387717D01*
X18603324Y-14359146D01*
X18617610Y-14316289D01*
X18631896Y-14244860D01*
X18631896Y-14187717D01*
X18617610Y-14116289D01*
X18603324Y-14073431D01*
X18589038Y-14044860D01*
X18560467Y-14002003D01*
X18546181Y-13987717D01*
X12048610Y-14463860D02*
X12302610Y-14717860D01*
X12302610Y-14463860D02*
X12048610Y-14717860D01*
X12302610Y-14590860D02*
G75*
G03X12302610Y-14590860I-127000J0D01*
G01*
X12574753Y-14455146D02*
X12589038Y-14440860D01*
X12617610Y-14426574D01*
X12689038Y-14426574D01*
X12717610Y-14440860D01*
X12731896Y-14455146D01*
X12746181Y-14483717D01*
X12746181Y-14512289D01*
X12731896Y-14555146D01*
X12560467Y-14726574D01*
X12746181Y-14726574D01*
X12874753Y-14698003D02*
X12889038Y-14712289D01*
X12874753Y-14726574D01*
X12860467Y-14712289D01*
X12874753Y-14698003D01*
X12874753Y-14726574D01*
X13160467Y-14426574D02*
X13017610Y-14426574D01*
X13003324Y-14569431D01*
X13017610Y-14555146D01*
X13046181Y-14540860D01*
X13117610Y-14540860D01*
X13146181Y-14555146D01*
X13160467Y-14569431D01*
X13174753Y-14598003D01*
X13174753Y-14669431D01*
X13160467Y-14698003D01*
X13146181Y-14712289D01*
X13117610Y-14726574D01*
X13046181Y-14726574D01*
X13017610Y-14712289D01*
X13003324Y-14698003D01*
X13431896Y-14526574D02*
X13431896Y-14726574D01*
X13360467Y-14412289D02*
X13289038Y-14626574D01*
X13474753Y-14626574D01*
X13589038Y-14726574D02*
X13589038Y-14526574D01*
X13589038Y-14555146D02*
X13603324Y-14540860D01*
X13631896Y-14526574D01*
X13674753Y-14526574D01*
X13703324Y-14540860D01*
X13717610Y-14569431D01*
X13717610Y-14726574D01*
X13717610Y-14569431D02*
X13731896Y-14540860D01*
X13760467Y-14526574D01*
X13803324Y-14526574D01*
X13831896Y-14540860D01*
X13846181Y-14569431D01*
X13846181Y-14726574D01*
X13989038Y-14726574D02*
X13989038Y-14526574D01*
X13989038Y-14555146D02*
X14003324Y-14540860D01*
X14031896Y-14526574D01*
X14074753Y-14526574D01*
X14103324Y-14540860D01*
X14117610Y-14569431D01*
X14117610Y-14726574D01*
X14117610Y-14569431D02*
X14131896Y-14540860D01*
X14160467Y-14526574D01*
X14203324Y-14526574D01*
X14231896Y-14540860D01*
X14246181Y-14569431D01*
X14246181Y-14726574D01*
X14831896Y-14412289D02*
X14574753Y-14798003D01*
X15217610Y-14426574D02*
X15246181Y-14426574D01*
X15274753Y-14440860D01*
X15289038Y-14455146D01*
X15303324Y-14483717D01*
X15317610Y-14540860D01*
X15317610Y-14612289D01*
X15303324Y-14669431D01*
X15289038Y-14698003D01*
X15274753Y-14712289D01*
X15246181Y-14726574D01*
X15217610Y-14726574D01*
X15189038Y-14712289D01*
X15174753Y-14698003D01*
X15160467Y-14669431D01*
X15146181Y-14612289D01*
X15146181Y-14540860D01*
X15160467Y-14483717D01*
X15174753Y-14455146D01*
X15189038Y-14440860D01*
X15217610Y-14426574D01*
X15446181Y-14698003D02*
X15460467Y-14712289D01*
X15446181Y-14726574D01*
X15431896Y-14712289D01*
X15446181Y-14698003D01*
X15446181Y-14726574D01*
X15746181Y-14726574D02*
X15574753Y-14726574D01*
X15660467Y-14726574D02*
X15660467Y-14426574D01*
X15631896Y-14469431D01*
X15603324Y-14498003D01*
X15574753Y-14512289D01*
X15931896Y-14426574D02*
X15960467Y-14426574D01*
X15989038Y-14440860D01*
X16003324Y-14455146D01*
X16017610Y-14483717D01*
X16031896Y-14540860D01*
X16031896Y-14612289D01*
X16017610Y-14669431D01*
X16003324Y-14698003D01*
X15989038Y-14712289D01*
X15960467Y-14726574D01*
X15931896Y-14726574D01*
X15903324Y-14712289D01*
X15889038Y-14698003D01*
X15874753Y-14669431D01*
X15860467Y-14612289D01*
X15860467Y-14540860D01*
X15874753Y-14483717D01*
X15889038Y-14455146D01*
X15903324Y-14440860D01*
X15931896Y-14426574D01*
X16217610Y-14426574D02*
X16246181Y-14426574D01*
X16274753Y-14440860D01*
X16289038Y-14455146D01*
X16303324Y-14483717D01*
X16317610Y-14540860D01*
X16317610Y-14612289D01*
X16303324Y-14669431D01*
X16289038Y-14698003D01*
X16274753Y-14712289D01*
X16246181Y-14726574D01*
X16217610Y-14726574D01*
X16189038Y-14712289D01*
X16174753Y-14698003D01*
X16160467Y-14669431D01*
X16146181Y-14612289D01*
X16146181Y-14540860D01*
X16160467Y-14483717D01*
X16174753Y-14455146D01*
X16189038Y-14440860D01*
X16217610Y-14426574D01*
X16431896Y-14426574D02*
X16431896Y-14483717D01*
X16546181Y-14426574D02*
X16546181Y-14483717D01*
X16989038Y-14840860D02*
X16974753Y-14826574D01*
X16946181Y-14783717D01*
X16931896Y-14755146D01*
X16917610Y-14712289D01*
X16903324Y-14640860D01*
X16903324Y-14583717D01*
X16917610Y-14512289D01*
X16931896Y-14469431D01*
X16946181Y-14440860D01*
X16974753Y-14398003D01*
X16989038Y-14383717D01*
X17231896Y-14526574D02*
X17231896Y-14726574D01*
X17160467Y-14412289D02*
X17089038Y-14626574D01*
X17274753Y-14626574D01*
X17617610Y-14726574D02*
X17617610Y-14426574D01*
X17746181Y-14726574D02*
X17746181Y-14569431D01*
X17731896Y-14540860D01*
X17703324Y-14526574D01*
X17660467Y-14526574D01*
X17631896Y-14540860D01*
X17617610Y-14555146D01*
X17931896Y-14726574D02*
X17903324Y-14712289D01*
X17889038Y-14698003D01*
X17874753Y-14669431D01*
X17874753Y-14583717D01*
X17889038Y-14555146D01*
X17903324Y-14540860D01*
X17931896Y-14526574D01*
X17974753Y-14526574D01*
X18003324Y-14540860D01*
X18017610Y-14555146D01*
X18031896Y-14583717D01*
X18031896Y-14669431D01*
X18017610Y-14698003D01*
X18003324Y-14712289D01*
X17974753Y-14726574D01*
X17931896Y-14726574D01*
X18203324Y-14726574D02*
X18174753Y-14712289D01*
X18160467Y-14683717D01*
X18160467Y-14426574D01*
X18431896Y-14712289D02*
X18403324Y-14726574D01*
X18346181Y-14726574D01*
X18317610Y-14712289D01*
X18303324Y-14683717D01*
X18303324Y-14569431D01*
X18317610Y-14540860D01*
X18346181Y-14526574D01*
X18403324Y-14526574D01*
X18431896Y-14540860D01*
X18446181Y-14569431D01*
X18446181Y-14598003D01*
X18303324Y-14626574D01*
X18560467Y-14712289D02*
X18589038Y-14726574D01*
X18646181Y-14726574D01*
X18674753Y-14712289D01*
X18689038Y-14683717D01*
X18689038Y-14669431D01*
X18674753Y-14640860D01*
X18646181Y-14626574D01*
X18603324Y-14626574D01*
X18574753Y-14612289D01*
X18560467Y-14583717D01*
X18560467Y-14569431D01*
X18574753Y-14540860D01*
X18603324Y-14526574D01*
X18646181Y-14526574D01*
X18674753Y-14540860D01*
X18789038Y-14840860D02*
X18803324Y-14826574D01*
X18831896Y-14783717D01*
X18846181Y-14755146D01*
X18860467Y-14712289D01*
X18874753Y-14640860D01*
X18874753Y-14583717D01*
X18860467Y-14512289D01*
X18846181Y-14469431D01*
X18831896Y-14440860D01*
X18803324Y-14398003D01*
X18789038Y-14383717D01*
M02*
