G04 #@! TF.GenerationSoftware,KiCad,Pcbnew,(6.0.0-rc1-dev-1546-g786ee0e)*
G04 #@! TF.CreationDate,2019-11-08T10:29:52+01:00
G04 #@! TF.ProjectId,quicklogic-quick-feather-board,71756963-6b6c-46f6-9769-632d71756963,rev?*
G04 #@! TF.SameCoordinates,Original*
G04 #@! TF.FileFunction,Copper,L2,Bot*
G04 #@! TF.FilePolarity,Positive*
%FSLAX46Y46*%
G04 Gerber Fmt 4.6, Leading zero omitted, Abs format (unit mm)*
G04 Created by KiCad (PCBNEW (6.0.0-rc1-dev-1546-g786ee0e)) date Fri Nov  8 10:29:52 2019*
%MOMM*%
%LPD*%
G04 APERTURE LIST*
%ADD10C,1.676400*%
%ADD11C,1.930400*%
%ADD12C,0.406400*%
%ADD13C,0.254000*%
G04 APERTURE END LIST*
D10*
X129451100Y-115163600D03*
X131991100Y-115163600D03*
X134531100Y-115163600D03*
X137071100Y-115163600D03*
X139611100Y-115163600D03*
X142151100Y-115163600D03*
X144691100Y-115163600D03*
X147231100Y-115163600D03*
X149771100Y-115163600D03*
X152311100Y-115163600D03*
X154851100Y-115163600D03*
X157391100Y-115163600D03*
X159931100Y-115163600D03*
X162471100Y-115163600D03*
X165011100Y-115163600D03*
X167551100Y-115163600D03*
X167551100Y-94843600D03*
X165011100Y-94843600D03*
X162471100Y-94843600D03*
X159931100Y-94843600D03*
X157391100Y-94843600D03*
X154851100Y-94843600D03*
X152311100Y-94843600D03*
X149771100Y-94843600D03*
X147231100Y-94843600D03*
X144691100Y-94843600D03*
X142151100Y-94843600D03*
X139611100Y-94843600D03*
D11*
X161201100Y-111988600D03*
X163741100Y-111988600D03*
X166281100Y-111988600D03*
X168821100Y-111988600D03*
X161201100Y-98018600D03*
X163741100Y-98018600D03*
X166281100Y-98018600D03*
X168821100Y-98018600D03*
X167551100Y-99923600D03*
X167551100Y-102463600D03*
X170091100Y-102463600D03*
X170091100Y-99923600D03*
X172631100Y-99923600D03*
X172631100Y-102463600D03*
X172631100Y-105003600D03*
X172631100Y-107543600D03*
X170091100Y-107543600D03*
X170091100Y-105003600D03*
X167551100Y-105003600D03*
X167551100Y-107543600D03*
X167551100Y-110083600D03*
X170091100Y-110083600D03*
X165011100Y-110083600D03*
X165011100Y-107543600D03*
X165011100Y-105003600D03*
X165011100Y-102463600D03*
X165011100Y-99923600D03*
X162471100Y-99923600D03*
X162471100Y-102463600D03*
X162471100Y-105003600D03*
X162471100Y-107543600D03*
X162471100Y-110083600D03*
X159931100Y-110083600D03*
X159931100Y-107543600D03*
X159931100Y-105003600D03*
X159931100Y-102463600D03*
X159931100Y-99923600D03*
X157391100Y-99923600D03*
X157391100Y-102463600D03*
X157391100Y-105003600D03*
X157391100Y-107543600D03*
X157391100Y-110083600D03*
X172631100Y-110083600D03*
X154851100Y-102463600D03*
X154851100Y-105003600D03*
X154851100Y-99923600D03*
X154851100Y-107543600D03*
X154851100Y-110083600D03*
D12*
X160820100Y-112369600D02*
X161201100Y-111988600D01*
D13*
X151549100Y-115163600D02*
X152311100Y-115163600D01*
X151676100Y-94843600D02*
X152311100Y-94843600D01*
X149771100Y-94843600D02*
X149263100Y-94843600D01*
X134531100Y-114655600D02*
X134531100Y-115163600D01*
X134531100Y-114782600D02*
X134531100Y-115163600D01*
X146723100Y-94843600D02*
X147231100Y-94843600D01*
X164376100Y-94843600D02*
X165011100Y-94843600D01*
X159169100Y-94843600D02*
X159931100Y-94843600D01*
X154724100Y-94970600D02*
X154851100Y-94843600D01*
M02*
