G04 #@! TF.GenerationSoftware,KiCad,Pcbnew,5.1.4+dfsg1-1~bpo9+1*
G04 #@! TF.CreationDate,2019-11-13T15:03:19+01:00*
G04 #@! TF.ProjectId,quicklogic-quick-feather-board,71756963-6b6c-46f6-9769-632d71756963,rev?*
G04 #@! TF.SameCoordinates,Original*
G04 #@! TF.FileFunction,Legend,Top*
G04 #@! TF.FilePolarity,Positive*
%FSLAX46Y46*%
G04 Gerber Fmt 4.6, Leading zero omitted, Abs format (unit mm)*
G04 Created by KiCad (PCBNEW 5.1.4+dfsg1-1~bpo9+1) date 2019-11-13 15:03:19*
%MOMM*%
%LPD*%
G04 APERTURE LIST*
%ADD10C,0.200000*%
%ADD11C,0.150000*%
%ADD12C,0.100000*%
%ADD13C,0.120000*%
G04 APERTURE END LIST*
D10*
X141129000Y-104688000D02*
G75*
G03X141129000Y-104688000I-100000J0D01*
G01*
D11*
X140879000Y-103688000D02*
X142029000Y-104838000D01*
X143601000Y-104838000D02*
X142995500Y-104838000D01*
X143601000Y-104174000D02*
X143601000Y-104838000D01*
X140879000Y-101882000D02*
X141484500Y-101882000D01*
X140879000Y-102546000D02*
X140879000Y-101882000D01*
X143601000Y-101882000D02*
X142995500Y-101882000D01*
X143601000Y-102546000D02*
X143601000Y-101882000D01*
X140879000Y-101882000D02*
X141484500Y-101882000D01*
X140879000Y-102546000D02*
X140879000Y-101882000D01*
X140879000Y-101882000D02*
X141484500Y-101882000D01*
X140879000Y-102546000D02*
X140879000Y-101882000D01*
D12*
X137800000Y-99585001D02*
X137800000Y-100985001D01*
X139700000Y-101185001D02*
X139400000Y-101185001D01*
X139700000Y-101185001D02*
X140000000Y-101185001D01*
X139700000Y-99385001D02*
X139400000Y-99385001D01*
X139700000Y-99385001D02*
X140000000Y-99385001D01*
D13*
X146550000Y-103330000D02*
X151550000Y-103330000D01*
X145550000Y-98130000D02*
X152150000Y-98130000D01*
X142865000Y-109530000D02*
X144765000Y-109530000D01*
X143090000Y-111830000D02*
X144390000Y-111830000D01*
X147410000Y-109490000D02*
X146810000Y-109490000D01*
X147410000Y-108890000D02*
X146810000Y-108890000D01*
X136340000Y-105310000D02*
X136940000Y-105310000D01*
X136340000Y-104710000D02*
X136940000Y-104710000D01*
X141590000Y-111030000D02*
X141590000Y-111630000D01*
X140990000Y-111030000D02*
X140990000Y-111630000D01*
X129630000Y-103280000D02*
X129630000Y-102680000D01*
X129030000Y-103280000D02*
X129030000Y-102680000D01*
X147050000Y-111710000D02*
X147650000Y-111710000D01*
X147070000Y-110110000D02*
X147670000Y-110110000D01*
X130380000Y-110950000D02*
X131880000Y-110950000D01*
X130380000Y-110950000D02*
X130280000Y-110950000D01*
X130280000Y-110950000D02*
X130180000Y-110950000D01*
X130180000Y-110950000D02*
X130180000Y-111150000D01*
X130180000Y-111150000D02*
X130180000Y-111950000D01*
X130180000Y-111950000D02*
X131880000Y-111950000D01*
D12*
X127345000Y-97285000D02*
X127695000Y-97285000D01*
X127345000Y-99235000D02*
X127695000Y-99235000D01*
X127695000Y-99235000D02*
X127695000Y-97285000D01*
X125045000Y-97535000D02*
X125045000Y-97285000D01*
X125045000Y-97285000D02*
X125295000Y-97285000D01*
X125345000Y-99235000D02*
X125045000Y-99235000D01*
X125045000Y-99235000D02*
X125045000Y-99010000D01*
X127595000Y-99235000D02*
X127595000Y-97285000D01*
X127495000Y-99235000D02*
X127495000Y-97285000D01*
X133150000Y-102615000D02*
X133150000Y-102240000D01*
X133475000Y-102940000D02*
X133475000Y-103465000D01*
X133375000Y-102940000D02*
X133475000Y-102940000D01*
X133150000Y-102615000D02*
X133375000Y-102940000D01*
X136450000Y-100940000D02*
X136450000Y-101265000D01*
X136150000Y-100940000D02*
X136450000Y-100940000D01*
X136450000Y-102940000D02*
X136450000Y-102640000D01*
X136125000Y-102940000D02*
X136450000Y-102940000D01*
X133150000Y-100940000D02*
X133150000Y-101240000D01*
X133475000Y-100940000D02*
X133150000Y-100940000D01*
X123120000Y-109010000D02*
X123120000Y-108510000D01*
X123120000Y-109010000D02*
X123620000Y-109010000D01*
X128370000Y-109010000D02*
X128370000Y-108510000D01*
X128370000Y-109010000D02*
X127870000Y-109010000D01*
X128120000Y-103410000D02*
X126820000Y-103410000D01*
X123120000Y-101010000D02*
X123120000Y-101510000D01*
X123120000Y-101010000D02*
X123670000Y-101010000D01*
X128370000Y-101010000D02*
X128370000Y-101510000D01*
X128370000Y-101010000D02*
X127870000Y-101010000D01*
D11*
X140345666Y-104043333D02*
X139645666Y-104043333D01*
X140279000Y-103310000D02*
X140312333Y-103343333D01*
X140345666Y-103443333D01*
X140345666Y-103510000D01*
X140312333Y-103610000D01*
X140245666Y-103676666D01*
X140179000Y-103710000D01*
X140045666Y-103743333D01*
X139945666Y-103743333D01*
X139812333Y-103710000D01*
X139745666Y-103676666D01*
X139679000Y-103610000D01*
X139645666Y-103510000D01*
X139645666Y-103443333D01*
X139679000Y-103343333D01*
X139712333Y-103310000D01*
X140345666Y-102643333D02*
X140345666Y-103043333D01*
X140345666Y-102843333D02*
X139645666Y-102843333D01*
X139745666Y-102910000D01*
X139812333Y-102976666D01*
X139845666Y-103043333D01*
X139133333Y-97871667D02*
X139600000Y-98571667D01*
X139600000Y-97871667D02*
X139133333Y-98571667D01*
X140233333Y-98571667D02*
X139833333Y-98571667D01*
X140033333Y-98571667D02*
X140033333Y-97871667D01*
X139966666Y-97971667D01*
X139900000Y-98038334D01*
X139833333Y-98071667D01*
X148516666Y-96846666D02*
X148516666Y-97413333D01*
X148550000Y-97480000D01*
X148583333Y-97513333D01*
X148650000Y-97546666D01*
X148783333Y-97546666D01*
X148850000Y-97513333D01*
X148883333Y-97480000D01*
X148916666Y-97413333D01*
X148916666Y-96846666D01*
X149183333Y-96846666D02*
X149616666Y-96846666D01*
X149383333Y-97113333D01*
X149483333Y-97113333D01*
X149550000Y-97146666D01*
X149583333Y-97180000D01*
X149616666Y-97246666D01*
X149616666Y-97413333D01*
X149583333Y-97480000D01*
X149550000Y-97513333D01*
X149483333Y-97546666D01*
X149283333Y-97546666D01*
X149216666Y-97513333D01*
X149183333Y-97480000D01*
X143156666Y-112096666D02*
X143156666Y-112663333D01*
X143190000Y-112730000D01*
X143223333Y-112763333D01*
X143290000Y-112796666D01*
X143423333Y-112796666D01*
X143490000Y-112763333D01*
X143523333Y-112730000D01*
X143556666Y-112663333D01*
X143556666Y-112096666D01*
X144256666Y-112796666D02*
X143856666Y-112796666D01*
X144056666Y-112796666D02*
X144056666Y-112096666D01*
X143990000Y-112196666D01*
X143923333Y-112263333D01*
X143856666Y-112296666D01*
X141740000Y-106856666D02*
X141773333Y-106890000D01*
X141806666Y-106990000D01*
X141806666Y-107056666D01*
X141773333Y-107156666D01*
X141706666Y-107223333D01*
X141640000Y-107256666D01*
X141506666Y-107290000D01*
X141406666Y-107290000D01*
X141273333Y-107256666D01*
X141206666Y-107223333D01*
X141140000Y-107156666D01*
X141106666Y-107056666D01*
X141106666Y-106990000D01*
X141140000Y-106890000D01*
X141173333Y-106856666D01*
X141106666Y-106623333D02*
X141106666Y-106190000D01*
X141373333Y-106423333D01*
X141373333Y-106323333D01*
X141406666Y-106256666D01*
X141440000Y-106223333D01*
X141506666Y-106190000D01*
X141673333Y-106190000D01*
X141740000Y-106223333D01*
X141773333Y-106256666D01*
X141806666Y-106323333D01*
X141806666Y-106523333D01*
X141773333Y-106590000D01*
X141740000Y-106623333D01*
X139476666Y-106956666D02*
X139143333Y-107190000D01*
X139476666Y-107356666D02*
X138776666Y-107356666D01*
X138776666Y-107090000D01*
X138810000Y-107023333D01*
X138843333Y-106990000D01*
X138910000Y-106956666D01*
X139010000Y-106956666D01*
X139076666Y-106990000D01*
X139110000Y-107023333D01*
X139143333Y-107090000D01*
X139143333Y-107356666D01*
X138776666Y-106323333D02*
X138776666Y-106656666D01*
X139110000Y-106690000D01*
X139076666Y-106656666D01*
X139043333Y-106590000D01*
X139043333Y-106423333D01*
X139076666Y-106356666D01*
X139110000Y-106323333D01*
X139176666Y-106290000D01*
X139343333Y-106290000D01*
X139410000Y-106323333D01*
X139443333Y-106356666D01*
X139476666Y-106423333D01*
X139476666Y-106590000D01*
X139443333Y-106656666D01*
X139410000Y-106690000D01*
X140606666Y-106926666D02*
X140273333Y-107160000D01*
X140606666Y-107326666D02*
X139906666Y-107326666D01*
X139906666Y-107060000D01*
X139940000Y-106993333D01*
X139973333Y-106960000D01*
X140040000Y-106926666D01*
X140140000Y-106926666D01*
X140206666Y-106960000D01*
X140240000Y-106993333D01*
X140273333Y-107060000D01*
X140273333Y-107326666D01*
X140140000Y-106326666D02*
X140606666Y-106326666D01*
X139873333Y-106493333D02*
X140373333Y-106660000D01*
X140373333Y-106226666D01*
X134083333Y-110586666D02*
X133850000Y-110253333D01*
X133683333Y-110586666D02*
X133683333Y-109886666D01*
X133950000Y-109886666D01*
X134016666Y-109920000D01*
X134050000Y-109953333D01*
X134083333Y-110020000D01*
X134083333Y-110120000D01*
X134050000Y-110186666D01*
X134016666Y-110220000D01*
X133950000Y-110253333D01*
X133683333Y-110253333D01*
X134316666Y-109886666D02*
X134750000Y-109886666D01*
X134516666Y-110153333D01*
X134616666Y-110153333D01*
X134683333Y-110186666D01*
X134716666Y-110220000D01*
X134750000Y-110286666D01*
X134750000Y-110453333D01*
X134716666Y-110520000D01*
X134683333Y-110553333D01*
X134616666Y-110586666D01*
X134416666Y-110586666D01*
X134350000Y-110553333D01*
X134316666Y-110520000D01*
X132536666Y-103296666D02*
X132203333Y-103530000D01*
X132536666Y-103696666D02*
X131836666Y-103696666D01*
X131836666Y-103430000D01*
X131870000Y-103363333D01*
X131903333Y-103330000D01*
X131970000Y-103296666D01*
X132070000Y-103296666D01*
X132136666Y-103330000D01*
X132170000Y-103363333D01*
X132203333Y-103430000D01*
X132203333Y-103696666D01*
X131903333Y-103030000D02*
X131870000Y-102996666D01*
X131836666Y-102930000D01*
X131836666Y-102763333D01*
X131870000Y-102696666D01*
X131903333Y-102663333D01*
X131970000Y-102630000D01*
X132036666Y-102630000D01*
X132136666Y-102663333D01*
X132536666Y-103063333D01*
X132536666Y-102630000D01*
X143723333Y-107666666D02*
X143490000Y-107333333D01*
X143323333Y-107666666D02*
X143323333Y-106966666D01*
X143590000Y-106966666D01*
X143656666Y-107000000D01*
X143690000Y-107033333D01*
X143723333Y-107100000D01*
X143723333Y-107200000D01*
X143690000Y-107266666D01*
X143656666Y-107300000D01*
X143590000Y-107333333D01*
X143323333Y-107333333D01*
X144390000Y-107666666D02*
X143990000Y-107666666D01*
X144190000Y-107666666D02*
X144190000Y-106966666D01*
X144123333Y-107066666D01*
X144056666Y-107133333D01*
X143990000Y-107166666D01*
X148973333Y-109510000D02*
X148940000Y-109543333D01*
X148840000Y-109576666D01*
X148773333Y-109576666D01*
X148673333Y-109543333D01*
X148606666Y-109476666D01*
X148573333Y-109410000D01*
X148540000Y-109276666D01*
X148540000Y-109176666D01*
X148573333Y-109043333D01*
X148606666Y-108976666D01*
X148673333Y-108910000D01*
X148773333Y-108876666D01*
X148840000Y-108876666D01*
X148940000Y-108910000D01*
X148973333Y-108943333D01*
X149573333Y-109110000D02*
X149573333Y-109576666D01*
X149406666Y-108843333D02*
X149240000Y-109343333D01*
X149673333Y-109343333D01*
X136523333Y-103060000D02*
X136490000Y-103093333D01*
X136390000Y-103126666D01*
X136323333Y-103126666D01*
X136223333Y-103093333D01*
X136156666Y-103026666D01*
X136123333Y-102960000D01*
X136090000Y-102826666D01*
X136090000Y-102726666D01*
X136123333Y-102593333D01*
X136156666Y-102526666D01*
X136223333Y-102460000D01*
X136323333Y-102426666D01*
X136390000Y-102426666D01*
X136490000Y-102460000D01*
X136523333Y-102493333D01*
X136790000Y-102493333D02*
X136823333Y-102460000D01*
X136890000Y-102426666D01*
X137056666Y-102426666D01*
X137123333Y-102460000D01*
X137156666Y-102493333D01*
X137190000Y-102560000D01*
X137190000Y-102626666D01*
X137156666Y-102726666D01*
X136756666Y-103126666D01*
X137190000Y-103126666D01*
X140300000Y-111366666D02*
X140333333Y-111400000D01*
X140366666Y-111500000D01*
X140366666Y-111566666D01*
X140333333Y-111666666D01*
X140266666Y-111733333D01*
X140200000Y-111766666D01*
X140066666Y-111800000D01*
X139966666Y-111800000D01*
X139833333Y-111766666D01*
X139766666Y-111733333D01*
X139700000Y-111666666D01*
X139666666Y-111566666D01*
X139666666Y-111500000D01*
X139700000Y-111400000D01*
X139733333Y-111366666D01*
X140366666Y-110700000D02*
X140366666Y-111100000D01*
X140366666Y-110900000D02*
X139666666Y-110900000D01*
X139766666Y-110966666D01*
X139833333Y-111033333D01*
X139866666Y-111100000D01*
X130870000Y-103126666D02*
X130903333Y-103160000D01*
X130936666Y-103260000D01*
X130936666Y-103326666D01*
X130903333Y-103426666D01*
X130836666Y-103493333D01*
X130770000Y-103526666D01*
X130636666Y-103560000D01*
X130536666Y-103560000D01*
X130403333Y-103526666D01*
X130336666Y-103493333D01*
X130270000Y-103426666D01*
X130236666Y-103326666D01*
X130236666Y-103260000D01*
X130270000Y-103160000D01*
X130303333Y-103126666D01*
X130236666Y-102493333D02*
X130236666Y-102826666D01*
X130570000Y-102860000D01*
X130536666Y-102826666D01*
X130503333Y-102760000D01*
X130503333Y-102593333D01*
X130536666Y-102526666D01*
X130570000Y-102493333D01*
X130636666Y-102460000D01*
X130803333Y-102460000D01*
X130870000Y-102493333D01*
X130903333Y-102526666D01*
X130936666Y-102593333D01*
X130936666Y-102760000D01*
X130903333Y-102826666D01*
X130870000Y-102860000D01*
X149833333Y-111526666D02*
X149500000Y-111526666D01*
X149500000Y-110826666D01*
X150433333Y-111526666D02*
X150033333Y-111526666D01*
X150233333Y-111526666D02*
X150233333Y-110826666D01*
X150166666Y-110926666D01*
X150100000Y-110993333D01*
X150033333Y-111026666D01*
X130913333Y-110446666D02*
X130913333Y-109746666D01*
X131080000Y-109746666D01*
X131180000Y-109780000D01*
X131246666Y-109846666D01*
X131280000Y-109913333D01*
X131313333Y-110046666D01*
X131313333Y-110146666D01*
X131280000Y-110280000D01*
X131246666Y-110346666D01*
X131180000Y-110413333D01*
X131080000Y-110446666D01*
X130913333Y-110446666D01*
X131580000Y-109813333D02*
X131613333Y-109780000D01*
X131680000Y-109746666D01*
X131846666Y-109746666D01*
X131913333Y-109780000D01*
X131946666Y-109813333D01*
X131980000Y-109880000D01*
X131980000Y-109946666D01*
X131946666Y-110046666D01*
X131546666Y-110446666D01*
X131980000Y-110446666D01*
X126853333Y-100576666D02*
X126853333Y-99876666D01*
X127020000Y-99876666D01*
X127120000Y-99910000D01*
X127186666Y-99976666D01*
X127220000Y-100043333D01*
X127253333Y-100176666D01*
X127253333Y-100276666D01*
X127220000Y-100410000D01*
X127186666Y-100476666D01*
X127120000Y-100543333D01*
X127020000Y-100576666D01*
X126853333Y-100576666D01*
X127920000Y-100576666D02*
X127520000Y-100576666D01*
X127720000Y-100576666D02*
X127720000Y-99876666D01*
X127653333Y-99976666D01*
X127586666Y-100043333D01*
X127520000Y-100076666D01*
X134241666Y-98181666D02*
X134241666Y-98748333D01*
X134275000Y-98815000D01*
X134308333Y-98848333D01*
X134375000Y-98881666D01*
X134508333Y-98881666D01*
X134575000Y-98848333D01*
X134608333Y-98815000D01*
X134641666Y-98748333D01*
X134641666Y-98181666D01*
X134941666Y-98248333D02*
X134975000Y-98215000D01*
X135041666Y-98181666D01*
X135208333Y-98181666D01*
X135275000Y-98215000D01*
X135308333Y-98248333D01*
X135341666Y-98315000D01*
X135341666Y-98381666D01*
X135308333Y-98481666D01*
X134908333Y-98881666D01*
X135341666Y-98881666D01*
X123896666Y-111713333D02*
X124396666Y-111713333D01*
X124496666Y-111746666D01*
X124563333Y-111813333D01*
X124596666Y-111913333D01*
X124596666Y-111980000D01*
X123896666Y-111046666D02*
X123896666Y-111380000D01*
X124230000Y-111413333D01*
X124196666Y-111380000D01*
X124163333Y-111313333D01*
X124163333Y-111146666D01*
X124196666Y-111080000D01*
X124230000Y-111046666D01*
X124296666Y-111013333D01*
X124463333Y-111013333D01*
X124530000Y-111046666D01*
X124563333Y-111080000D01*
X124596666Y-111146666D01*
X124596666Y-111313333D01*
X124563333Y-111380000D01*
X124530000Y-111413333D01*
X129429166Y-112736666D02*
X129429166Y-113236666D01*
X129395833Y-113336666D01*
X129329166Y-113403333D01*
X129229166Y-113436666D01*
X129162500Y-113436666D01*
X129762500Y-113436666D02*
X129762500Y-112736666D01*
X130029166Y-112736666D01*
X130095833Y-112770000D01*
X130129166Y-112803333D01*
X130162500Y-112870000D01*
X130162500Y-112970000D01*
X130129166Y-113036666D01*
X130095833Y-113070000D01*
X130029166Y-113103333D01*
X129762500Y-113103333D01*
X130829166Y-113436666D02*
X130429166Y-113436666D01*
X130629166Y-113436666D02*
X130629166Y-112736666D01*
X130562500Y-112836666D01*
X130495833Y-112903333D01*
X130429166Y-112936666D01*
X136424166Y-94376666D02*
X136424166Y-94876666D01*
X136390833Y-94976666D01*
X136324166Y-95043333D01*
X136224166Y-95076666D01*
X136157500Y-95076666D01*
X136757500Y-95076666D02*
X136757500Y-94376666D01*
X137024166Y-94376666D01*
X137090833Y-94410000D01*
X137124166Y-94443333D01*
X137157500Y-94510000D01*
X137157500Y-94610000D01*
X137124166Y-94676666D01*
X137090833Y-94710000D01*
X137024166Y-94743333D01*
X136757500Y-94743333D01*
X137390833Y-94376666D02*
X137824166Y-94376666D01*
X137590833Y-94643333D01*
X137690833Y-94643333D01*
X137757500Y-94676666D01*
X137790833Y-94710000D01*
X137824166Y-94776666D01*
X137824166Y-94943333D01*
X137790833Y-95010000D01*
X137757500Y-95043333D01*
X137690833Y-95076666D01*
X137490833Y-95076666D01*
X137424166Y-95043333D01*
X137390833Y-95010000D01*
M02*
