G04 #@! TF.GenerationSoftware,KiCad,Pcbnew,5.1.4+dfsg1-1~bpo10+1*
G04 #@! TF.CreationDate,2019-11-15T17:22:20+01:00*
G04 #@! TF.ProjectId,quicklogic-quick-feather-board,71756963-6b6c-46f6-9769-632d71756963,rev?*
G04 #@! TF.SameCoordinates,Original*
G04 #@! TF.FileFunction,Soldermask,Bot*
G04 #@! TF.FilePolarity,Negative*
%FSLAX46Y46*%
G04 Gerber Fmt 4.6, Leading zero omitted, Abs format (unit mm)*
G04 Created by KiCad (PCBNEW 5.1.4+dfsg1-1~bpo10+1) date 2019-11-15 17:22:20*
%MOMM*%
%LPD*%
G04 APERTURE LIST*
%ADD10C,0.100000*%
G04 APERTURE END LIST*
D10*
G36*
X129710412Y-114308764D02*
G01*
X129872199Y-114375779D01*
X130017804Y-114473069D01*
X130141631Y-114596896D01*
X130238921Y-114742501D01*
X130305936Y-114904288D01*
X130340100Y-115076041D01*
X130340100Y-115251159D01*
X130305936Y-115422912D01*
X130238921Y-115584699D01*
X130141631Y-115730304D01*
X130017804Y-115854131D01*
X129872199Y-115951421D01*
X129710412Y-116018436D01*
X129538660Y-116052600D01*
X129363540Y-116052600D01*
X129191788Y-116018436D01*
X129030001Y-115951421D01*
X128884396Y-115854131D01*
X128760569Y-115730304D01*
X128663279Y-115584699D01*
X128596264Y-115422912D01*
X128562100Y-115251159D01*
X128562100Y-115076041D01*
X128596264Y-114904288D01*
X128663279Y-114742501D01*
X128760569Y-114596896D01*
X128884396Y-114473069D01*
X129030001Y-114375779D01*
X129191788Y-114308764D01*
X129363540Y-114274600D01*
X129538660Y-114274600D01*
X129710412Y-114308764D01*
X129710412Y-114308764D01*
G37*
G36*
X167810412Y-114308764D02*
G01*
X167972199Y-114375779D01*
X168117804Y-114473069D01*
X168241631Y-114596896D01*
X168338921Y-114742501D01*
X168405936Y-114904288D01*
X168440100Y-115076041D01*
X168440100Y-115251159D01*
X168405936Y-115422912D01*
X168338921Y-115584699D01*
X168241631Y-115730304D01*
X168117804Y-115854131D01*
X167972199Y-115951421D01*
X167810412Y-116018436D01*
X167638660Y-116052600D01*
X167463540Y-116052600D01*
X167291788Y-116018436D01*
X167130001Y-115951421D01*
X166984396Y-115854131D01*
X166860569Y-115730304D01*
X166763279Y-115584699D01*
X166696264Y-115422912D01*
X166662100Y-115251159D01*
X166662100Y-115076041D01*
X166696264Y-114904288D01*
X166763279Y-114742501D01*
X166860569Y-114596896D01*
X166984396Y-114473069D01*
X167130001Y-114375779D01*
X167291788Y-114308764D01*
X167463540Y-114274600D01*
X167638660Y-114274600D01*
X167810412Y-114308764D01*
X167810412Y-114308764D01*
G37*
G36*
X162730412Y-114308764D02*
G01*
X162892199Y-114375779D01*
X163037804Y-114473069D01*
X163161631Y-114596896D01*
X163258921Y-114742501D01*
X163325936Y-114904288D01*
X163360100Y-115076041D01*
X163360100Y-115251159D01*
X163325936Y-115422912D01*
X163258921Y-115584699D01*
X163161631Y-115730304D01*
X163037804Y-115854131D01*
X162892199Y-115951421D01*
X162730412Y-116018436D01*
X162558660Y-116052600D01*
X162383540Y-116052600D01*
X162211788Y-116018436D01*
X162050001Y-115951421D01*
X161904396Y-115854131D01*
X161780569Y-115730304D01*
X161683279Y-115584699D01*
X161616264Y-115422912D01*
X161582100Y-115251159D01*
X161582100Y-115076041D01*
X161616264Y-114904288D01*
X161683279Y-114742501D01*
X161780569Y-114596896D01*
X161904396Y-114473069D01*
X162050001Y-114375779D01*
X162211788Y-114308764D01*
X162383540Y-114274600D01*
X162558660Y-114274600D01*
X162730412Y-114308764D01*
X162730412Y-114308764D01*
G37*
G36*
X160190412Y-114308764D02*
G01*
X160352199Y-114375779D01*
X160497804Y-114473069D01*
X160621631Y-114596896D01*
X160718921Y-114742501D01*
X160785936Y-114904288D01*
X160820100Y-115076041D01*
X160820100Y-115251159D01*
X160785936Y-115422912D01*
X160718921Y-115584699D01*
X160621631Y-115730304D01*
X160497804Y-115854131D01*
X160352199Y-115951421D01*
X160190412Y-116018436D01*
X160018660Y-116052600D01*
X159843540Y-116052600D01*
X159671788Y-116018436D01*
X159510001Y-115951421D01*
X159364396Y-115854131D01*
X159240569Y-115730304D01*
X159143279Y-115584699D01*
X159076264Y-115422912D01*
X159042100Y-115251159D01*
X159042100Y-115076041D01*
X159076264Y-114904288D01*
X159143279Y-114742501D01*
X159240569Y-114596896D01*
X159364396Y-114473069D01*
X159510001Y-114375779D01*
X159671788Y-114308764D01*
X159843540Y-114274600D01*
X160018660Y-114274600D01*
X160190412Y-114308764D01*
X160190412Y-114308764D01*
G37*
G36*
X157650412Y-114308764D02*
G01*
X157812199Y-114375779D01*
X157957804Y-114473069D01*
X158081631Y-114596896D01*
X158178921Y-114742501D01*
X158245936Y-114904288D01*
X158280100Y-115076041D01*
X158280100Y-115251159D01*
X158245936Y-115422912D01*
X158178921Y-115584699D01*
X158081631Y-115730304D01*
X157957804Y-115854131D01*
X157812199Y-115951421D01*
X157650412Y-116018436D01*
X157478660Y-116052600D01*
X157303540Y-116052600D01*
X157131788Y-116018436D01*
X156970001Y-115951421D01*
X156824396Y-115854131D01*
X156700569Y-115730304D01*
X156603279Y-115584699D01*
X156536264Y-115422912D01*
X156502100Y-115251159D01*
X156502100Y-115076041D01*
X156536264Y-114904288D01*
X156603279Y-114742501D01*
X156700569Y-114596896D01*
X156824396Y-114473069D01*
X156970001Y-114375779D01*
X157131788Y-114308764D01*
X157303540Y-114274600D01*
X157478660Y-114274600D01*
X157650412Y-114308764D01*
X157650412Y-114308764D01*
G37*
G36*
X155110412Y-114308764D02*
G01*
X155272199Y-114375779D01*
X155417804Y-114473069D01*
X155541631Y-114596896D01*
X155638921Y-114742501D01*
X155705936Y-114904288D01*
X155740100Y-115076041D01*
X155740100Y-115251159D01*
X155705936Y-115422912D01*
X155638921Y-115584699D01*
X155541631Y-115730304D01*
X155417804Y-115854131D01*
X155272199Y-115951421D01*
X155110412Y-116018436D01*
X154938660Y-116052600D01*
X154763540Y-116052600D01*
X154591788Y-116018436D01*
X154430001Y-115951421D01*
X154284396Y-115854131D01*
X154160569Y-115730304D01*
X154063279Y-115584699D01*
X153996264Y-115422912D01*
X153962100Y-115251159D01*
X153962100Y-115076041D01*
X153996264Y-114904288D01*
X154063279Y-114742501D01*
X154160569Y-114596896D01*
X154284396Y-114473069D01*
X154430001Y-114375779D01*
X154591788Y-114308764D01*
X154763540Y-114274600D01*
X154938660Y-114274600D01*
X155110412Y-114308764D01*
X155110412Y-114308764D01*
G37*
G36*
X152570412Y-114308764D02*
G01*
X152732199Y-114375779D01*
X152877804Y-114473069D01*
X153001631Y-114596896D01*
X153098921Y-114742501D01*
X153165936Y-114904288D01*
X153200100Y-115076041D01*
X153200100Y-115251159D01*
X153165936Y-115422912D01*
X153098921Y-115584699D01*
X153001631Y-115730304D01*
X152877804Y-115854131D01*
X152732199Y-115951421D01*
X152570412Y-116018436D01*
X152398660Y-116052600D01*
X152223540Y-116052600D01*
X152051788Y-116018436D01*
X151890001Y-115951421D01*
X151744396Y-115854131D01*
X151620569Y-115730304D01*
X151523279Y-115584699D01*
X151456264Y-115422912D01*
X151422100Y-115251159D01*
X151422100Y-115076041D01*
X151456264Y-114904288D01*
X151523279Y-114742501D01*
X151620569Y-114596896D01*
X151744396Y-114473069D01*
X151890001Y-114375779D01*
X152051788Y-114308764D01*
X152223540Y-114274600D01*
X152398660Y-114274600D01*
X152570412Y-114308764D01*
X152570412Y-114308764D01*
G37*
G36*
X165270412Y-114308764D02*
G01*
X165432199Y-114375779D01*
X165577804Y-114473069D01*
X165701631Y-114596896D01*
X165798921Y-114742501D01*
X165865936Y-114904288D01*
X165900100Y-115076041D01*
X165900100Y-115251159D01*
X165865936Y-115422912D01*
X165798921Y-115584699D01*
X165701631Y-115730304D01*
X165577804Y-115854131D01*
X165432199Y-115951421D01*
X165270412Y-116018436D01*
X165098660Y-116052600D01*
X164923540Y-116052600D01*
X164751788Y-116018436D01*
X164590001Y-115951421D01*
X164444396Y-115854131D01*
X164320569Y-115730304D01*
X164223279Y-115584699D01*
X164156264Y-115422912D01*
X164122100Y-115251159D01*
X164122100Y-115076041D01*
X164156264Y-114904288D01*
X164223279Y-114742501D01*
X164320569Y-114596896D01*
X164444396Y-114473069D01*
X164590001Y-114375779D01*
X164751788Y-114308764D01*
X164923540Y-114274600D01*
X165098660Y-114274600D01*
X165270412Y-114308764D01*
X165270412Y-114308764D01*
G37*
G36*
X144950412Y-114308764D02*
G01*
X145112199Y-114375779D01*
X145257804Y-114473069D01*
X145381631Y-114596896D01*
X145478921Y-114742501D01*
X145545936Y-114904288D01*
X145580100Y-115076041D01*
X145580100Y-115251159D01*
X145545936Y-115422912D01*
X145478921Y-115584699D01*
X145381631Y-115730304D01*
X145257804Y-115854131D01*
X145112199Y-115951421D01*
X144950412Y-116018436D01*
X144778660Y-116052600D01*
X144603540Y-116052600D01*
X144431788Y-116018436D01*
X144270001Y-115951421D01*
X144124396Y-115854131D01*
X144000569Y-115730304D01*
X143903279Y-115584699D01*
X143836264Y-115422912D01*
X143802100Y-115251159D01*
X143802100Y-115076041D01*
X143836264Y-114904288D01*
X143903279Y-114742501D01*
X144000569Y-114596896D01*
X144124396Y-114473069D01*
X144270001Y-114375779D01*
X144431788Y-114308764D01*
X144603540Y-114274600D01*
X144778660Y-114274600D01*
X144950412Y-114308764D01*
X144950412Y-114308764D01*
G37*
G36*
X142410412Y-114308764D02*
G01*
X142572199Y-114375779D01*
X142717804Y-114473069D01*
X142841631Y-114596896D01*
X142938921Y-114742501D01*
X143005936Y-114904288D01*
X143040100Y-115076041D01*
X143040100Y-115251159D01*
X143005936Y-115422912D01*
X142938921Y-115584699D01*
X142841631Y-115730304D01*
X142717804Y-115854131D01*
X142572199Y-115951421D01*
X142410412Y-116018436D01*
X142238660Y-116052600D01*
X142063540Y-116052600D01*
X141891788Y-116018436D01*
X141730001Y-115951421D01*
X141584396Y-115854131D01*
X141460569Y-115730304D01*
X141363279Y-115584699D01*
X141296264Y-115422912D01*
X141262100Y-115251159D01*
X141262100Y-115076041D01*
X141296264Y-114904288D01*
X141363279Y-114742501D01*
X141460569Y-114596896D01*
X141584396Y-114473069D01*
X141730001Y-114375779D01*
X141891788Y-114308764D01*
X142063540Y-114274600D01*
X142238660Y-114274600D01*
X142410412Y-114308764D01*
X142410412Y-114308764D01*
G37*
G36*
X139870412Y-114308764D02*
G01*
X140032199Y-114375779D01*
X140177804Y-114473069D01*
X140301631Y-114596896D01*
X140398921Y-114742501D01*
X140465936Y-114904288D01*
X140500100Y-115076041D01*
X140500100Y-115251159D01*
X140465936Y-115422912D01*
X140398921Y-115584699D01*
X140301631Y-115730304D01*
X140177804Y-115854131D01*
X140032199Y-115951421D01*
X139870412Y-116018436D01*
X139698660Y-116052600D01*
X139523540Y-116052600D01*
X139351788Y-116018436D01*
X139190001Y-115951421D01*
X139044396Y-115854131D01*
X138920569Y-115730304D01*
X138823279Y-115584699D01*
X138756264Y-115422912D01*
X138722100Y-115251159D01*
X138722100Y-115076041D01*
X138756264Y-114904288D01*
X138823279Y-114742501D01*
X138920569Y-114596896D01*
X139044396Y-114473069D01*
X139190001Y-114375779D01*
X139351788Y-114308764D01*
X139523540Y-114274600D01*
X139698660Y-114274600D01*
X139870412Y-114308764D01*
X139870412Y-114308764D01*
G37*
G36*
X137330412Y-114308764D02*
G01*
X137492199Y-114375779D01*
X137637804Y-114473069D01*
X137761631Y-114596896D01*
X137858921Y-114742501D01*
X137925936Y-114904288D01*
X137960100Y-115076041D01*
X137960100Y-115251159D01*
X137925936Y-115422912D01*
X137858921Y-115584699D01*
X137761631Y-115730304D01*
X137637804Y-115854131D01*
X137492199Y-115951421D01*
X137330412Y-116018436D01*
X137158660Y-116052600D01*
X136983540Y-116052600D01*
X136811788Y-116018436D01*
X136650001Y-115951421D01*
X136504396Y-115854131D01*
X136380569Y-115730304D01*
X136283279Y-115584699D01*
X136216264Y-115422912D01*
X136182100Y-115251159D01*
X136182100Y-115076041D01*
X136216264Y-114904288D01*
X136283279Y-114742501D01*
X136380569Y-114596896D01*
X136504396Y-114473069D01*
X136650001Y-114375779D01*
X136811788Y-114308764D01*
X136983540Y-114274600D01*
X137158660Y-114274600D01*
X137330412Y-114308764D01*
X137330412Y-114308764D01*
G37*
G36*
X134790412Y-114308764D02*
G01*
X134952199Y-114375779D01*
X135097804Y-114473069D01*
X135221631Y-114596896D01*
X135318921Y-114742501D01*
X135385936Y-114904288D01*
X135420100Y-115076041D01*
X135420100Y-115251159D01*
X135385936Y-115422912D01*
X135318921Y-115584699D01*
X135221631Y-115730304D01*
X135097804Y-115854131D01*
X134952199Y-115951421D01*
X134790412Y-116018436D01*
X134618660Y-116052600D01*
X134443540Y-116052600D01*
X134271788Y-116018436D01*
X134110001Y-115951421D01*
X133964396Y-115854131D01*
X133840569Y-115730304D01*
X133743279Y-115584699D01*
X133676264Y-115422912D01*
X133642100Y-115251159D01*
X133642100Y-115076041D01*
X133676264Y-114904288D01*
X133743279Y-114742501D01*
X133840569Y-114596896D01*
X133964396Y-114473069D01*
X134110001Y-114375779D01*
X134271788Y-114308764D01*
X134443540Y-114274600D01*
X134618660Y-114274600D01*
X134790412Y-114308764D01*
X134790412Y-114308764D01*
G37*
G36*
X132250412Y-114308764D02*
G01*
X132412199Y-114375779D01*
X132557804Y-114473069D01*
X132681631Y-114596896D01*
X132778921Y-114742501D01*
X132845936Y-114904288D01*
X132880100Y-115076041D01*
X132880100Y-115251159D01*
X132845936Y-115422912D01*
X132778921Y-115584699D01*
X132681631Y-115730304D01*
X132557804Y-115854131D01*
X132412199Y-115951421D01*
X132250412Y-116018436D01*
X132078660Y-116052600D01*
X131903540Y-116052600D01*
X131731788Y-116018436D01*
X131570001Y-115951421D01*
X131424396Y-115854131D01*
X131300569Y-115730304D01*
X131203279Y-115584699D01*
X131136264Y-115422912D01*
X131102100Y-115251159D01*
X131102100Y-115076041D01*
X131136264Y-114904288D01*
X131203279Y-114742501D01*
X131300569Y-114596896D01*
X131424396Y-114473069D01*
X131570001Y-114375779D01*
X131731788Y-114308764D01*
X131903540Y-114274600D01*
X132078660Y-114274600D01*
X132250412Y-114308764D01*
X132250412Y-114308764D01*
G37*
G36*
X150030412Y-114308764D02*
G01*
X150192199Y-114375779D01*
X150337804Y-114473069D01*
X150461631Y-114596896D01*
X150558921Y-114742501D01*
X150625936Y-114904288D01*
X150660100Y-115076041D01*
X150660100Y-115251159D01*
X150625936Y-115422912D01*
X150558921Y-115584699D01*
X150461631Y-115730304D01*
X150337804Y-115854131D01*
X150192199Y-115951421D01*
X150030412Y-116018436D01*
X149858660Y-116052600D01*
X149683540Y-116052600D01*
X149511788Y-116018436D01*
X149350001Y-115951421D01*
X149204396Y-115854131D01*
X149080569Y-115730304D01*
X148983279Y-115584699D01*
X148916264Y-115422912D01*
X148882100Y-115251159D01*
X148882100Y-115076041D01*
X148916264Y-114904288D01*
X148983279Y-114742501D01*
X149080569Y-114596896D01*
X149204396Y-114473069D01*
X149350001Y-114375779D01*
X149511788Y-114308764D01*
X149683540Y-114274600D01*
X149858660Y-114274600D01*
X150030412Y-114308764D01*
X150030412Y-114308764D01*
G37*
G36*
X147490412Y-114308764D02*
G01*
X147652199Y-114375779D01*
X147797804Y-114473069D01*
X147921631Y-114596896D01*
X148018921Y-114742501D01*
X148085936Y-114904288D01*
X148120100Y-115076041D01*
X148120100Y-115251159D01*
X148085936Y-115422912D01*
X148018921Y-115584699D01*
X147921631Y-115730304D01*
X147797804Y-115854131D01*
X147652199Y-115951421D01*
X147490412Y-116018436D01*
X147318660Y-116052600D01*
X147143540Y-116052600D01*
X146971788Y-116018436D01*
X146810001Y-115951421D01*
X146664396Y-115854131D01*
X146540569Y-115730304D01*
X146443279Y-115584699D01*
X146376264Y-115422912D01*
X146342100Y-115251159D01*
X146342100Y-115076041D01*
X146376264Y-114904288D01*
X146443279Y-114742501D01*
X146540569Y-114596896D01*
X146664396Y-114473069D01*
X146810001Y-114375779D01*
X146971788Y-114308764D01*
X147143540Y-114274600D01*
X147318660Y-114274600D01*
X147490412Y-114308764D01*
X147490412Y-114308764D01*
G37*
G36*
X167810412Y-93988764D02*
G01*
X167972199Y-94055779D01*
X168117804Y-94153069D01*
X168241631Y-94276896D01*
X168338921Y-94422501D01*
X168405936Y-94584288D01*
X168440100Y-94756041D01*
X168440100Y-94931159D01*
X168405936Y-95102912D01*
X168338921Y-95264699D01*
X168241631Y-95410304D01*
X168117804Y-95534131D01*
X167972199Y-95631421D01*
X167810412Y-95698436D01*
X167724535Y-95715518D01*
X167638660Y-95732600D01*
X167463540Y-95732600D01*
X167377665Y-95715518D01*
X167291788Y-95698436D01*
X167130001Y-95631421D01*
X166984396Y-95534131D01*
X166860569Y-95410304D01*
X166763279Y-95264699D01*
X166696264Y-95102912D01*
X166662100Y-94931159D01*
X166662100Y-94756041D01*
X166696264Y-94584288D01*
X166763279Y-94422501D01*
X166860569Y-94276896D01*
X166984396Y-94153069D01*
X167130001Y-94055779D01*
X167291788Y-93988764D01*
X167463540Y-93954600D01*
X167638660Y-93954600D01*
X167810412Y-93988764D01*
X167810412Y-93988764D01*
G37*
G36*
X142410412Y-93988764D02*
G01*
X142572199Y-94055779D01*
X142717804Y-94153069D01*
X142841631Y-94276896D01*
X142938921Y-94422501D01*
X143005936Y-94584288D01*
X143040100Y-94756041D01*
X143040100Y-94931159D01*
X143005936Y-95102912D01*
X142938921Y-95264699D01*
X142841631Y-95410304D01*
X142717804Y-95534131D01*
X142572199Y-95631421D01*
X142410412Y-95698436D01*
X142324535Y-95715518D01*
X142238660Y-95732600D01*
X142063540Y-95732600D01*
X141977665Y-95715518D01*
X141891788Y-95698436D01*
X141730001Y-95631421D01*
X141584396Y-95534131D01*
X141460569Y-95410304D01*
X141363279Y-95264699D01*
X141296264Y-95102912D01*
X141262100Y-94931159D01*
X141262100Y-94756041D01*
X141296264Y-94584288D01*
X141363279Y-94422501D01*
X141460569Y-94276896D01*
X141584396Y-94153069D01*
X141730001Y-94055779D01*
X141891788Y-93988764D01*
X142063540Y-93954600D01*
X142238660Y-93954600D01*
X142410412Y-93988764D01*
X142410412Y-93988764D01*
G37*
G36*
X144950412Y-93988764D02*
G01*
X145112199Y-94055779D01*
X145257804Y-94153069D01*
X145381631Y-94276896D01*
X145478921Y-94422501D01*
X145545936Y-94584288D01*
X145580100Y-94756041D01*
X145580100Y-94931159D01*
X145545936Y-95102912D01*
X145478921Y-95264699D01*
X145381631Y-95410304D01*
X145257804Y-95534131D01*
X145112199Y-95631421D01*
X144950412Y-95698436D01*
X144864535Y-95715518D01*
X144778660Y-95732600D01*
X144603540Y-95732600D01*
X144517665Y-95715518D01*
X144431788Y-95698436D01*
X144270001Y-95631421D01*
X144124396Y-95534131D01*
X144000569Y-95410304D01*
X143903279Y-95264699D01*
X143836264Y-95102912D01*
X143802100Y-94931159D01*
X143802100Y-94756041D01*
X143836264Y-94584288D01*
X143903279Y-94422501D01*
X144000569Y-94276896D01*
X144124396Y-94153069D01*
X144270001Y-94055779D01*
X144431788Y-93988764D01*
X144603540Y-93954600D01*
X144778660Y-93954600D01*
X144950412Y-93988764D01*
X144950412Y-93988764D01*
G37*
G36*
X147490412Y-93988764D02*
G01*
X147652199Y-94055779D01*
X147797804Y-94153069D01*
X147921631Y-94276896D01*
X148018921Y-94422501D01*
X148085936Y-94584288D01*
X148120100Y-94756041D01*
X148120100Y-94931159D01*
X148085936Y-95102912D01*
X148018921Y-95264699D01*
X147921631Y-95410304D01*
X147797804Y-95534131D01*
X147652199Y-95631421D01*
X147490412Y-95698436D01*
X147404535Y-95715518D01*
X147318660Y-95732600D01*
X147143540Y-95732600D01*
X147057665Y-95715518D01*
X146971788Y-95698436D01*
X146810001Y-95631421D01*
X146664396Y-95534131D01*
X146540569Y-95410304D01*
X146443279Y-95264699D01*
X146376264Y-95102912D01*
X146342100Y-94931159D01*
X146342100Y-94756041D01*
X146376264Y-94584288D01*
X146443279Y-94422501D01*
X146540569Y-94276896D01*
X146664396Y-94153069D01*
X146810001Y-94055779D01*
X146971788Y-93988764D01*
X147143540Y-93954600D01*
X147318660Y-93954600D01*
X147490412Y-93988764D01*
X147490412Y-93988764D01*
G37*
G36*
X150030412Y-93988764D02*
G01*
X150192199Y-94055779D01*
X150337804Y-94153069D01*
X150461631Y-94276896D01*
X150558921Y-94422501D01*
X150625936Y-94584288D01*
X150660100Y-94756041D01*
X150660100Y-94931159D01*
X150625936Y-95102912D01*
X150558921Y-95264699D01*
X150461631Y-95410304D01*
X150337804Y-95534131D01*
X150192199Y-95631421D01*
X150030412Y-95698436D01*
X149944535Y-95715518D01*
X149858660Y-95732600D01*
X149683540Y-95732600D01*
X149597665Y-95715518D01*
X149511788Y-95698436D01*
X149350001Y-95631421D01*
X149204396Y-95534131D01*
X149080569Y-95410304D01*
X148983279Y-95264699D01*
X148916264Y-95102912D01*
X148882100Y-94931159D01*
X148882100Y-94756041D01*
X148916264Y-94584288D01*
X148983279Y-94422501D01*
X149080569Y-94276896D01*
X149204396Y-94153069D01*
X149350001Y-94055779D01*
X149511788Y-93988764D01*
X149683540Y-93954600D01*
X149858660Y-93954600D01*
X150030412Y-93988764D01*
X150030412Y-93988764D01*
G37*
G36*
X152570412Y-93988764D02*
G01*
X152732199Y-94055779D01*
X152877804Y-94153069D01*
X153001631Y-94276896D01*
X153098921Y-94422501D01*
X153165936Y-94584288D01*
X153200100Y-94756041D01*
X153200100Y-94931159D01*
X153165936Y-95102912D01*
X153098921Y-95264699D01*
X153001631Y-95410304D01*
X152877804Y-95534131D01*
X152732199Y-95631421D01*
X152570412Y-95698436D01*
X152484535Y-95715518D01*
X152398660Y-95732600D01*
X152223540Y-95732600D01*
X152137665Y-95715518D01*
X152051788Y-95698436D01*
X151890001Y-95631421D01*
X151744396Y-95534131D01*
X151620569Y-95410304D01*
X151523279Y-95264699D01*
X151456264Y-95102912D01*
X151422100Y-94931159D01*
X151422100Y-94756041D01*
X151456264Y-94584288D01*
X151523279Y-94422501D01*
X151620569Y-94276896D01*
X151744396Y-94153069D01*
X151890001Y-94055779D01*
X152051788Y-93988764D01*
X152223540Y-93954600D01*
X152398660Y-93954600D01*
X152570412Y-93988764D01*
X152570412Y-93988764D01*
G37*
G36*
X155110412Y-93988764D02*
G01*
X155272199Y-94055779D01*
X155417804Y-94153069D01*
X155541631Y-94276896D01*
X155638921Y-94422501D01*
X155705936Y-94584288D01*
X155740100Y-94756041D01*
X155740100Y-94931159D01*
X155705936Y-95102912D01*
X155638921Y-95264699D01*
X155541631Y-95410304D01*
X155417804Y-95534131D01*
X155272199Y-95631421D01*
X155110412Y-95698436D01*
X155024535Y-95715518D01*
X154938660Y-95732600D01*
X154763540Y-95732600D01*
X154677665Y-95715518D01*
X154591788Y-95698436D01*
X154430001Y-95631421D01*
X154284396Y-95534131D01*
X154160569Y-95410304D01*
X154063279Y-95264699D01*
X153996264Y-95102912D01*
X153962100Y-94931159D01*
X153962100Y-94756041D01*
X153996264Y-94584288D01*
X154063279Y-94422501D01*
X154160569Y-94276896D01*
X154284396Y-94153069D01*
X154430001Y-94055779D01*
X154591788Y-93988764D01*
X154763540Y-93954600D01*
X154938660Y-93954600D01*
X155110412Y-93988764D01*
X155110412Y-93988764D01*
G37*
G36*
X157650412Y-93988764D02*
G01*
X157812199Y-94055779D01*
X157957804Y-94153069D01*
X158081631Y-94276896D01*
X158178921Y-94422501D01*
X158245936Y-94584288D01*
X158280100Y-94756041D01*
X158280100Y-94931159D01*
X158245936Y-95102912D01*
X158178921Y-95264699D01*
X158081631Y-95410304D01*
X157957804Y-95534131D01*
X157812199Y-95631421D01*
X157650412Y-95698436D01*
X157564535Y-95715518D01*
X157478660Y-95732600D01*
X157303540Y-95732600D01*
X157217665Y-95715518D01*
X157131788Y-95698436D01*
X156970001Y-95631421D01*
X156824396Y-95534131D01*
X156700569Y-95410304D01*
X156603279Y-95264699D01*
X156536264Y-95102912D01*
X156502100Y-94931159D01*
X156502100Y-94756041D01*
X156536264Y-94584288D01*
X156603279Y-94422501D01*
X156700569Y-94276896D01*
X156824396Y-94153069D01*
X156970001Y-94055779D01*
X157131788Y-93988764D01*
X157303540Y-93954600D01*
X157478660Y-93954600D01*
X157650412Y-93988764D01*
X157650412Y-93988764D01*
G37*
G36*
X160190412Y-93988764D02*
G01*
X160352199Y-94055779D01*
X160497804Y-94153069D01*
X160621631Y-94276896D01*
X160718921Y-94422501D01*
X160785936Y-94584288D01*
X160820100Y-94756041D01*
X160820100Y-94931159D01*
X160785936Y-95102912D01*
X160718921Y-95264699D01*
X160621631Y-95410304D01*
X160497804Y-95534131D01*
X160352199Y-95631421D01*
X160190412Y-95698436D01*
X160104535Y-95715518D01*
X160018660Y-95732600D01*
X159843540Y-95732600D01*
X159757665Y-95715518D01*
X159671788Y-95698436D01*
X159510001Y-95631421D01*
X159364396Y-95534131D01*
X159240569Y-95410304D01*
X159143279Y-95264699D01*
X159076264Y-95102912D01*
X159042100Y-94931159D01*
X159042100Y-94756041D01*
X159076264Y-94584288D01*
X159143279Y-94422501D01*
X159240569Y-94276896D01*
X159364396Y-94153069D01*
X159510001Y-94055779D01*
X159671788Y-93988764D01*
X159843540Y-93954600D01*
X160018660Y-93954600D01*
X160190412Y-93988764D01*
X160190412Y-93988764D01*
G37*
G36*
X162730412Y-93988764D02*
G01*
X162892199Y-94055779D01*
X163037804Y-94153069D01*
X163161631Y-94276896D01*
X163258921Y-94422501D01*
X163325936Y-94584288D01*
X163360100Y-94756041D01*
X163360100Y-94931159D01*
X163325936Y-95102912D01*
X163258921Y-95264699D01*
X163161631Y-95410304D01*
X163037804Y-95534131D01*
X162892199Y-95631421D01*
X162730412Y-95698436D01*
X162644535Y-95715518D01*
X162558660Y-95732600D01*
X162383540Y-95732600D01*
X162297665Y-95715518D01*
X162211788Y-95698436D01*
X162050001Y-95631421D01*
X161904396Y-95534131D01*
X161780569Y-95410304D01*
X161683279Y-95264699D01*
X161616264Y-95102912D01*
X161582100Y-94931159D01*
X161582100Y-94756041D01*
X161616264Y-94584288D01*
X161683279Y-94422501D01*
X161780569Y-94276896D01*
X161904396Y-94153069D01*
X162050001Y-94055779D01*
X162211788Y-93988764D01*
X162383540Y-93954600D01*
X162558660Y-93954600D01*
X162730412Y-93988764D01*
X162730412Y-93988764D01*
G37*
G36*
X165270412Y-93988764D02*
G01*
X165432199Y-94055779D01*
X165577804Y-94153069D01*
X165701631Y-94276896D01*
X165798921Y-94422501D01*
X165865936Y-94584288D01*
X165900100Y-94756041D01*
X165900100Y-94931159D01*
X165865936Y-95102912D01*
X165798921Y-95264699D01*
X165701631Y-95410304D01*
X165577804Y-95534131D01*
X165432199Y-95631421D01*
X165270412Y-95698436D01*
X165184535Y-95715518D01*
X165098660Y-95732600D01*
X164923540Y-95732600D01*
X164837665Y-95715518D01*
X164751788Y-95698436D01*
X164590001Y-95631421D01*
X164444396Y-95534131D01*
X164320569Y-95410304D01*
X164223279Y-95264699D01*
X164156264Y-95102912D01*
X164122100Y-94931159D01*
X164122100Y-94756041D01*
X164156264Y-94584288D01*
X164223279Y-94422501D01*
X164320569Y-94276896D01*
X164444396Y-94153069D01*
X164590001Y-94055779D01*
X164751788Y-93988764D01*
X164923540Y-93954600D01*
X165098660Y-93954600D01*
X165270412Y-93988764D01*
X165270412Y-93988764D01*
G37*
G36*
X139870412Y-93988764D02*
G01*
X140032199Y-94055779D01*
X140177804Y-94153069D01*
X140301631Y-94276896D01*
X140398921Y-94422501D01*
X140465936Y-94584288D01*
X140500100Y-94756041D01*
X140500100Y-94931159D01*
X140465936Y-95102912D01*
X140398921Y-95264699D01*
X140301631Y-95410304D01*
X140177804Y-95534131D01*
X140032199Y-95631421D01*
X139870412Y-95698436D01*
X139784535Y-95715518D01*
X139698660Y-95732600D01*
X139523540Y-95732600D01*
X139437665Y-95715518D01*
X139351788Y-95698436D01*
X139190001Y-95631421D01*
X139044396Y-95534131D01*
X138920569Y-95410304D01*
X138823279Y-95264699D01*
X138756264Y-95102912D01*
X138722100Y-94931159D01*
X138722100Y-94756041D01*
X138756264Y-94584288D01*
X138823279Y-94422501D01*
X138920569Y-94276896D01*
X139044396Y-94153069D01*
X139190001Y-94055779D01*
X139351788Y-93988764D01*
X139523540Y-93954600D01*
X139698660Y-93954600D01*
X139870412Y-93988764D01*
X139870412Y-93988764D01*
G37*
M02*
