M48
; DRILL file {KiCad 5.1.4+dfsg1-1~bpo10+1} date Fri Nov 15 17:21:58 2019
; FORMAT={-:-/ absolute / metric / decimal}
; #@! TF.CreationDate,2019-11-15T17:21:58+01:00
; #@! TF.GenerationSoftware,Kicad,Pcbnew,5.1.4+dfsg1-1~bpo10+1
; #@! TF.FileFunction,Plated,1,4,PTH
FMAT,2
METRIC
T1C1.000
T2C1.100
T3C1.200
%
G90
G05
T1
X139.611Y-94.844
X142.151Y-94.844
X144.691Y-94.844
X147.231Y-94.844
X149.771Y-94.844
X152.311Y-94.844
X154.851Y-94.844
X157.391Y-94.844
X159.931Y-94.844
X162.471Y-94.844
X165.011Y-94.844
X167.551Y-94.844
X129.451Y-115.164
X131.991Y-115.164
X134.531Y-115.164
X137.071Y-115.164
X139.611Y-115.164
X142.151Y-115.164
X144.691Y-115.164
X147.231Y-115.164
X149.771Y-115.164
X152.311Y-115.164
X154.851Y-115.164
X157.391Y-115.164
X159.931Y-115.164
X162.471Y-115.164
X165.011Y-115.164
X167.551Y-115.164
T2
X161.201Y-98.019
X161.201Y-111.989
X163.741Y-98.019
X163.741Y-111.989
X166.281Y-98.019
X166.281Y-111.989
X168.821Y-98.019
X168.821Y-111.989
T3
X154.851Y-99.924
X154.851Y-102.464
X154.851Y-105.004
X154.851Y-107.544
X154.851Y-110.084
X157.391Y-99.924
X157.391Y-102.464
X157.391Y-105.004
X157.391Y-107.544
X157.391Y-110.084
X159.931Y-99.924
X159.931Y-102.464
X159.931Y-105.004
X159.931Y-107.544
X159.931Y-110.084
X162.471Y-99.924
X162.471Y-102.464
X162.471Y-105.004
X162.471Y-107.544
X162.471Y-110.084
X165.011Y-99.924
X165.011Y-102.464
X165.011Y-105.004
X165.011Y-107.544
X165.011Y-110.084
X167.551Y-99.924
X167.551Y-102.464
X167.551Y-105.004
X167.551Y-107.544
X167.551Y-110.084
X170.091Y-99.924
X170.091Y-102.464
X170.091Y-105.004
X170.091Y-107.544
X170.091Y-110.084
X172.631Y-99.924
X172.631Y-102.464
X172.631Y-105.004
X172.631Y-107.544
X172.631Y-110.084
T0
M30
