G04 #@! TF.GenerationSoftware,KiCad,Pcbnew,(6.0.0-rc1-dev-1546-g786ee0e)*
G04 #@! TF.CreationDate,2019-11-08T10:29:52+01:00
G04 #@! TF.ProjectId,quicklogic-quick-feather-board,71756963-6b6c-46f6-9769-632d71756963,rev?*
G04 #@! TF.SameCoordinates,Original*
G04 #@! TF.FileFunction,Paste,Top*
G04 #@! TF.FilePolarity,Positive*
%FSLAX46Y46*%
G04 Gerber Fmt 4.6, Leading zero omitted, Abs format (unit mm)*
G04 Created by KiCad (PCBNEW (6.0.0-rc1-dev-1546-g786ee0e)) date Fri Nov  8 10:29:52 2019*
%MOMM*%
%LPD*%
G04 APERTURE LIST*
%ADD10R,1.100000X1.900000*%
%ADD11R,0.800000X0.800000*%
%ADD12R,1.100000X0.500000*%
%ADD13C,0.100000*%
%ADD14C,0.590000*%
%ADD15R,0.550000X0.250000*%
%ADD16R,0.600000X0.800000*%
%ADD17R,0.800000X0.600000*%
%ADD18R,1.200000X1.200000*%
%ADD19R,0.900000X0.950000*%
%ADD20R,0.600000X1.050000*%
%ADD21C,0.211000*%
%ADD22R,2.100000X1.475000*%
%ADD23R,1.900000X1.175000*%
%ADD24R,1.900000X2.375000*%
%ADD25R,1.380000X0.450000*%
G04 APERTURE END LIST*
D10*
X140905000Y-100285001D03*
X138495000Y-100285001D03*
D11*
X148025000Y-102255000D03*
X149025000Y-102255000D03*
X150025000Y-102255000D03*
X148025000Y-101255000D03*
X149025000Y-101255000D03*
X150025000Y-101255000D03*
X148025000Y-100255000D03*
X149025000Y-100255000D03*
X150025000Y-100255000D03*
X150025000Y-99255000D03*
X149025000Y-99255000D03*
X148025000Y-99255000D03*
D12*
X151950000Y-98825000D03*
X151950000Y-100095000D03*
X151950000Y-101365000D03*
X151950000Y-102635000D03*
X146150000Y-102635000D03*
X146150000Y-101365000D03*
X146150000Y-100095000D03*
X146150000Y-98825000D03*
D13*
G36*
X142941959Y-124855711D02*
G01*
X142956277Y-124857835D01*
X142970318Y-124861352D01*
X142983947Y-124866229D01*
X142997032Y-124872418D01*
X143009448Y-124879859D01*
X143021074Y-124888482D01*
X143031799Y-124898203D01*
X143041520Y-124908928D01*
X143050143Y-124920554D01*
X143057584Y-124932970D01*
X143063773Y-124946055D01*
X143068650Y-124959684D01*
X143072167Y-124973725D01*
X143074291Y-124988043D01*
X143075001Y-125002501D01*
X143075001Y-125347501D01*
X143074291Y-125361959D01*
X143072167Y-125376277D01*
X143068650Y-125390318D01*
X143063773Y-125403947D01*
X143057584Y-125417032D01*
X143050143Y-125429448D01*
X143041520Y-125441074D01*
X143031799Y-125451799D01*
X143021074Y-125461520D01*
X143009448Y-125470143D01*
X142997032Y-125477584D01*
X142983947Y-125483773D01*
X142970318Y-125488650D01*
X142956277Y-125492167D01*
X142941959Y-125494291D01*
X142927501Y-125495001D01*
X142632501Y-125495001D01*
X142618043Y-125494291D01*
X142603725Y-125492167D01*
X142589684Y-125488650D01*
X142576055Y-125483773D01*
X142562970Y-125477584D01*
X142550554Y-125470143D01*
X142538928Y-125461520D01*
X142528203Y-125451799D01*
X142518482Y-125441074D01*
X142509859Y-125429448D01*
X142502418Y-125417032D01*
X142496229Y-125403947D01*
X142491352Y-125390318D01*
X142487835Y-125376277D01*
X142485711Y-125361959D01*
X142485001Y-125347501D01*
X142485001Y-125002501D01*
X142485711Y-124988043D01*
X142487835Y-124973725D01*
X142491352Y-124959684D01*
X142496229Y-124946055D01*
X142502418Y-124932970D01*
X142509859Y-124920554D01*
X142518482Y-124908928D01*
X142528203Y-124898203D01*
X142538928Y-124888482D01*
X142550554Y-124879859D01*
X142562970Y-124872418D01*
X142576055Y-124866229D01*
X142589684Y-124861352D01*
X142603725Y-124857835D01*
X142618043Y-124855711D01*
X142632501Y-124855001D01*
X142927501Y-124855001D01*
X142941959Y-124855711D01*
X142941959Y-124855711D01*
G37*
D14*
X142780001Y-125175001D03*
D13*
G36*
X143911959Y-124855711D02*
G01*
X143926277Y-124857835D01*
X143940318Y-124861352D01*
X143953947Y-124866229D01*
X143967032Y-124872418D01*
X143979448Y-124879859D01*
X143991074Y-124888482D01*
X144001799Y-124898203D01*
X144011520Y-124908928D01*
X144020143Y-124920554D01*
X144027584Y-124932970D01*
X144033773Y-124946055D01*
X144038650Y-124959684D01*
X144042167Y-124973725D01*
X144044291Y-124988043D01*
X144045001Y-125002501D01*
X144045001Y-125347501D01*
X144044291Y-125361959D01*
X144042167Y-125376277D01*
X144038650Y-125390318D01*
X144033773Y-125403947D01*
X144027584Y-125417032D01*
X144020143Y-125429448D01*
X144011520Y-125441074D01*
X144001799Y-125451799D01*
X143991074Y-125461520D01*
X143979448Y-125470143D01*
X143967032Y-125477584D01*
X143953947Y-125483773D01*
X143940318Y-125488650D01*
X143926277Y-125492167D01*
X143911959Y-125494291D01*
X143897501Y-125495001D01*
X143602501Y-125495001D01*
X143588043Y-125494291D01*
X143573725Y-125492167D01*
X143559684Y-125488650D01*
X143546055Y-125483773D01*
X143532970Y-125477584D01*
X143520554Y-125470143D01*
X143508928Y-125461520D01*
X143498203Y-125451799D01*
X143488482Y-125441074D01*
X143479859Y-125429448D01*
X143472418Y-125417032D01*
X143466229Y-125403947D01*
X143461352Y-125390318D01*
X143457835Y-125376277D01*
X143455711Y-125361959D01*
X143455001Y-125347501D01*
X143455001Y-125002501D01*
X143455711Y-124988043D01*
X143457835Y-124973725D01*
X143461352Y-124959684D01*
X143466229Y-124946055D01*
X143472418Y-124932970D01*
X143479859Y-124920554D01*
X143488482Y-124908928D01*
X143498203Y-124898203D01*
X143508928Y-124888482D01*
X143520554Y-124879859D01*
X143532970Y-124872418D01*
X143546055Y-124866229D01*
X143559684Y-124861352D01*
X143573725Y-124857835D01*
X143588043Y-124855711D01*
X143602501Y-124855001D01*
X143897501Y-124855001D01*
X143911959Y-124855711D01*
X143911959Y-124855711D01*
G37*
D14*
X143750001Y-125175001D03*
D13*
G36*
X142391959Y-126075711D02*
G01*
X142406277Y-126077835D01*
X142420318Y-126081352D01*
X142433947Y-126086229D01*
X142447032Y-126092418D01*
X142459448Y-126099859D01*
X142471074Y-126108482D01*
X142481799Y-126118203D01*
X142491520Y-126128928D01*
X142500143Y-126140554D01*
X142507584Y-126152970D01*
X142513773Y-126166055D01*
X142518650Y-126179684D01*
X142522167Y-126193725D01*
X142524291Y-126208043D01*
X142525001Y-126222501D01*
X142525001Y-126567501D01*
X142524291Y-126581959D01*
X142522167Y-126596277D01*
X142518650Y-126610318D01*
X142513773Y-126623947D01*
X142507584Y-126637032D01*
X142500143Y-126649448D01*
X142491520Y-126661074D01*
X142481799Y-126671799D01*
X142471074Y-126681520D01*
X142459448Y-126690143D01*
X142447032Y-126697584D01*
X142433947Y-126703773D01*
X142420318Y-126708650D01*
X142406277Y-126712167D01*
X142391959Y-126714291D01*
X142377501Y-126715001D01*
X142082501Y-126715001D01*
X142068043Y-126714291D01*
X142053725Y-126712167D01*
X142039684Y-126708650D01*
X142026055Y-126703773D01*
X142012970Y-126697584D01*
X142000554Y-126690143D01*
X141988928Y-126681520D01*
X141978203Y-126671799D01*
X141968482Y-126661074D01*
X141959859Y-126649448D01*
X141952418Y-126637032D01*
X141946229Y-126623947D01*
X141941352Y-126610318D01*
X141937835Y-126596277D01*
X141935711Y-126581959D01*
X141935001Y-126567501D01*
X141935001Y-126222501D01*
X141935711Y-126208043D01*
X141937835Y-126193725D01*
X141941352Y-126179684D01*
X141946229Y-126166055D01*
X141952418Y-126152970D01*
X141959859Y-126140554D01*
X141968482Y-126128928D01*
X141978203Y-126118203D01*
X141988928Y-126108482D01*
X142000554Y-126099859D01*
X142012970Y-126092418D01*
X142026055Y-126086229D01*
X142039684Y-126081352D01*
X142053725Y-126077835D01*
X142068043Y-126075711D01*
X142082501Y-126075001D01*
X142377501Y-126075001D01*
X142391959Y-126075711D01*
X142391959Y-126075711D01*
G37*
D14*
X142230001Y-126395001D03*
D13*
G36*
X141421959Y-126075711D02*
G01*
X141436277Y-126077835D01*
X141450318Y-126081352D01*
X141463947Y-126086229D01*
X141477032Y-126092418D01*
X141489448Y-126099859D01*
X141501074Y-126108482D01*
X141511799Y-126118203D01*
X141521520Y-126128928D01*
X141530143Y-126140554D01*
X141537584Y-126152970D01*
X141543773Y-126166055D01*
X141548650Y-126179684D01*
X141552167Y-126193725D01*
X141554291Y-126208043D01*
X141555001Y-126222501D01*
X141555001Y-126567501D01*
X141554291Y-126581959D01*
X141552167Y-126596277D01*
X141548650Y-126610318D01*
X141543773Y-126623947D01*
X141537584Y-126637032D01*
X141530143Y-126649448D01*
X141521520Y-126661074D01*
X141511799Y-126671799D01*
X141501074Y-126681520D01*
X141489448Y-126690143D01*
X141477032Y-126697584D01*
X141463947Y-126703773D01*
X141450318Y-126708650D01*
X141436277Y-126712167D01*
X141421959Y-126714291D01*
X141407501Y-126715001D01*
X141112501Y-126715001D01*
X141098043Y-126714291D01*
X141083725Y-126712167D01*
X141069684Y-126708650D01*
X141056055Y-126703773D01*
X141042970Y-126697584D01*
X141030554Y-126690143D01*
X141018928Y-126681520D01*
X141008203Y-126671799D01*
X140998482Y-126661074D01*
X140989859Y-126649448D01*
X140982418Y-126637032D01*
X140976229Y-126623947D01*
X140971352Y-126610318D01*
X140967835Y-126596277D01*
X140965711Y-126581959D01*
X140965001Y-126567501D01*
X140965001Y-126222501D01*
X140965711Y-126208043D01*
X140967835Y-126193725D01*
X140971352Y-126179684D01*
X140976229Y-126166055D01*
X140982418Y-126152970D01*
X140989859Y-126140554D01*
X140998482Y-126128928D01*
X141008203Y-126118203D01*
X141018928Y-126108482D01*
X141030554Y-126099859D01*
X141042970Y-126092418D01*
X141056055Y-126086229D01*
X141069684Y-126081352D01*
X141083725Y-126077835D01*
X141098043Y-126075711D01*
X141112501Y-126075001D01*
X141407501Y-126075001D01*
X141421959Y-126075711D01*
X141421959Y-126075711D01*
G37*
D14*
X141260001Y-126395001D03*
D13*
G36*
X144851959Y-122875711D02*
G01*
X144866277Y-122877835D01*
X144880318Y-122881352D01*
X144893947Y-122886229D01*
X144907032Y-122892418D01*
X144919448Y-122899859D01*
X144931074Y-122908482D01*
X144941799Y-122918203D01*
X144951520Y-122928928D01*
X144960143Y-122940554D01*
X144967584Y-122952970D01*
X144973773Y-122966055D01*
X144978650Y-122979684D01*
X144982167Y-122993725D01*
X144984291Y-123008043D01*
X144985001Y-123022501D01*
X144985001Y-123367501D01*
X144984291Y-123381959D01*
X144982167Y-123396277D01*
X144978650Y-123410318D01*
X144973773Y-123423947D01*
X144967584Y-123437032D01*
X144960143Y-123449448D01*
X144951520Y-123461074D01*
X144941799Y-123471799D01*
X144931074Y-123481520D01*
X144919448Y-123490143D01*
X144907032Y-123497584D01*
X144893947Y-123503773D01*
X144880318Y-123508650D01*
X144866277Y-123512167D01*
X144851959Y-123514291D01*
X144837501Y-123515001D01*
X144542501Y-123515001D01*
X144528043Y-123514291D01*
X144513725Y-123512167D01*
X144499684Y-123508650D01*
X144486055Y-123503773D01*
X144472970Y-123497584D01*
X144460554Y-123490143D01*
X144448928Y-123481520D01*
X144438203Y-123471799D01*
X144428482Y-123461074D01*
X144419859Y-123449448D01*
X144412418Y-123437032D01*
X144406229Y-123423947D01*
X144401352Y-123410318D01*
X144397835Y-123396277D01*
X144395711Y-123381959D01*
X144395001Y-123367501D01*
X144395001Y-123022501D01*
X144395711Y-123008043D01*
X144397835Y-122993725D01*
X144401352Y-122979684D01*
X144406229Y-122966055D01*
X144412418Y-122952970D01*
X144419859Y-122940554D01*
X144428482Y-122928928D01*
X144438203Y-122918203D01*
X144448928Y-122908482D01*
X144460554Y-122899859D01*
X144472970Y-122892418D01*
X144486055Y-122886229D01*
X144499684Y-122881352D01*
X144513725Y-122877835D01*
X144528043Y-122875711D01*
X144542501Y-122875001D01*
X144837501Y-122875001D01*
X144851959Y-122875711D01*
X144851959Y-122875711D01*
G37*
D14*
X144690001Y-123195001D03*
D13*
G36*
X145821959Y-122875711D02*
G01*
X145836277Y-122877835D01*
X145850318Y-122881352D01*
X145863947Y-122886229D01*
X145877032Y-122892418D01*
X145889448Y-122899859D01*
X145901074Y-122908482D01*
X145911799Y-122918203D01*
X145921520Y-122928928D01*
X145930143Y-122940554D01*
X145937584Y-122952970D01*
X145943773Y-122966055D01*
X145948650Y-122979684D01*
X145952167Y-122993725D01*
X145954291Y-123008043D01*
X145955001Y-123022501D01*
X145955001Y-123367501D01*
X145954291Y-123381959D01*
X145952167Y-123396277D01*
X145948650Y-123410318D01*
X145943773Y-123423947D01*
X145937584Y-123437032D01*
X145930143Y-123449448D01*
X145921520Y-123461074D01*
X145911799Y-123471799D01*
X145901074Y-123481520D01*
X145889448Y-123490143D01*
X145877032Y-123497584D01*
X145863947Y-123503773D01*
X145850318Y-123508650D01*
X145836277Y-123512167D01*
X145821959Y-123514291D01*
X145807501Y-123515001D01*
X145512501Y-123515001D01*
X145498043Y-123514291D01*
X145483725Y-123512167D01*
X145469684Y-123508650D01*
X145456055Y-123503773D01*
X145442970Y-123497584D01*
X145430554Y-123490143D01*
X145418928Y-123481520D01*
X145408203Y-123471799D01*
X145398482Y-123461074D01*
X145389859Y-123449448D01*
X145382418Y-123437032D01*
X145376229Y-123423947D01*
X145371352Y-123410318D01*
X145367835Y-123396277D01*
X145365711Y-123381959D01*
X145365001Y-123367501D01*
X145365001Y-123022501D01*
X145365711Y-123008043D01*
X145367835Y-122993725D01*
X145371352Y-122979684D01*
X145376229Y-122966055D01*
X145382418Y-122952970D01*
X145389859Y-122940554D01*
X145398482Y-122928928D01*
X145408203Y-122918203D01*
X145418928Y-122908482D01*
X145430554Y-122899859D01*
X145442970Y-122892418D01*
X145456055Y-122886229D01*
X145469684Y-122881352D01*
X145483725Y-122877835D01*
X145498043Y-122875711D01*
X145512501Y-122875001D01*
X145807501Y-122875001D01*
X145821959Y-122875711D01*
X145821959Y-122875711D01*
G37*
D14*
X145660001Y-123195001D03*
D13*
G36*
X142941959Y-123865711D02*
G01*
X142956277Y-123867835D01*
X142970318Y-123871352D01*
X142983947Y-123876229D01*
X142997032Y-123882418D01*
X143009448Y-123889859D01*
X143021074Y-123898482D01*
X143031799Y-123908203D01*
X143041520Y-123918928D01*
X143050143Y-123930554D01*
X143057584Y-123942970D01*
X143063773Y-123956055D01*
X143068650Y-123969684D01*
X143072167Y-123983725D01*
X143074291Y-123998043D01*
X143075001Y-124012501D01*
X143075001Y-124357501D01*
X143074291Y-124371959D01*
X143072167Y-124386277D01*
X143068650Y-124400318D01*
X143063773Y-124413947D01*
X143057584Y-124427032D01*
X143050143Y-124439448D01*
X143041520Y-124451074D01*
X143031799Y-124461799D01*
X143021074Y-124471520D01*
X143009448Y-124480143D01*
X142997032Y-124487584D01*
X142983947Y-124493773D01*
X142970318Y-124498650D01*
X142956277Y-124502167D01*
X142941959Y-124504291D01*
X142927501Y-124505001D01*
X142632501Y-124505001D01*
X142618043Y-124504291D01*
X142603725Y-124502167D01*
X142589684Y-124498650D01*
X142576055Y-124493773D01*
X142562970Y-124487584D01*
X142550554Y-124480143D01*
X142538928Y-124471520D01*
X142528203Y-124461799D01*
X142518482Y-124451074D01*
X142509859Y-124439448D01*
X142502418Y-124427032D01*
X142496229Y-124413947D01*
X142491352Y-124400318D01*
X142487835Y-124386277D01*
X142485711Y-124371959D01*
X142485001Y-124357501D01*
X142485001Y-124012501D01*
X142485711Y-123998043D01*
X142487835Y-123983725D01*
X142491352Y-123969684D01*
X142496229Y-123956055D01*
X142502418Y-123942970D01*
X142509859Y-123930554D01*
X142518482Y-123918928D01*
X142528203Y-123908203D01*
X142538928Y-123898482D01*
X142550554Y-123889859D01*
X142562970Y-123882418D01*
X142576055Y-123876229D01*
X142589684Y-123871352D01*
X142603725Y-123867835D01*
X142618043Y-123865711D01*
X142632501Y-123865001D01*
X142927501Y-123865001D01*
X142941959Y-123865711D01*
X142941959Y-123865711D01*
G37*
D14*
X142780001Y-124185001D03*
D13*
G36*
X143911959Y-123865711D02*
G01*
X143926277Y-123867835D01*
X143940318Y-123871352D01*
X143953947Y-123876229D01*
X143967032Y-123882418D01*
X143979448Y-123889859D01*
X143991074Y-123898482D01*
X144001799Y-123908203D01*
X144011520Y-123918928D01*
X144020143Y-123930554D01*
X144027584Y-123942970D01*
X144033773Y-123956055D01*
X144038650Y-123969684D01*
X144042167Y-123983725D01*
X144044291Y-123998043D01*
X144045001Y-124012501D01*
X144045001Y-124357501D01*
X144044291Y-124371959D01*
X144042167Y-124386277D01*
X144038650Y-124400318D01*
X144033773Y-124413947D01*
X144027584Y-124427032D01*
X144020143Y-124439448D01*
X144011520Y-124451074D01*
X144001799Y-124461799D01*
X143991074Y-124471520D01*
X143979448Y-124480143D01*
X143967032Y-124487584D01*
X143953947Y-124493773D01*
X143940318Y-124498650D01*
X143926277Y-124502167D01*
X143911959Y-124504291D01*
X143897501Y-124505001D01*
X143602501Y-124505001D01*
X143588043Y-124504291D01*
X143573725Y-124502167D01*
X143559684Y-124498650D01*
X143546055Y-124493773D01*
X143532970Y-124487584D01*
X143520554Y-124480143D01*
X143508928Y-124471520D01*
X143498203Y-124461799D01*
X143488482Y-124451074D01*
X143479859Y-124439448D01*
X143472418Y-124427032D01*
X143466229Y-124413947D01*
X143461352Y-124400318D01*
X143457835Y-124386277D01*
X143455711Y-124371959D01*
X143455001Y-124357501D01*
X143455001Y-124012501D01*
X143455711Y-123998043D01*
X143457835Y-123983725D01*
X143461352Y-123969684D01*
X143466229Y-123956055D01*
X143472418Y-123942970D01*
X143479859Y-123930554D01*
X143488482Y-123918928D01*
X143498203Y-123908203D01*
X143508928Y-123898482D01*
X143520554Y-123889859D01*
X143532970Y-123882418D01*
X143546055Y-123876229D01*
X143559684Y-123871352D01*
X143573725Y-123867835D01*
X143588043Y-123865711D01*
X143602501Y-123865001D01*
X143897501Y-123865001D01*
X143911959Y-123865711D01*
X143911959Y-123865711D01*
G37*
D14*
X143750001Y-124185001D03*
D13*
G36*
X140481959Y-126075711D02*
G01*
X140496277Y-126077835D01*
X140510318Y-126081352D01*
X140523947Y-126086229D01*
X140537032Y-126092418D01*
X140549448Y-126099859D01*
X140561074Y-126108482D01*
X140571799Y-126118203D01*
X140581520Y-126128928D01*
X140590143Y-126140554D01*
X140597584Y-126152970D01*
X140603773Y-126166055D01*
X140608650Y-126179684D01*
X140612167Y-126193725D01*
X140614291Y-126208043D01*
X140615001Y-126222501D01*
X140615001Y-126567501D01*
X140614291Y-126581959D01*
X140612167Y-126596277D01*
X140608650Y-126610318D01*
X140603773Y-126623947D01*
X140597584Y-126637032D01*
X140590143Y-126649448D01*
X140581520Y-126661074D01*
X140571799Y-126671799D01*
X140561074Y-126681520D01*
X140549448Y-126690143D01*
X140537032Y-126697584D01*
X140523947Y-126703773D01*
X140510318Y-126708650D01*
X140496277Y-126712167D01*
X140481959Y-126714291D01*
X140467501Y-126715001D01*
X140172501Y-126715001D01*
X140158043Y-126714291D01*
X140143725Y-126712167D01*
X140129684Y-126708650D01*
X140116055Y-126703773D01*
X140102970Y-126697584D01*
X140090554Y-126690143D01*
X140078928Y-126681520D01*
X140068203Y-126671799D01*
X140058482Y-126661074D01*
X140049859Y-126649448D01*
X140042418Y-126637032D01*
X140036229Y-126623947D01*
X140031352Y-126610318D01*
X140027835Y-126596277D01*
X140025711Y-126581959D01*
X140025001Y-126567501D01*
X140025001Y-126222501D01*
X140025711Y-126208043D01*
X140027835Y-126193725D01*
X140031352Y-126179684D01*
X140036229Y-126166055D01*
X140042418Y-126152970D01*
X140049859Y-126140554D01*
X140058482Y-126128928D01*
X140068203Y-126118203D01*
X140078928Y-126108482D01*
X140090554Y-126099859D01*
X140102970Y-126092418D01*
X140116055Y-126086229D01*
X140129684Y-126081352D01*
X140143725Y-126077835D01*
X140158043Y-126075711D01*
X140172501Y-126075001D01*
X140467501Y-126075001D01*
X140481959Y-126075711D01*
X140481959Y-126075711D01*
G37*
D14*
X140320001Y-126395001D03*
D13*
G36*
X139511959Y-126075711D02*
G01*
X139526277Y-126077835D01*
X139540318Y-126081352D01*
X139553947Y-126086229D01*
X139567032Y-126092418D01*
X139579448Y-126099859D01*
X139591074Y-126108482D01*
X139601799Y-126118203D01*
X139611520Y-126128928D01*
X139620143Y-126140554D01*
X139627584Y-126152970D01*
X139633773Y-126166055D01*
X139638650Y-126179684D01*
X139642167Y-126193725D01*
X139644291Y-126208043D01*
X139645001Y-126222501D01*
X139645001Y-126567501D01*
X139644291Y-126581959D01*
X139642167Y-126596277D01*
X139638650Y-126610318D01*
X139633773Y-126623947D01*
X139627584Y-126637032D01*
X139620143Y-126649448D01*
X139611520Y-126661074D01*
X139601799Y-126671799D01*
X139591074Y-126681520D01*
X139579448Y-126690143D01*
X139567032Y-126697584D01*
X139553947Y-126703773D01*
X139540318Y-126708650D01*
X139526277Y-126712167D01*
X139511959Y-126714291D01*
X139497501Y-126715001D01*
X139202501Y-126715001D01*
X139188043Y-126714291D01*
X139173725Y-126712167D01*
X139159684Y-126708650D01*
X139146055Y-126703773D01*
X139132970Y-126697584D01*
X139120554Y-126690143D01*
X139108928Y-126681520D01*
X139098203Y-126671799D01*
X139088482Y-126661074D01*
X139079859Y-126649448D01*
X139072418Y-126637032D01*
X139066229Y-126623947D01*
X139061352Y-126610318D01*
X139057835Y-126596277D01*
X139055711Y-126581959D01*
X139055001Y-126567501D01*
X139055001Y-126222501D01*
X139055711Y-126208043D01*
X139057835Y-126193725D01*
X139061352Y-126179684D01*
X139066229Y-126166055D01*
X139072418Y-126152970D01*
X139079859Y-126140554D01*
X139088482Y-126128928D01*
X139098203Y-126118203D01*
X139108928Y-126108482D01*
X139120554Y-126099859D01*
X139132970Y-126092418D01*
X139146055Y-126086229D01*
X139159684Y-126081352D01*
X139173725Y-126077835D01*
X139188043Y-126075711D01*
X139202501Y-126075001D01*
X139497501Y-126075001D01*
X139511959Y-126075711D01*
X139511959Y-126075711D01*
G37*
D14*
X139350001Y-126395001D03*
D13*
G36*
X137601959Y-126075711D02*
G01*
X137616277Y-126077835D01*
X137630318Y-126081352D01*
X137643947Y-126086229D01*
X137657032Y-126092418D01*
X137669448Y-126099859D01*
X137681074Y-126108482D01*
X137691799Y-126118203D01*
X137701520Y-126128928D01*
X137710143Y-126140554D01*
X137717584Y-126152970D01*
X137723773Y-126166055D01*
X137728650Y-126179684D01*
X137732167Y-126193725D01*
X137734291Y-126208043D01*
X137735001Y-126222501D01*
X137735001Y-126567501D01*
X137734291Y-126581959D01*
X137732167Y-126596277D01*
X137728650Y-126610318D01*
X137723773Y-126623947D01*
X137717584Y-126637032D01*
X137710143Y-126649448D01*
X137701520Y-126661074D01*
X137691799Y-126671799D01*
X137681074Y-126681520D01*
X137669448Y-126690143D01*
X137657032Y-126697584D01*
X137643947Y-126703773D01*
X137630318Y-126708650D01*
X137616277Y-126712167D01*
X137601959Y-126714291D01*
X137587501Y-126715001D01*
X137292501Y-126715001D01*
X137278043Y-126714291D01*
X137263725Y-126712167D01*
X137249684Y-126708650D01*
X137236055Y-126703773D01*
X137222970Y-126697584D01*
X137210554Y-126690143D01*
X137198928Y-126681520D01*
X137188203Y-126671799D01*
X137178482Y-126661074D01*
X137169859Y-126649448D01*
X137162418Y-126637032D01*
X137156229Y-126623947D01*
X137151352Y-126610318D01*
X137147835Y-126596277D01*
X137145711Y-126581959D01*
X137145001Y-126567501D01*
X137145001Y-126222501D01*
X137145711Y-126208043D01*
X137147835Y-126193725D01*
X137151352Y-126179684D01*
X137156229Y-126166055D01*
X137162418Y-126152970D01*
X137169859Y-126140554D01*
X137178482Y-126128928D01*
X137188203Y-126118203D01*
X137198928Y-126108482D01*
X137210554Y-126099859D01*
X137222970Y-126092418D01*
X137236055Y-126086229D01*
X137249684Y-126081352D01*
X137263725Y-126077835D01*
X137278043Y-126075711D01*
X137292501Y-126075001D01*
X137587501Y-126075001D01*
X137601959Y-126075711D01*
X137601959Y-126075711D01*
G37*
D14*
X137440001Y-126395001D03*
D13*
G36*
X138571959Y-126075711D02*
G01*
X138586277Y-126077835D01*
X138600318Y-126081352D01*
X138613947Y-126086229D01*
X138627032Y-126092418D01*
X138639448Y-126099859D01*
X138651074Y-126108482D01*
X138661799Y-126118203D01*
X138671520Y-126128928D01*
X138680143Y-126140554D01*
X138687584Y-126152970D01*
X138693773Y-126166055D01*
X138698650Y-126179684D01*
X138702167Y-126193725D01*
X138704291Y-126208043D01*
X138705001Y-126222501D01*
X138705001Y-126567501D01*
X138704291Y-126581959D01*
X138702167Y-126596277D01*
X138698650Y-126610318D01*
X138693773Y-126623947D01*
X138687584Y-126637032D01*
X138680143Y-126649448D01*
X138671520Y-126661074D01*
X138661799Y-126671799D01*
X138651074Y-126681520D01*
X138639448Y-126690143D01*
X138627032Y-126697584D01*
X138613947Y-126703773D01*
X138600318Y-126708650D01*
X138586277Y-126712167D01*
X138571959Y-126714291D01*
X138557501Y-126715001D01*
X138262501Y-126715001D01*
X138248043Y-126714291D01*
X138233725Y-126712167D01*
X138219684Y-126708650D01*
X138206055Y-126703773D01*
X138192970Y-126697584D01*
X138180554Y-126690143D01*
X138168928Y-126681520D01*
X138158203Y-126671799D01*
X138148482Y-126661074D01*
X138139859Y-126649448D01*
X138132418Y-126637032D01*
X138126229Y-126623947D01*
X138121352Y-126610318D01*
X138117835Y-126596277D01*
X138115711Y-126581959D01*
X138115001Y-126567501D01*
X138115001Y-126222501D01*
X138115711Y-126208043D01*
X138117835Y-126193725D01*
X138121352Y-126179684D01*
X138126229Y-126166055D01*
X138132418Y-126152970D01*
X138139859Y-126140554D01*
X138148482Y-126128928D01*
X138158203Y-126118203D01*
X138168928Y-126108482D01*
X138180554Y-126099859D01*
X138192970Y-126092418D01*
X138206055Y-126086229D01*
X138219684Y-126081352D01*
X138233725Y-126077835D01*
X138248043Y-126075711D01*
X138262501Y-126075001D01*
X138557501Y-126075001D01*
X138571959Y-126075711D01*
X138571959Y-126075711D01*
G37*
D14*
X138410001Y-126395001D03*
D13*
G36*
X143911959Y-122875711D02*
G01*
X143926277Y-122877835D01*
X143940318Y-122881352D01*
X143953947Y-122886229D01*
X143967032Y-122892418D01*
X143979448Y-122899859D01*
X143991074Y-122908482D01*
X144001799Y-122918203D01*
X144011520Y-122928928D01*
X144020143Y-122940554D01*
X144027584Y-122952970D01*
X144033773Y-122966055D01*
X144038650Y-122979684D01*
X144042167Y-122993725D01*
X144044291Y-123008043D01*
X144045001Y-123022501D01*
X144045001Y-123367501D01*
X144044291Y-123381959D01*
X144042167Y-123396277D01*
X144038650Y-123410318D01*
X144033773Y-123423947D01*
X144027584Y-123437032D01*
X144020143Y-123449448D01*
X144011520Y-123461074D01*
X144001799Y-123471799D01*
X143991074Y-123481520D01*
X143979448Y-123490143D01*
X143967032Y-123497584D01*
X143953947Y-123503773D01*
X143940318Y-123508650D01*
X143926277Y-123512167D01*
X143911959Y-123514291D01*
X143897501Y-123515001D01*
X143602501Y-123515001D01*
X143588043Y-123514291D01*
X143573725Y-123512167D01*
X143559684Y-123508650D01*
X143546055Y-123503773D01*
X143532970Y-123497584D01*
X143520554Y-123490143D01*
X143508928Y-123481520D01*
X143498203Y-123471799D01*
X143488482Y-123461074D01*
X143479859Y-123449448D01*
X143472418Y-123437032D01*
X143466229Y-123423947D01*
X143461352Y-123410318D01*
X143457835Y-123396277D01*
X143455711Y-123381959D01*
X143455001Y-123367501D01*
X143455001Y-123022501D01*
X143455711Y-123008043D01*
X143457835Y-122993725D01*
X143461352Y-122979684D01*
X143466229Y-122966055D01*
X143472418Y-122952970D01*
X143479859Y-122940554D01*
X143488482Y-122928928D01*
X143498203Y-122918203D01*
X143508928Y-122908482D01*
X143520554Y-122899859D01*
X143532970Y-122892418D01*
X143546055Y-122886229D01*
X143559684Y-122881352D01*
X143573725Y-122877835D01*
X143588043Y-122875711D01*
X143602501Y-122875001D01*
X143897501Y-122875001D01*
X143911959Y-122875711D01*
X143911959Y-122875711D01*
G37*
D14*
X143750001Y-123195001D03*
D13*
G36*
X142941959Y-122875711D02*
G01*
X142956277Y-122877835D01*
X142970318Y-122881352D01*
X142983947Y-122886229D01*
X142997032Y-122892418D01*
X143009448Y-122899859D01*
X143021074Y-122908482D01*
X143031799Y-122918203D01*
X143041520Y-122928928D01*
X143050143Y-122940554D01*
X143057584Y-122952970D01*
X143063773Y-122966055D01*
X143068650Y-122979684D01*
X143072167Y-122993725D01*
X143074291Y-123008043D01*
X143075001Y-123022501D01*
X143075001Y-123367501D01*
X143074291Y-123381959D01*
X143072167Y-123396277D01*
X143068650Y-123410318D01*
X143063773Y-123423947D01*
X143057584Y-123437032D01*
X143050143Y-123449448D01*
X143041520Y-123461074D01*
X143031799Y-123471799D01*
X143021074Y-123481520D01*
X143009448Y-123490143D01*
X142997032Y-123497584D01*
X142983947Y-123503773D01*
X142970318Y-123508650D01*
X142956277Y-123512167D01*
X142941959Y-123514291D01*
X142927501Y-123515001D01*
X142632501Y-123515001D01*
X142618043Y-123514291D01*
X142603725Y-123512167D01*
X142589684Y-123508650D01*
X142576055Y-123503773D01*
X142562970Y-123497584D01*
X142550554Y-123490143D01*
X142538928Y-123481520D01*
X142528203Y-123471799D01*
X142518482Y-123461074D01*
X142509859Y-123449448D01*
X142502418Y-123437032D01*
X142496229Y-123423947D01*
X142491352Y-123410318D01*
X142487835Y-123396277D01*
X142485711Y-123381959D01*
X142485001Y-123367501D01*
X142485001Y-123022501D01*
X142485711Y-123008043D01*
X142487835Y-122993725D01*
X142491352Y-122979684D01*
X142496229Y-122966055D01*
X142502418Y-122952970D01*
X142509859Y-122940554D01*
X142518482Y-122928928D01*
X142528203Y-122918203D01*
X142538928Y-122908482D01*
X142550554Y-122899859D01*
X142562970Y-122892418D01*
X142576055Y-122886229D01*
X142589684Y-122881352D01*
X142603725Y-122877835D01*
X142618043Y-122875711D01*
X142632501Y-122875001D01*
X142927501Y-122875001D01*
X142941959Y-122875711D01*
X142941959Y-122875711D01*
G37*
D14*
X142780001Y-123195001D03*
D13*
G36*
X135691959Y-126075711D02*
G01*
X135706277Y-126077835D01*
X135720318Y-126081352D01*
X135733947Y-126086229D01*
X135747032Y-126092418D01*
X135759448Y-126099859D01*
X135771074Y-126108482D01*
X135781799Y-126118203D01*
X135791520Y-126128928D01*
X135800143Y-126140554D01*
X135807584Y-126152970D01*
X135813773Y-126166055D01*
X135818650Y-126179684D01*
X135822167Y-126193725D01*
X135824291Y-126208043D01*
X135825001Y-126222501D01*
X135825001Y-126567501D01*
X135824291Y-126581959D01*
X135822167Y-126596277D01*
X135818650Y-126610318D01*
X135813773Y-126623947D01*
X135807584Y-126637032D01*
X135800143Y-126649448D01*
X135791520Y-126661074D01*
X135781799Y-126671799D01*
X135771074Y-126681520D01*
X135759448Y-126690143D01*
X135747032Y-126697584D01*
X135733947Y-126703773D01*
X135720318Y-126708650D01*
X135706277Y-126712167D01*
X135691959Y-126714291D01*
X135677501Y-126715001D01*
X135382501Y-126715001D01*
X135368043Y-126714291D01*
X135353725Y-126712167D01*
X135339684Y-126708650D01*
X135326055Y-126703773D01*
X135312970Y-126697584D01*
X135300554Y-126690143D01*
X135288928Y-126681520D01*
X135278203Y-126671799D01*
X135268482Y-126661074D01*
X135259859Y-126649448D01*
X135252418Y-126637032D01*
X135246229Y-126623947D01*
X135241352Y-126610318D01*
X135237835Y-126596277D01*
X135235711Y-126581959D01*
X135235001Y-126567501D01*
X135235001Y-126222501D01*
X135235711Y-126208043D01*
X135237835Y-126193725D01*
X135241352Y-126179684D01*
X135246229Y-126166055D01*
X135252418Y-126152970D01*
X135259859Y-126140554D01*
X135268482Y-126128928D01*
X135278203Y-126118203D01*
X135288928Y-126108482D01*
X135300554Y-126099859D01*
X135312970Y-126092418D01*
X135326055Y-126086229D01*
X135339684Y-126081352D01*
X135353725Y-126077835D01*
X135368043Y-126075711D01*
X135382501Y-126075001D01*
X135677501Y-126075001D01*
X135691959Y-126075711D01*
X135691959Y-126075711D01*
G37*
D14*
X135530001Y-126395001D03*
D13*
G36*
X136661959Y-126075711D02*
G01*
X136676277Y-126077835D01*
X136690318Y-126081352D01*
X136703947Y-126086229D01*
X136717032Y-126092418D01*
X136729448Y-126099859D01*
X136741074Y-126108482D01*
X136751799Y-126118203D01*
X136761520Y-126128928D01*
X136770143Y-126140554D01*
X136777584Y-126152970D01*
X136783773Y-126166055D01*
X136788650Y-126179684D01*
X136792167Y-126193725D01*
X136794291Y-126208043D01*
X136795001Y-126222501D01*
X136795001Y-126567501D01*
X136794291Y-126581959D01*
X136792167Y-126596277D01*
X136788650Y-126610318D01*
X136783773Y-126623947D01*
X136777584Y-126637032D01*
X136770143Y-126649448D01*
X136761520Y-126661074D01*
X136751799Y-126671799D01*
X136741074Y-126681520D01*
X136729448Y-126690143D01*
X136717032Y-126697584D01*
X136703947Y-126703773D01*
X136690318Y-126708650D01*
X136676277Y-126712167D01*
X136661959Y-126714291D01*
X136647501Y-126715001D01*
X136352501Y-126715001D01*
X136338043Y-126714291D01*
X136323725Y-126712167D01*
X136309684Y-126708650D01*
X136296055Y-126703773D01*
X136282970Y-126697584D01*
X136270554Y-126690143D01*
X136258928Y-126681520D01*
X136248203Y-126671799D01*
X136238482Y-126661074D01*
X136229859Y-126649448D01*
X136222418Y-126637032D01*
X136216229Y-126623947D01*
X136211352Y-126610318D01*
X136207835Y-126596277D01*
X136205711Y-126581959D01*
X136205001Y-126567501D01*
X136205001Y-126222501D01*
X136205711Y-126208043D01*
X136207835Y-126193725D01*
X136211352Y-126179684D01*
X136216229Y-126166055D01*
X136222418Y-126152970D01*
X136229859Y-126140554D01*
X136238482Y-126128928D01*
X136248203Y-126118203D01*
X136258928Y-126108482D01*
X136270554Y-126099859D01*
X136282970Y-126092418D01*
X136296055Y-126086229D01*
X136309684Y-126081352D01*
X136323725Y-126077835D01*
X136338043Y-126075711D01*
X136352501Y-126075001D01*
X136647501Y-126075001D01*
X136661959Y-126075711D01*
X136661959Y-126075711D01*
G37*
D14*
X136500001Y-126395001D03*
D15*
X144415000Y-109930000D03*
X144415000Y-110430000D03*
X144415000Y-110930000D03*
X144415000Y-111430000D03*
X143065000Y-111430000D03*
X143065000Y-110930000D03*
X143065000Y-110430000D03*
X143065000Y-109930000D03*
D13*
G36*
X142236958Y-107940710D02*
G01*
X142251276Y-107942834D01*
X142265317Y-107946351D01*
X142278946Y-107951228D01*
X142292031Y-107957417D01*
X142304447Y-107964858D01*
X142316073Y-107973481D01*
X142326798Y-107983202D01*
X142336519Y-107993927D01*
X142345142Y-108005553D01*
X142352583Y-108017969D01*
X142358772Y-108031054D01*
X142363649Y-108044683D01*
X142367166Y-108058724D01*
X142369290Y-108073042D01*
X142370000Y-108087500D01*
X142370000Y-108382500D01*
X142369290Y-108396958D01*
X142367166Y-108411276D01*
X142363649Y-108425317D01*
X142358772Y-108438946D01*
X142352583Y-108452031D01*
X142345142Y-108464447D01*
X142336519Y-108476073D01*
X142326798Y-108486798D01*
X142316073Y-108496519D01*
X142304447Y-108505142D01*
X142292031Y-108512583D01*
X142278946Y-108518772D01*
X142265317Y-108523649D01*
X142251276Y-108527166D01*
X142236958Y-108529290D01*
X142222500Y-108530000D01*
X141877500Y-108530000D01*
X141863042Y-108529290D01*
X141848724Y-108527166D01*
X141834683Y-108523649D01*
X141821054Y-108518772D01*
X141807969Y-108512583D01*
X141795553Y-108505142D01*
X141783927Y-108496519D01*
X141773202Y-108486798D01*
X141763481Y-108476073D01*
X141754858Y-108464447D01*
X141747417Y-108452031D01*
X141741228Y-108438946D01*
X141736351Y-108425317D01*
X141732834Y-108411276D01*
X141730710Y-108396958D01*
X141730000Y-108382500D01*
X141730000Y-108087500D01*
X141730710Y-108073042D01*
X141732834Y-108058724D01*
X141736351Y-108044683D01*
X141741228Y-108031054D01*
X141747417Y-108017969D01*
X141754858Y-108005553D01*
X141763481Y-107993927D01*
X141773202Y-107983202D01*
X141783927Y-107973481D01*
X141795553Y-107964858D01*
X141807969Y-107957417D01*
X141821054Y-107951228D01*
X141834683Y-107946351D01*
X141848724Y-107942834D01*
X141863042Y-107940710D01*
X141877500Y-107940000D01*
X142222500Y-107940000D01*
X142236958Y-107940710D01*
X142236958Y-107940710D01*
G37*
D14*
X142050000Y-108235000D03*
D13*
G36*
X142236958Y-108910710D02*
G01*
X142251276Y-108912834D01*
X142265317Y-108916351D01*
X142278946Y-108921228D01*
X142292031Y-108927417D01*
X142304447Y-108934858D01*
X142316073Y-108943481D01*
X142326798Y-108953202D01*
X142336519Y-108963927D01*
X142345142Y-108975553D01*
X142352583Y-108987969D01*
X142358772Y-109001054D01*
X142363649Y-109014683D01*
X142367166Y-109028724D01*
X142369290Y-109043042D01*
X142370000Y-109057500D01*
X142370000Y-109352500D01*
X142369290Y-109366958D01*
X142367166Y-109381276D01*
X142363649Y-109395317D01*
X142358772Y-109408946D01*
X142352583Y-109422031D01*
X142345142Y-109434447D01*
X142336519Y-109446073D01*
X142326798Y-109456798D01*
X142316073Y-109466519D01*
X142304447Y-109475142D01*
X142292031Y-109482583D01*
X142278946Y-109488772D01*
X142265317Y-109493649D01*
X142251276Y-109497166D01*
X142236958Y-109499290D01*
X142222500Y-109500000D01*
X141877500Y-109500000D01*
X141863042Y-109499290D01*
X141848724Y-109497166D01*
X141834683Y-109493649D01*
X141821054Y-109488772D01*
X141807969Y-109482583D01*
X141795553Y-109475142D01*
X141783927Y-109466519D01*
X141773202Y-109456798D01*
X141763481Y-109446073D01*
X141754858Y-109434447D01*
X141747417Y-109422031D01*
X141741228Y-109408946D01*
X141736351Y-109395317D01*
X141732834Y-109381276D01*
X141730710Y-109366958D01*
X141730000Y-109352500D01*
X141730000Y-109057500D01*
X141730710Y-109043042D01*
X141732834Y-109028724D01*
X141736351Y-109014683D01*
X141741228Y-109001054D01*
X141747417Y-108987969D01*
X141754858Y-108975553D01*
X141763481Y-108963927D01*
X141773202Y-108953202D01*
X141783927Y-108943481D01*
X141795553Y-108934858D01*
X141807969Y-108927417D01*
X141821054Y-108921228D01*
X141834683Y-108916351D01*
X141848724Y-108912834D01*
X141863042Y-108910710D01*
X141877500Y-108910000D01*
X142222500Y-108910000D01*
X142236958Y-108910710D01*
X142236958Y-108910710D01*
G37*
D14*
X142050000Y-109205000D03*
D13*
G36*
X139916958Y-108910710D02*
G01*
X139931276Y-108912834D01*
X139945317Y-108916351D01*
X139958946Y-108921228D01*
X139972031Y-108927417D01*
X139984447Y-108934858D01*
X139996073Y-108943481D01*
X140006798Y-108953202D01*
X140016519Y-108963927D01*
X140025142Y-108975553D01*
X140032583Y-108987969D01*
X140038772Y-109001054D01*
X140043649Y-109014683D01*
X140047166Y-109028724D01*
X140049290Y-109043042D01*
X140050000Y-109057500D01*
X140050000Y-109352500D01*
X140049290Y-109366958D01*
X140047166Y-109381276D01*
X140043649Y-109395317D01*
X140038772Y-109408946D01*
X140032583Y-109422031D01*
X140025142Y-109434447D01*
X140016519Y-109446073D01*
X140006798Y-109456798D01*
X139996073Y-109466519D01*
X139984447Y-109475142D01*
X139972031Y-109482583D01*
X139958946Y-109488772D01*
X139945317Y-109493649D01*
X139931276Y-109497166D01*
X139916958Y-109499290D01*
X139902500Y-109500000D01*
X139557500Y-109500000D01*
X139543042Y-109499290D01*
X139528724Y-109497166D01*
X139514683Y-109493649D01*
X139501054Y-109488772D01*
X139487969Y-109482583D01*
X139475553Y-109475142D01*
X139463927Y-109466519D01*
X139453202Y-109456798D01*
X139443481Y-109446073D01*
X139434858Y-109434447D01*
X139427417Y-109422031D01*
X139421228Y-109408946D01*
X139416351Y-109395317D01*
X139412834Y-109381276D01*
X139410710Y-109366958D01*
X139410000Y-109352500D01*
X139410000Y-109057500D01*
X139410710Y-109043042D01*
X139412834Y-109028724D01*
X139416351Y-109014683D01*
X139421228Y-109001054D01*
X139427417Y-108987969D01*
X139434858Y-108975553D01*
X139443481Y-108963927D01*
X139453202Y-108953202D01*
X139463927Y-108943481D01*
X139475553Y-108934858D01*
X139487969Y-108927417D01*
X139501054Y-108921228D01*
X139514683Y-108916351D01*
X139528724Y-108912834D01*
X139543042Y-108910710D01*
X139557500Y-108910000D01*
X139902500Y-108910000D01*
X139916958Y-108910710D01*
X139916958Y-108910710D01*
G37*
D14*
X139730000Y-109205000D03*
D13*
G36*
X139916958Y-107940710D02*
G01*
X139931276Y-107942834D01*
X139945317Y-107946351D01*
X139958946Y-107951228D01*
X139972031Y-107957417D01*
X139984447Y-107964858D01*
X139996073Y-107973481D01*
X140006798Y-107983202D01*
X140016519Y-107993927D01*
X140025142Y-108005553D01*
X140032583Y-108017969D01*
X140038772Y-108031054D01*
X140043649Y-108044683D01*
X140047166Y-108058724D01*
X140049290Y-108073042D01*
X140050000Y-108087500D01*
X140050000Y-108382500D01*
X140049290Y-108396958D01*
X140047166Y-108411276D01*
X140043649Y-108425317D01*
X140038772Y-108438946D01*
X140032583Y-108452031D01*
X140025142Y-108464447D01*
X140016519Y-108476073D01*
X140006798Y-108486798D01*
X139996073Y-108496519D01*
X139984447Y-108505142D01*
X139972031Y-108512583D01*
X139958946Y-108518772D01*
X139945317Y-108523649D01*
X139931276Y-108527166D01*
X139916958Y-108529290D01*
X139902500Y-108530000D01*
X139557500Y-108530000D01*
X139543042Y-108529290D01*
X139528724Y-108527166D01*
X139514683Y-108523649D01*
X139501054Y-108518772D01*
X139487969Y-108512583D01*
X139475553Y-108505142D01*
X139463927Y-108496519D01*
X139453202Y-108486798D01*
X139443481Y-108476073D01*
X139434858Y-108464447D01*
X139427417Y-108452031D01*
X139421228Y-108438946D01*
X139416351Y-108425317D01*
X139412834Y-108411276D01*
X139410710Y-108396958D01*
X139410000Y-108382500D01*
X139410000Y-108087500D01*
X139410710Y-108073042D01*
X139412834Y-108058724D01*
X139416351Y-108044683D01*
X139421228Y-108031054D01*
X139427417Y-108017969D01*
X139434858Y-108005553D01*
X139443481Y-107993927D01*
X139453202Y-107983202D01*
X139463927Y-107973481D01*
X139475553Y-107964858D01*
X139487969Y-107957417D01*
X139501054Y-107951228D01*
X139514683Y-107946351D01*
X139528724Y-107942834D01*
X139543042Y-107940710D01*
X139557500Y-107940000D01*
X139902500Y-107940000D01*
X139916958Y-107940710D01*
X139916958Y-107940710D01*
G37*
D14*
X139730000Y-108235000D03*
D13*
G36*
X141046958Y-108910710D02*
G01*
X141061276Y-108912834D01*
X141075317Y-108916351D01*
X141088946Y-108921228D01*
X141102031Y-108927417D01*
X141114447Y-108934858D01*
X141126073Y-108943481D01*
X141136798Y-108953202D01*
X141146519Y-108963927D01*
X141155142Y-108975553D01*
X141162583Y-108987969D01*
X141168772Y-109001054D01*
X141173649Y-109014683D01*
X141177166Y-109028724D01*
X141179290Y-109043042D01*
X141180000Y-109057500D01*
X141180000Y-109352500D01*
X141179290Y-109366958D01*
X141177166Y-109381276D01*
X141173649Y-109395317D01*
X141168772Y-109408946D01*
X141162583Y-109422031D01*
X141155142Y-109434447D01*
X141146519Y-109446073D01*
X141136798Y-109456798D01*
X141126073Y-109466519D01*
X141114447Y-109475142D01*
X141102031Y-109482583D01*
X141088946Y-109488772D01*
X141075317Y-109493649D01*
X141061276Y-109497166D01*
X141046958Y-109499290D01*
X141032500Y-109500000D01*
X140687500Y-109500000D01*
X140673042Y-109499290D01*
X140658724Y-109497166D01*
X140644683Y-109493649D01*
X140631054Y-109488772D01*
X140617969Y-109482583D01*
X140605553Y-109475142D01*
X140593927Y-109466519D01*
X140583202Y-109456798D01*
X140573481Y-109446073D01*
X140564858Y-109434447D01*
X140557417Y-109422031D01*
X140551228Y-109408946D01*
X140546351Y-109395317D01*
X140542834Y-109381276D01*
X140540710Y-109366958D01*
X140540000Y-109352500D01*
X140540000Y-109057500D01*
X140540710Y-109043042D01*
X140542834Y-109028724D01*
X140546351Y-109014683D01*
X140551228Y-109001054D01*
X140557417Y-108987969D01*
X140564858Y-108975553D01*
X140573481Y-108963927D01*
X140583202Y-108953202D01*
X140593927Y-108943481D01*
X140605553Y-108934858D01*
X140617969Y-108927417D01*
X140631054Y-108921228D01*
X140644683Y-108916351D01*
X140658724Y-108912834D01*
X140673042Y-108910710D01*
X140687500Y-108910000D01*
X141032500Y-108910000D01*
X141046958Y-108910710D01*
X141046958Y-108910710D01*
G37*
D14*
X140860000Y-109205000D03*
D13*
G36*
X141046958Y-107940710D02*
G01*
X141061276Y-107942834D01*
X141075317Y-107946351D01*
X141088946Y-107951228D01*
X141102031Y-107957417D01*
X141114447Y-107964858D01*
X141126073Y-107973481D01*
X141136798Y-107983202D01*
X141146519Y-107993927D01*
X141155142Y-108005553D01*
X141162583Y-108017969D01*
X141168772Y-108031054D01*
X141173649Y-108044683D01*
X141177166Y-108058724D01*
X141179290Y-108073042D01*
X141180000Y-108087500D01*
X141180000Y-108382500D01*
X141179290Y-108396958D01*
X141177166Y-108411276D01*
X141173649Y-108425317D01*
X141168772Y-108438946D01*
X141162583Y-108452031D01*
X141155142Y-108464447D01*
X141146519Y-108476073D01*
X141136798Y-108486798D01*
X141126073Y-108496519D01*
X141114447Y-108505142D01*
X141102031Y-108512583D01*
X141088946Y-108518772D01*
X141075317Y-108523649D01*
X141061276Y-108527166D01*
X141046958Y-108529290D01*
X141032500Y-108530000D01*
X140687500Y-108530000D01*
X140673042Y-108529290D01*
X140658724Y-108527166D01*
X140644683Y-108523649D01*
X140631054Y-108518772D01*
X140617969Y-108512583D01*
X140605553Y-108505142D01*
X140593927Y-108496519D01*
X140583202Y-108486798D01*
X140573481Y-108476073D01*
X140564858Y-108464447D01*
X140557417Y-108452031D01*
X140551228Y-108438946D01*
X140546351Y-108425317D01*
X140542834Y-108411276D01*
X140540710Y-108396958D01*
X140540000Y-108382500D01*
X140540000Y-108087500D01*
X140540710Y-108073042D01*
X140542834Y-108058724D01*
X140546351Y-108044683D01*
X140551228Y-108031054D01*
X140557417Y-108017969D01*
X140564858Y-108005553D01*
X140573481Y-107993927D01*
X140583202Y-107983202D01*
X140593927Y-107973481D01*
X140605553Y-107964858D01*
X140617969Y-107957417D01*
X140631054Y-107951228D01*
X140644683Y-107946351D01*
X140658724Y-107942834D01*
X140673042Y-107940710D01*
X140687500Y-107940000D01*
X141032500Y-107940000D01*
X141046958Y-107940710D01*
X141046958Y-107940710D01*
G37*
D14*
X140860000Y-108235000D03*
D13*
G36*
X133876958Y-111120710D02*
G01*
X133891276Y-111122834D01*
X133905317Y-111126351D01*
X133918946Y-111131228D01*
X133932031Y-111137417D01*
X133944447Y-111144858D01*
X133956073Y-111153481D01*
X133966798Y-111163202D01*
X133976519Y-111173927D01*
X133985142Y-111185553D01*
X133992583Y-111197969D01*
X133998772Y-111211054D01*
X134003649Y-111224683D01*
X134007166Y-111238724D01*
X134009290Y-111253042D01*
X134010000Y-111267500D01*
X134010000Y-111612500D01*
X134009290Y-111626958D01*
X134007166Y-111641276D01*
X134003649Y-111655317D01*
X133998772Y-111668946D01*
X133992583Y-111682031D01*
X133985142Y-111694447D01*
X133976519Y-111706073D01*
X133966798Y-111716798D01*
X133956073Y-111726519D01*
X133944447Y-111735142D01*
X133932031Y-111742583D01*
X133918946Y-111748772D01*
X133905317Y-111753649D01*
X133891276Y-111757166D01*
X133876958Y-111759290D01*
X133862500Y-111760000D01*
X133567500Y-111760000D01*
X133553042Y-111759290D01*
X133538724Y-111757166D01*
X133524683Y-111753649D01*
X133511054Y-111748772D01*
X133497969Y-111742583D01*
X133485553Y-111735142D01*
X133473927Y-111726519D01*
X133463202Y-111716798D01*
X133453481Y-111706073D01*
X133444858Y-111694447D01*
X133437417Y-111682031D01*
X133431228Y-111668946D01*
X133426351Y-111655317D01*
X133422834Y-111641276D01*
X133420710Y-111626958D01*
X133420000Y-111612500D01*
X133420000Y-111267500D01*
X133420710Y-111253042D01*
X133422834Y-111238724D01*
X133426351Y-111224683D01*
X133431228Y-111211054D01*
X133437417Y-111197969D01*
X133444858Y-111185553D01*
X133453481Y-111173927D01*
X133463202Y-111163202D01*
X133473927Y-111153481D01*
X133485553Y-111144858D01*
X133497969Y-111137417D01*
X133511054Y-111131228D01*
X133524683Y-111126351D01*
X133538724Y-111122834D01*
X133553042Y-111120710D01*
X133567500Y-111120000D01*
X133862500Y-111120000D01*
X133876958Y-111120710D01*
X133876958Y-111120710D01*
G37*
D14*
X133715000Y-111440000D03*
D13*
G36*
X134846958Y-111120710D02*
G01*
X134861276Y-111122834D01*
X134875317Y-111126351D01*
X134888946Y-111131228D01*
X134902031Y-111137417D01*
X134914447Y-111144858D01*
X134926073Y-111153481D01*
X134936798Y-111163202D01*
X134946519Y-111173927D01*
X134955142Y-111185553D01*
X134962583Y-111197969D01*
X134968772Y-111211054D01*
X134973649Y-111224683D01*
X134977166Y-111238724D01*
X134979290Y-111253042D01*
X134980000Y-111267500D01*
X134980000Y-111612500D01*
X134979290Y-111626958D01*
X134977166Y-111641276D01*
X134973649Y-111655317D01*
X134968772Y-111668946D01*
X134962583Y-111682031D01*
X134955142Y-111694447D01*
X134946519Y-111706073D01*
X134936798Y-111716798D01*
X134926073Y-111726519D01*
X134914447Y-111735142D01*
X134902031Y-111742583D01*
X134888946Y-111748772D01*
X134875317Y-111753649D01*
X134861276Y-111757166D01*
X134846958Y-111759290D01*
X134832500Y-111760000D01*
X134537500Y-111760000D01*
X134523042Y-111759290D01*
X134508724Y-111757166D01*
X134494683Y-111753649D01*
X134481054Y-111748772D01*
X134467969Y-111742583D01*
X134455553Y-111735142D01*
X134443927Y-111726519D01*
X134433202Y-111716798D01*
X134423481Y-111706073D01*
X134414858Y-111694447D01*
X134407417Y-111682031D01*
X134401228Y-111668946D01*
X134396351Y-111655317D01*
X134392834Y-111641276D01*
X134390710Y-111626958D01*
X134390000Y-111612500D01*
X134390000Y-111267500D01*
X134390710Y-111253042D01*
X134392834Y-111238724D01*
X134396351Y-111224683D01*
X134401228Y-111211054D01*
X134407417Y-111197969D01*
X134414858Y-111185553D01*
X134423481Y-111173927D01*
X134433202Y-111163202D01*
X134443927Y-111153481D01*
X134455553Y-111144858D01*
X134467969Y-111137417D01*
X134481054Y-111131228D01*
X134494683Y-111126351D01*
X134508724Y-111122834D01*
X134523042Y-111120710D01*
X134537500Y-111120000D01*
X134832500Y-111120000D01*
X134846958Y-111120710D01*
X134846958Y-111120710D01*
G37*
D14*
X134685000Y-111440000D03*
D13*
G36*
X132276958Y-101410710D02*
G01*
X132291276Y-101412834D01*
X132305317Y-101416351D01*
X132318946Y-101421228D01*
X132332031Y-101427417D01*
X132344447Y-101434858D01*
X132356073Y-101443481D01*
X132366798Y-101453202D01*
X132376519Y-101463927D01*
X132385142Y-101475553D01*
X132392583Y-101487969D01*
X132398772Y-101501054D01*
X132403649Y-101514683D01*
X132407166Y-101528724D01*
X132409290Y-101543042D01*
X132410000Y-101557500D01*
X132410000Y-101852500D01*
X132409290Y-101866958D01*
X132407166Y-101881276D01*
X132403649Y-101895317D01*
X132398772Y-101908946D01*
X132392583Y-101922031D01*
X132385142Y-101934447D01*
X132376519Y-101946073D01*
X132366798Y-101956798D01*
X132356073Y-101966519D01*
X132344447Y-101975142D01*
X132332031Y-101982583D01*
X132318946Y-101988772D01*
X132305317Y-101993649D01*
X132291276Y-101997166D01*
X132276958Y-101999290D01*
X132262500Y-102000000D01*
X131917500Y-102000000D01*
X131903042Y-101999290D01*
X131888724Y-101997166D01*
X131874683Y-101993649D01*
X131861054Y-101988772D01*
X131847969Y-101982583D01*
X131835553Y-101975142D01*
X131823927Y-101966519D01*
X131813202Y-101956798D01*
X131803481Y-101946073D01*
X131794858Y-101934447D01*
X131787417Y-101922031D01*
X131781228Y-101908946D01*
X131776351Y-101895317D01*
X131772834Y-101881276D01*
X131770710Y-101866958D01*
X131770000Y-101852500D01*
X131770000Y-101557500D01*
X131770710Y-101543042D01*
X131772834Y-101528724D01*
X131776351Y-101514683D01*
X131781228Y-101501054D01*
X131787417Y-101487969D01*
X131794858Y-101475553D01*
X131803481Y-101463927D01*
X131813202Y-101453202D01*
X131823927Y-101443481D01*
X131835553Y-101434858D01*
X131847969Y-101427417D01*
X131861054Y-101421228D01*
X131874683Y-101416351D01*
X131888724Y-101412834D01*
X131903042Y-101410710D01*
X131917500Y-101410000D01*
X132262500Y-101410000D01*
X132276958Y-101410710D01*
X132276958Y-101410710D01*
G37*
D14*
X132090000Y-101705000D03*
D13*
G36*
X132276958Y-100440710D02*
G01*
X132291276Y-100442834D01*
X132305317Y-100446351D01*
X132318946Y-100451228D01*
X132332031Y-100457417D01*
X132344447Y-100464858D01*
X132356073Y-100473481D01*
X132366798Y-100483202D01*
X132376519Y-100493927D01*
X132385142Y-100505553D01*
X132392583Y-100517969D01*
X132398772Y-100531054D01*
X132403649Y-100544683D01*
X132407166Y-100558724D01*
X132409290Y-100573042D01*
X132410000Y-100587500D01*
X132410000Y-100882500D01*
X132409290Y-100896958D01*
X132407166Y-100911276D01*
X132403649Y-100925317D01*
X132398772Y-100938946D01*
X132392583Y-100952031D01*
X132385142Y-100964447D01*
X132376519Y-100976073D01*
X132366798Y-100986798D01*
X132356073Y-100996519D01*
X132344447Y-101005142D01*
X132332031Y-101012583D01*
X132318946Y-101018772D01*
X132305317Y-101023649D01*
X132291276Y-101027166D01*
X132276958Y-101029290D01*
X132262500Y-101030000D01*
X131917500Y-101030000D01*
X131903042Y-101029290D01*
X131888724Y-101027166D01*
X131874683Y-101023649D01*
X131861054Y-101018772D01*
X131847969Y-101012583D01*
X131835553Y-101005142D01*
X131823927Y-100996519D01*
X131813202Y-100986798D01*
X131803481Y-100976073D01*
X131794858Y-100964447D01*
X131787417Y-100952031D01*
X131781228Y-100938946D01*
X131776351Y-100925317D01*
X131772834Y-100911276D01*
X131770710Y-100896958D01*
X131770000Y-100882500D01*
X131770000Y-100587500D01*
X131770710Y-100573042D01*
X131772834Y-100558724D01*
X131776351Y-100544683D01*
X131781228Y-100531054D01*
X131787417Y-100517969D01*
X131794858Y-100505553D01*
X131803481Y-100493927D01*
X131813202Y-100483202D01*
X131823927Y-100473481D01*
X131835553Y-100464858D01*
X131847969Y-100457417D01*
X131861054Y-100451228D01*
X131874683Y-100446351D01*
X131888724Y-100442834D01*
X131903042Y-100440710D01*
X131917500Y-100440000D01*
X132262500Y-100440000D01*
X132276958Y-100440710D01*
X132276958Y-100440710D01*
G37*
D14*
X132090000Y-100735000D03*
D13*
G36*
X143516958Y-108200710D02*
G01*
X143531276Y-108202834D01*
X143545317Y-108206351D01*
X143558946Y-108211228D01*
X143572031Y-108217417D01*
X143584447Y-108224858D01*
X143596073Y-108233481D01*
X143606798Y-108243202D01*
X143616519Y-108253927D01*
X143625142Y-108265553D01*
X143632583Y-108277969D01*
X143638772Y-108291054D01*
X143643649Y-108304683D01*
X143647166Y-108318724D01*
X143649290Y-108333042D01*
X143650000Y-108347500D01*
X143650000Y-108692500D01*
X143649290Y-108706958D01*
X143647166Y-108721276D01*
X143643649Y-108735317D01*
X143638772Y-108748946D01*
X143632583Y-108762031D01*
X143625142Y-108774447D01*
X143616519Y-108786073D01*
X143606798Y-108796798D01*
X143596073Y-108806519D01*
X143584447Y-108815142D01*
X143572031Y-108822583D01*
X143558946Y-108828772D01*
X143545317Y-108833649D01*
X143531276Y-108837166D01*
X143516958Y-108839290D01*
X143502500Y-108840000D01*
X143207500Y-108840000D01*
X143193042Y-108839290D01*
X143178724Y-108837166D01*
X143164683Y-108833649D01*
X143151054Y-108828772D01*
X143137969Y-108822583D01*
X143125553Y-108815142D01*
X143113927Y-108806519D01*
X143103202Y-108796798D01*
X143093481Y-108786073D01*
X143084858Y-108774447D01*
X143077417Y-108762031D01*
X143071228Y-108748946D01*
X143066351Y-108735317D01*
X143062834Y-108721276D01*
X143060710Y-108706958D01*
X143060000Y-108692500D01*
X143060000Y-108347500D01*
X143060710Y-108333042D01*
X143062834Y-108318724D01*
X143066351Y-108304683D01*
X143071228Y-108291054D01*
X143077417Y-108277969D01*
X143084858Y-108265553D01*
X143093481Y-108253927D01*
X143103202Y-108243202D01*
X143113927Y-108233481D01*
X143125553Y-108224858D01*
X143137969Y-108217417D01*
X143151054Y-108211228D01*
X143164683Y-108206351D01*
X143178724Y-108202834D01*
X143193042Y-108200710D01*
X143207500Y-108200000D01*
X143502500Y-108200000D01*
X143516958Y-108200710D01*
X143516958Y-108200710D01*
G37*
D14*
X143355000Y-108520000D03*
D13*
G36*
X144486958Y-108200710D02*
G01*
X144501276Y-108202834D01*
X144515317Y-108206351D01*
X144528946Y-108211228D01*
X144542031Y-108217417D01*
X144554447Y-108224858D01*
X144566073Y-108233481D01*
X144576798Y-108243202D01*
X144586519Y-108253927D01*
X144595142Y-108265553D01*
X144602583Y-108277969D01*
X144608772Y-108291054D01*
X144613649Y-108304683D01*
X144617166Y-108318724D01*
X144619290Y-108333042D01*
X144620000Y-108347500D01*
X144620000Y-108692500D01*
X144619290Y-108706958D01*
X144617166Y-108721276D01*
X144613649Y-108735317D01*
X144608772Y-108748946D01*
X144602583Y-108762031D01*
X144595142Y-108774447D01*
X144586519Y-108786073D01*
X144576798Y-108796798D01*
X144566073Y-108806519D01*
X144554447Y-108815142D01*
X144542031Y-108822583D01*
X144528946Y-108828772D01*
X144515317Y-108833649D01*
X144501276Y-108837166D01*
X144486958Y-108839290D01*
X144472500Y-108840000D01*
X144177500Y-108840000D01*
X144163042Y-108839290D01*
X144148724Y-108837166D01*
X144134683Y-108833649D01*
X144121054Y-108828772D01*
X144107969Y-108822583D01*
X144095553Y-108815142D01*
X144083927Y-108806519D01*
X144073202Y-108796798D01*
X144063481Y-108786073D01*
X144054858Y-108774447D01*
X144047417Y-108762031D01*
X144041228Y-108748946D01*
X144036351Y-108735317D01*
X144032834Y-108721276D01*
X144030710Y-108706958D01*
X144030000Y-108692500D01*
X144030000Y-108347500D01*
X144030710Y-108333042D01*
X144032834Y-108318724D01*
X144036351Y-108304683D01*
X144041228Y-108291054D01*
X144047417Y-108277969D01*
X144054858Y-108265553D01*
X144063481Y-108253927D01*
X144073202Y-108243202D01*
X144083927Y-108233481D01*
X144095553Y-108224858D01*
X144107969Y-108217417D01*
X144121054Y-108211228D01*
X144134683Y-108206351D01*
X144148724Y-108202834D01*
X144163042Y-108200710D01*
X144177500Y-108200000D01*
X144472500Y-108200000D01*
X144486958Y-108200710D01*
X144486958Y-108200710D01*
G37*
D14*
X144325000Y-108520000D03*
D16*
X147810000Y-109190000D03*
X146410000Y-109190000D03*
X137340000Y-105010000D03*
X135940000Y-105010000D03*
D17*
X141290000Y-110630000D03*
X141290000Y-112030000D03*
X129330000Y-102280000D03*
X129330000Y-103680000D03*
D18*
X148420000Y-110910000D03*
X146320000Y-110910000D03*
D11*
X130730000Y-111450000D03*
X132230000Y-111450000D03*
D19*
X127945000Y-98260000D03*
X124795000Y-98260000D03*
D20*
X133850000Y-103290000D03*
X134800000Y-103290000D03*
X135750000Y-103290000D03*
X135750000Y-100590000D03*
X133850000Y-100590000D03*
D21*
X141365000Y-104410000D03*
X141715000Y-104410000D03*
X142065000Y-104410000D03*
X142415000Y-104410000D03*
X142765000Y-104410000D03*
X143115000Y-104410000D03*
X141365000Y-104060000D03*
X141715000Y-104060000D03*
X142065000Y-104060000D03*
X142415000Y-104060000D03*
X142765000Y-104060000D03*
X143115000Y-104060000D03*
X141365000Y-103710000D03*
X141715000Y-103710000D03*
X142065000Y-103710000D03*
X142415000Y-103710000D03*
X142765000Y-103710000D03*
X143115000Y-103710000D03*
X141365000Y-103360000D03*
X141715000Y-103360000D03*
X142065000Y-103360000D03*
X142415000Y-103360000D03*
X142765000Y-103360000D03*
X143115000Y-103360000D03*
X141365000Y-103010000D03*
X141715000Y-103010000D03*
X142065000Y-103010000D03*
X142415000Y-103010000D03*
X142765000Y-103010000D03*
X143115000Y-103010000D03*
X141365000Y-102660000D03*
X141715000Y-102660000D03*
X142065000Y-102660000D03*
X142415000Y-102660000D03*
X142765000Y-102660000D03*
X143115000Y-102660000D03*
X141365000Y-102310000D03*
X141715000Y-102310000D03*
X142065000Y-102310000D03*
X142415000Y-102310000D03*
X142765000Y-102310000D03*
X143115000Y-102310000D03*
D22*
X127120000Y-107472500D03*
D23*
X124820000Y-105847500D03*
D24*
X124820000Y-102097500D03*
X124820000Y-107922500D03*
D23*
X124820000Y-104172500D03*
D22*
X127120000Y-102547500D03*
D25*
X127480000Y-103710000D03*
X127480000Y-104360000D03*
X127480000Y-105010000D03*
X127480000Y-105660000D03*
X127480000Y-106310000D03*
M02*
