G04 #@! TF.GenerationSoftware,KiCad,Pcbnew,5.1.4+dfsg1-1~bpo10+1*
G04 #@! TF.CreationDate,2019-11-15T17:22:20+01:00*
G04 #@! TF.ProjectId,quicklogic-quick-feather-board,71756963-6b6c-46f6-9769-632d71756963,rev?*
G04 #@! TF.SameCoordinates,Original*
G04 #@! TF.FileFunction,Copper,L3,Inr*
G04 #@! TF.FilePolarity,Positive*
%FSLAX46Y46*%
G04 Gerber Fmt 4.6, Leading zero omitted, Abs format (unit mm)*
G04 Created by KiCad (PCBNEW 5.1.4+dfsg1-1~bpo10+1) date 2019-11-15 17:22:20*
%MOMM*%
%LPD*%
G04 APERTURE LIST*
%ADD10C,1.676400*%
%ADD11C,1.930400*%
G04 APERTURE END LIST*
D10*
X129451100Y-115163600D03*
X131991100Y-115163600D03*
X134531100Y-115163600D03*
X137071100Y-115163600D03*
X139611100Y-115163600D03*
X142151100Y-115163600D03*
X144691100Y-115163600D03*
X147231100Y-115163600D03*
X149771100Y-115163600D03*
X152311100Y-115163600D03*
X154851100Y-115163600D03*
X157391100Y-115163600D03*
X159931100Y-115163600D03*
X162471100Y-115163600D03*
X165011100Y-115163600D03*
X167551100Y-115163600D03*
X167551100Y-94843600D03*
X165011100Y-94843600D03*
X162471100Y-94843600D03*
X159931100Y-94843600D03*
X157391100Y-94843600D03*
X154851100Y-94843600D03*
X152311100Y-94843600D03*
X149771100Y-94843600D03*
X147231100Y-94843600D03*
X144691100Y-94843600D03*
X142151100Y-94843600D03*
X139611100Y-94843600D03*
D11*
X161201100Y-111988600D03*
X163741100Y-111988600D03*
X166281100Y-111988600D03*
X168821100Y-111988600D03*
X161201100Y-98018600D03*
X163741100Y-98018600D03*
X166281100Y-98018600D03*
X168821100Y-98018600D03*
X167551100Y-99923600D03*
X167551100Y-102463600D03*
X170091100Y-102463600D03*
X170091100Y-99923600D03*
X172631100Y-99923600D03*
X172631100Y-102463600D03*
X172631100Y-105003600D03*
X172631100Y-107543600D03*
X170091100Y-107543600D03*
X170091100Y-105003600D03*
X167551100Y-105003600D03*
X167551100Y-107543600D03*
X167551100Y-110083600D03*
X170091100Y-110083600D03*
X165011100Y-110083600D03*
X165011100Y-107543600D03*
X165011100Y-105003600D03*
X165011100Y-102463600D03*
X165011100Y-99923600D03*
X162471100Y-99923600D03*
X162471100Y-102463600D03*
X162471100Y-105003600D03*
X162471100Y-107543600D03*
X162471100Y-110083600D03*
X159931100Y-110083600D03*
X159931100Y-107543600D03*
X159931100Y-105003600D03*
X159931100Y-102463600D03*
X159931100Y-99923600D03*
X157391100Y-99923600D03*
X157391100Y-102463600D03*
X157391100Y-105003600D03*
X157391100Y-107543600D03*
X157391100Y-110083600D03*
X172631100Y-110083600D03*
X154851100Y-102463600D03*
X154851100Y-105003600D03*
X154851100Y-99923600D03*
X154851100Y-107543600D03*
X154851100Y-110083600D03*
M02*
